Pfont-Bold Italic.ufo
<glyph name="exclam" format="1">
  <advance width="566"/>
  <unicode hex="0021"/>
  <outline>
    <contour>
      <point x="484" y="449" type="line"/>
      <point x="774" y="1352" type="line"/>
      <point x="543" y="1301" type="line"/>
      <point x="294" y="382" type="line"/>
    </contour>
    <component base="period" xOffset="18" yOffset="-25" xScale="0.803" yScale="0.803"/>
  </outline>
</glyph>
<glyph name="numbersign" format="1">
  <advance width="1232"/>
  <unicode hex="0023"/>
  <outline>
    <contour>
      <point x="719" y="628" type="line"/>
      <point x="924" y="628" type="line"/>
      <point x="787" y="335" type="line"/>
      <point x="580" y="335" type="line"/>
    </contour>
    <contour>
      <point x="758" y="-72" type="line"/>
      <point x="879" y="185" type="line"/>
      <point x="1070" y="185" type="line"/>
      <point x="1144" y="335" type="line"/>
      <point x="950" y="335" type="line"/>
      <point x="1088" y="628" type="line"/>
      <point x="1291" y="628" type="line"/>
      <point x="1365" y="778" type="line"/>
      <point x="1158" y="778" type="line"/>
      <point x="1302" y="1084" type="line"/>
      <point x="1137" y="1080" type="line"/>
      <point x="994" y="778" type="line"/>
      <point x="788" y="778" type="line"/>
      <point x="928" y="1076" type="line"/>
      <point x="763" y="1073" type="line"/>
      <point x="625" y="778" type="line"/>
      <point x="443" y="778" type="line"/>
      <point x="377" y="628" type="line"/>
      <point x="555" y="628" type="line"/>
      <point x="417" y="335" type="line"/>
      <point x="246" y="335" type="line"/>
      <point x="180" y="185" type="line"/>
      <point x="346" y="185" type="line"/>
      <point x="226" y="-70" type="line"/>
      <point x="390" y="-70" type="line"/>
      <point x="510" y="185" type="line"/>
      <point x="717" y="185" type="line"/>
      <point x="596" y="-71" type="line"/>
    </contour>
  </outline>
</glyph>
<glyph name="parenleft" format="1">
  <advance width="701"/>
  <unicode hex="0028"/>
  <outline>
    <contour>
      <point x="487" y="-269" type="line"/>
      <point x="455" y="-153"/>
      <point x="359" y="89"/>
      <point x="493" y="500" type="curve" smooth="yes"/>
      <point x="632" y="927"/>
      <point x="899" y="1157"/>
      <point x="992" y="1264" type="curve"/>
      <point x="834" y="1289" type="line"/>
      <point x="550" y="1019"/>
      <point x="365" y="752"/>
      <point x="278" y="485" type="curve" smooth="yes"/>
      <point x="193" y="224"/>
      <point x="203" y="-36"/>
      <point x="308" y="-295" type="curve"/>
    </contour>
  </outline>
</glyph>
<glyph name="parenright" format="1">
  <advance width="701"/>
  <unicode hex="0029"/>
  <outline>
    <contour>
      <point x="476" y="-36"/>
      <point x="654" y="224"/>
      <point x="739" y="485" type="curve" smooth="yes"/>
      <point x="826" y="752"/>
      <point x="815" y="1019"/>
      <point x="705" y="1289" type="curve"/>
      <point x="531" y="1264" type="line"/>
      <point x="534" y="1157"/>
      <point x="673" y="927"/>
      <point x="534" y="500" type="curve" smooth="yes"/>
      <point x="400" y="89"/>
      <point x="128" y="-153"/>
      <point x="40" y="-269" type="curve"/>
      <point x="203" y="-295" type="line"/>
    </contour>
  </outline>
</glyph>
<glyph name="asterisk" format="1">
  <advance width="890"/>
  <unicode hex="002A"/>
  <outline>
    <contour>
      <point x="592" y="168" type="line"/>
      <point x="626" y="293" type="line"/>
      <point x="680" y="202" type="line"/>
      <point x="843" y="321" type="line"/>
      <point x="843" y="320" type="line"/>
      <point x="773" y="410" type="line"/>
      <point x="902" y="405" type="line"/>
      <point x="955" y="573" type="line"/>
      <point x="825" y="567" type="line"/>
      <point x="953" y="657" type="line"/>
      <point x="866" y="776" type="line"/>
      <point x="759" y="689" type="line"/>
      <point x="804" y="810" type="line"/>
      <point x="629" y="809" type="line"/>
      <point x="593" y="686" type="line"/>
      <point x="538" y="778" type="line"/>
      <point x="376" y="660" type="line"/>
      <point x="448" y="567" type="line"/>
      <point x="304" y="567" type="line"/>
      <point x="253" y="410" type="line"/>
      <point x="391" y="410" type="line"/>
      <point x="263" y="320" type="line"/>
      <point x="349" y="202" type="line"/>
      <point x="461" y="293" type="line"/>
      <point x="416" y="167" type="line"/>
    </contour>
    <contour>
      <point x="524" y="388"/>
      <point x="495" y="436"/>
      <point x="513" y="491" type="curve" smooth="yes"/>
      <point x="530" y="545"/>
      <point x="591" y="593"/>
      <point x="642" y="593" type="curve" smooth="yes"/>
      <point x="694" y="593"/>
      <point x="724" y="546"/>
      <point x="706" y="491" type="curve" smooth="yes"/>
      <point x="689" y="438"/>
      <point x="625" y="388"/>
      <point x="575" y="388" type="curve" smooth="yes"/>
    </contour>
  </outline>
</glyph>
<glyph name="plus" format="1">
  <advance width="1225"/>
  <unicode hex="002B"/>
  <outline>
    <contour>
      <point x="729" y="29" type="line"/>
      <point x="843" y="404" type="line"/>
      <point x="1236" y="404" type="line"/>
      <point x="1300" y="600" type="line"/>
      <point x="911" y="600" type="line"/>
      <point x="1022" y="951" type="line"/>
      <point x="814" y="950" type="line"/>
      <point x="707" y="600" type="line"/>
      <point x="315" y="600" type="line"/>
      <point x="251" y="404" type="line"/>
      <point x="643" y="404" type="line"/>
      <point x="528" y="27" type="line"/>
    </contour>
  </outline>
</glyph>
<glyph name="comma" format="1">
  <advance width="487"/>
  <unicode hex="002C"/>
  <outline>
    <contour>
      <point x="115" y="-14" type="line"/>
      <point x="224" y="-14" type="line"/>
      <point x="203" y="-54"/>
      <point x="171" y="-89"/>
      <point x="120" y="-126" type="curve"/>
      <point x="165" y="-207" type="line"/>
      <point x="304" y="-116"/>
      <point x="368" y="6"/>
      <point x="448" y="249" type="curve"/>
      <point x="201" y="250" type="line"/>
    </contour>
  </outline>
</glyph>
<glyph name="hyphen" format="1">
  <advance width="792"/>
  <unicode hex="002D"/>
  <outline>
    <contour>
      <point x="804" y="406" type="line"/>
      <point x="858" y="572" type="line"/>
      <point x="306" y="572" type="line"/>
      <point x="252" y="406" type="line"/>
    </contour>
  </outline>
</glyph>
<glyph name="period" format="1">
  <advance width="642"/>
  <unicode hex="002E"/>
  <outline>
    <contour>
      <point x="334" y="-84" type="line"/>
      <point x="573" y="156" type="line"/>
      <point x="385" y="319" type="line"/>
      <point x="145" y="78" type="line"/>
    </contour>
  </outline>
</glyph>
<glyph name="slash" format="1">
  <advance width="1054"/>
  <unicode hex="002F"/>
  <outline>
    <contour>
      <point x="162" y="-367" type="line"/>
      <point x="1364" y="1324" type="line"/>
      <point x="1209" y="1344" type="line"/>
      <point x="8" y="-346" type="line"/>
    </contour>
  </outline>
</glyph>
<glyph name="semicolon" format="1">
  <advance width="565"/>
  <unicode hex="003B"/>
  <outline>
    <contour>
      <point x="284" y="341" type="line"/>
      <point x="327" y="311"/>
      <point x="361" y="266"/>
      <point x="349" y="228" type="curve" smooth="yes"/>
      <point x="339" y="198"/>
      <point x="314" y="160"/>
      <point x="273" y="115" type="curve" smooth="yes"/>
      <point x="175" y="5" type="line"/>
      <point x="279" y="-55" type="line"/>
      <point x="362" y="43" type="line" smooth="yes"/>
      <point x="431" y="126"/>
      <point x="519" y="227"/>
      <point x="550" y="323" type="curve" smooth="yes"/>
      <point x="577" y="405"/>
      <point x="534" y="489"/>
      <point x="469" y="538" type="curve"/>
    </contour>
    <component base="period" xOffset="327" yOffset="837" xScale="0.795" yScale="0.795"/>
  </outline>
</glyph>
<glyph name="less" format="1">
  <advance width="1174"/>
  <unicode hex="003C"/>
  <outline>
    <contour>
      <point x="1094" y="122" type="line"/>
      <point x="482" y="490" type="line"/>
      <point x="1332" y="856" type="line"/>
      <point x="1390" y="1033" type="line"/>
      <point x="304" y="565" type="line"/>
      <point x="255" y="414" type="line"/>
      <point x="1036" y="-55" type="line"/>
    </contour>
  </outline>
</glyph>
<glyph name="equal" format="1">
  <advance width="1226"/>
  <unicode hex="003D"/>
  <outline>
    <contour>
      <point x="1297" y="592" type="line"/>
      <point x="1361" y="788" type="line"/>
      <point x="376" y="788" type="line"/>
      <point x="312" y="592" type="line"/>
    </contour>
    <contour>
      <point x="1167" y="190" type="line"/>
      <point x="1231" y="386" type="line"/>
      <point x="246" y="386" type="line"/>
      <point x="182" y="190" type="line"/>
    </contour>
  </outline>
</glyph>
<glyph name="greater" format="1">
  <advance width="1174"/>
  <unicode hex="003E"/>
  <outline>
    <contour>
      <point x="1189" y="414" type="line"/>
      <point x="1238" y="565" type="line"/>
      <point x="456" y="1033" type="line"/>
      <point x="398" y="856" type="line"/>
      <point x="1010" y="490" type="line"/>
      <point x="160" y="122" type="line"/>
      <point x="102" y="-55" type="line"/>
    </contour>
  </outline>
</glyph>
<glyph name="at" format="1">
  <advance width="1389"/>
  <unicode hex="0040"/>
  <outline>
    <contour>
      <point x="832" y="-105"/>
      <point x="939" y="-84"/>
      <point x="1037" y="-41" type="curve"/>
      <point x="1031" y="84" type="line"/>
      <point x="947" y="48"/>
      <point x="856" y="30"/>
      <point x="757" y="30" type="curve" smooth="yes"/>
      <point x="448" y="30"/>
      <point x="323" y="188"/>
      <point x="413" y="463" type="curve" smooth="yes"/>
      <point x="504" y="745"/>
      <point x="767" y="949"/>
      <point x="1038" y="949" type="curve" smooth="yes"/>
      <point x="1266" y="949"/>
      <point x="1386" y="801"/>
      <point x="1320" y="598" type="curve" smooth="yes"/>
      <point x="1277" y="465"/>
      <point x="1109" y="294"/>
      <point x="1021" y="294" type="curve" smooth="yes"/>
      <point x="1005" y="294"/>
      <point x="1008" y="306"/>
      <point x="1058" y="397" type="curve" smooth="yes"/>
      <point x="1286" y="818" type="line"/>
      <point x="1136" y="844" type="line"/>
      <point x="1096" y="769" type="line"/>
      <point x="1066" y="815"/>
      <point x="1016" y="841"/>
      <point x="954" y="841" type="curve" smooth="yes"/>
      <point x="777" y="841"/>
      <point x="562" y="651"/>
      <point x="492" y="437" type="curve" smooth="yes"/>
      <point x="436" y="265"/>
      <point x="496" y="148"/>
      <point x="641" y="148" type="curve" smooth="yes"/>
      <point x="701" y="148"/>
      <point x="772" y="174"/>
      <point x="841" y="221" type="curve"/>
      <point x="849" y="178"/>
      <point x="885" y="147"/>
      <point x="933" y="147" type="curve" smooth="yes"/>
      <point x="1131" y="147"/>
      <point x="1388" y="365"/>
      <point x="1463" y="597" type="curve" smooth="yes"/>
      <point x="1555" y="880"/>
      <point x="1397" y="1083"/>
      <point x="1087" y="1083" type="curve" smooth="yes"/>
      <point x="727" y="1083"/>
      <point x="387" y="822"/>
      <point x="267" y="453" type="curve" smooth="yes"/>
      <point x="155" y="107"/>
      <point x="325" y="-105"/>
      <point x="714" y="-105" type="curve" smooth="yes"/>
    </contour>
    <contour>
      <point x="684" y="563"/>
      <point x="825" y="706"/>
      <point x="918" y="706" type="curve" smooth="yes"/>
      <point x="986" y="706"/>
      <point x="1019" y="642"/>
      <point x="992" y="560" type="curve" smooth="yes"/>
      <point x="941" y="403"/>
      <point x="814" y="280"/>
      <point x="706" y="280" type="curve" smooth="yes"/>
      <point x="637" y="280"/>
      <point x="610" y="336"/>
      <point x="639" y="423" type="curve" smooth="yes"/>
    </contour>
  </outline>
</glyph>
<glyph name="bracketleft" format="1">
  <advance width="587"/>
  <unicode hex="005B"/>
  <outline>
    <contour>
      <point x="293" y="-535" type="line"/>
      <point x="337" y="-401" type="line"/>
      <point x="166" y="-401" type="line"/>
      <point x="744" y="1379" type="line"/>
      <point x="915" y="1379" type="line"/>
      <point x="959" y="1514" type="line"/>
      <point x="656" y="1514" type="line" smooth="yes"/>
      <point x="633" y="1514"/>
      <point x="606" y="1495"/>
      <point x="599" y="1474" type="curve" smooth="yes"/>
      <point x="-41" y="-495" type="line" smooth="yes"/>
      <point x="-48" y="-516"/>
      <point x="-33" y="-535"/>
      <point x="-10" y="-535" type="curve" smooth="yes"/>
    </contour>
  </outline>
</glyph>
<glyph name="backslash" format="1">
  <advance width="1055"/>
  <unicode hex="005C"/>
  <outline>
    <contour>
      <point x="823" y="-346" type="line"/>
      <point x="719" y="1344" type="line"/>
      <point x="551" y="1325" type="line"/>
      <point x="654" y="-367" type="line"/>
    </contour>
  </outline>
</glyph>
<glyph name="bracketright" format="1">
  <advance width="588"/>
  <unicode hex="005D"/>
  <outline>
    <contour>
      <point x="249" y="-535" type="line" smooth="yes"/>
      <point x="274" y="-535"/>
      <point x="300" y="-517"/>
      <point x="307" y="-495" type="curve" smooth="yes"/>
      <point x="947" y="1474" type="line" smooth="yes"/>
      <point x="954" y="1496"/>
      <point x="939" y="1514"/>
      <point x="915" y="1514" type="curve" smooth="yes"/>
      <point x="612" y="1514" type="line"/>
      <point x="568" y="1379" type="line"/>
      <point x="739" y="1379" type="line"/>
      <point x="161" y="-401" type="line"/>
      <point x="-10" y="-401" type="line"/>
      <point x="-54" y="-535" type="line"/>
    </contour>
  </outline>
</glyph>
<glyph name="asciicircum" format="1">
  <advance width="1386"/>
  <unicode hex="005E"/>
  <outline>
    <contour>
      <point x="512" y="592" type="line"/>
      <point x="1169" y="1469" type="line"/>
      <point x="1258" y="592" type="line"/>
      <point x="1458" y="592" type="line"/>
      <point x="1352" y="1710" type="line"/>
      <point x="1146" y="1710" type="line"/>
      <point x="312" y="592" type="line"/>
    </contour>
  </outline>
</glyph>
<glyph name="underscore" format="1">
  <advance width="1045"/>
  <unicode hex="005F"/>
  <outline>
    <contour>
      <point x="951" y="-289" type="line"/>
      <point x="1001" y="-133" type="line"/>
      <point x="-43" y="-133" type="line"/>
      <point x="-93" y="-289" type="line"/>
    </contour>
  </outline>
</glyph>
<glyph name="braceleft" format="1">
  <advance width="728"/>
  <unicode hex="007B"/>
  <outline>
    <contour>
      <point x="433" y="-537" type="line"/>
      <point x="476" y="-403" type="line"/>
      <point x="312" y="-403" type="line" smooth="yes"/>
      <point x="308" y="-403"/>
      <point x="307" y="-399"/>
      <point x="309" y="-393" type="curve" smooth="yes"/>
      <point x="509" y="225" type="line" smooth="yes"/>
      <point x="550" y="349"/>
      <point x="488" y="427"/>
      <point x="451" y="489" type="curve"/>
      <point x="528" y="551"/>
      <point x="640" y="628"/>
      <point x="681" y="753" type="curve" smooth="yes"/>
      <point x="881" y="1370" type="line" smooth="yes"/>
      <point x="883" y="1376"/>
      <point x="888" y="1380"/>
      <point x="892" y="1380" type="curve" smooth="yes"/>
      <point x="1056" y="1380" type="line"/>
      <point x="1099" y="1514" type="line"/>
      <point x="913" y="1514" type="line" smooth="yes"/>
      <point x="811" y="1514"/>
      <point x="735" y="1458"/>
      <point x="703" y="1358" type="curve" smooth="yes"/>
      <point x="516" y="783" type="line" smooth="yes"/>
      <point x="439" y="546"/>
      <point x="300" y="552"/>
      <point x="279" y="489" type="curve" smooth="yes"/>
      <point x="259" y="426"/>
      <point x="399" y="424"/>
      <point x="317" y="173" type="curve" smooth="yes"/>
      <point x="137" y="-381" type="line" smooth="yes"/>
      <point x="105" y="-480"/>
      <point x="145" y="-537"/>
      <point x="247" y="-537" type="curve" smooth="yes"/>
    </contour>
  </outline>
</glyph>
<glyph name="braceright" format="1">
  <advance width="727"/>
  <unicode hex="007D"/>
  <outline>
    <contour>
      <point x="234" y="-537"/>
      <point x="310" y="-480"/>
      <point x="342" y="-381" type="curve" smooth="yes"/>
      <point x="522" y="173" type="line" smooth="yes"/>
      <point x="604" y="424"/>
      <point x="746" y="426"/>
      <point x="766" y="489" type="curve" smooth="yes"/>
      <point x="787" y="552"/>
      <point x="644" y="546"/>
      <point x="721" y="783" type="curve" smooth="yes"/>
      <point x="908" y="1358" type="line" smooth="yes"/>
      <point x="940" y="1458"/>
      <point x="900" y="1514"/>
      <point x="798" y="1514" type="curve" smooth="yes"/>
      <point x="612" y="1514" type="line"/>
      <point x="569" y="1380" type="line"/>
      <point x="733" y="1380" type="line" smooth="yes"/>
      <point x="737" y="1380"/>
      <point x="738" y="1376"/>
      <point x="736" y="1370" type="curve" smooth="yes"/>
      <point x="536" y="753" type="line" smooth="yes"/>
      <point x="495" y="628"/>
      <point x="557" y="551"/>
      <point x="594" y="489" type="curve"/>
      <point x="517" y="427"/>
      <point x="405" y="349"/>
      <point x="364" y="225" type="curve" smooth="yes"/>
      <point x="164" y="-393" type="line" smooth="yes"/>
      <point x="162" y="-399"/>
      <point x="157" y="-403"/>
      <point x="153" y="-403" type="curve" smooth="yes"/>
      <point x="-11" y="-403" type="line"/>
      <point x="-54" y="-537" type="line"/>
      <point x="132" y="-537" type="line" smooth="yes"/>
    </contour>
  </outline>
</glyph>
<glyph name="asciitilde" format="1">
  <advance width="1325"/>
  <unicode hex="007E"/>
  <outline>
    <contour>
      <point x="442" y="437"/>
      <point x="542" y="470"/>
      <point x="628" y="470" type="curve" smooth="yes"/>
      <point x="803" y="470"/>
      <point x="825" y="335"/>
      <point x="1036" y="335" type="curve" smooth="yes"/>
      <point x="1135" y="335"/>
      <point x="1242" y="370"/>
      <point x="1347" y="438" type="curve"/>
      <point x="1299" y="572" type="line"/>
      <point x="1214" y="528"/>
      <point x="1143" y="507"/>
      <point x="1079" y="507" type="curve" smooth="yes"/>
      <point x="897" y="507"/>
      <point x="885" y="635"/>
      <point x="670" y="635" type="curve" smooth="yes"/>
      <point x="543" y="635"/>
      <point x="399" y="587"/>
      <point x="284" y="506" type="curve"/>
      <point x="321" y="368" type="line"/>
    </contour>
  </outline>
</glyph>
<glyph name="guillemetleft" format="1">
  <advance width="962"/>
  <unicode hex="00AB"/>
  <outline>
    <contour>
      <point x="149" y="89"/>
      <point x="242" y="-53"/>
      <point x="395" y="-123" type="curve"/>
      <point x="535" y="9" type="line"/>
      <point x="568" y="-40"/>
      <point x="668" y="-114"/>
      <point x="709" y="-124" type="curve"/>
      <point x="878" y="111" type="line"/>
      <point x="749" y="169"/>
      <point x="708" y="231"/>
      <point x="738" y="323" type="curve" smooth="yes"/>
      <point x="776" y="442"/>
      <point x="943" y="616"/>
      <point x="1027" y="716" type="curve"/>
      <point x="905" y="786" type="line"/>
      <point x="743" y="607"/>
      <point x="569" y="416"/>
      <point x="514" y="247" type="curve" smooth="yes"/>
      <point x="503" y="212"/>
      <point x="497" y="180"/>
      <point x="495" y="147" type="curve"/>
      <point x="422" y="195"/>
      <point x="400" y="248"/>
      <point x="424" y="322" type="curve" smooth="yes"/>
      <point x="466" y="450"/>
      <point x="654" y="642"/>
      <point x="731" y="736" type="curve"/>
      <point x="606" y="803" type="line"/>
      <point x="440" y="619"/>
      <point x="257" y="422"/>
      <point x="200" y="247" type="curve" smooth="yes"/>
    </contour>
  </outline>
</glyph>
<glyph name="degree" format="1">
  <advance width="848"/>
  <unicode hex="00B0"/>
  <outline>
    <contour>
      <point x="922" y="1013"/>
      <point x="1101" y="1147"/>
      <point x="1155" y="1313" type="curve" smooth="yes"/>
      <point x="1209" y="1479"/>
      <point x="1117" y="1613"/>
      <point x="948" y="1613" type="curve" smooth="yes"/>
      <point x="779" y="1613"/>
      <point x="601" y="1480"/>
      <point x="547" y="1313" type="curve" smooth="yes"/>
      <point x="493" y="1147"/>
      <point x="585" y="1013"/>
      <point x="754" y="1013" type="curve" smooth="yes"/>
    </contour>
    <contour>
      <point x="704" y="1143"/>
      <point x="654" y="1220"/>
      <point x="684" y="1313" type="curve" smooth="yes"/>
      <point x="715" y="1407"/>
      <point x="814" y="1483"/>
      <point x="906" y="1483" type="curve" smooth="yes"/>
      <point x="998" y="1483"/>
      <point x="1048" y="1407"/>
      <point x="1017" y="1313" type="curve" smooth="yes"/>
      <point x="986" y="1219"/>
      <point x="888" y="1143"/>
      <point x="796" y="1143" type="curve" smooth="yes"/>
    </contour>
  </outline>
</glyph>
<glyph name="guillemetright" format="1">
  <advance width="962"/>
  <unicode hex="00BB"/>
  <outline>
    <contour>
      <point x="979" y="422"/>
      <point x="924" y="619"/>
      <point x="878" y="803" type="curve"/>
      <point x="709" y="736" type="line"/>
      <point x="724" y="642"/>
      <point x="788" y="450"/>
      <point x="746" y="322" type="curve" smooth="yes"/>
      <point x="722" y="248"/>
      <point x="666" y="195"/>
      <point x="561" y="147" type="curve"/>
      <point x="581" y="180"/>
      <point x="597" y="212"/>
      <point x="608" y="247" type="curve" smooth="yes"/>
      <point x="663" y="416"/>
      <point x="613" y="607"/>
      <point x="567" y="786" type="curve"/>
      <point x="399" y="716" type="line"/>
      <point x="419" y="616"/>
      <point x="472" y="442"/>
      <point x="434" y="323" type="curve" smooth="yes"/>
      <point x="404" y="231"/>
      <point x="323" y="169"/>
      <point x="156" y="111" type="curve"/>
      <point x="171" y="-124" type="line"/>
      <point x="220" y="-114"/>
      <point x="368" y="-40"/>
      <point x="433" y="9" type="curve"/>
      <point x="487" y="-123" type="line"/>
      <point x="684" y="-53"/>
      <point x="871" y="89"/>
      <point x="922" y="247" type="curve" smooth="yes"/>
    </contour>
  </outline>
</glyph>
<glyph name="multiply" format="1">
  <advance width="1280"/>
  <unicode hex="00D7"/>
  <outline>
    <contour>
      <point x="763" y="371" type="line"/>
      <point x="1001" y="-55" type="line"/>
      <point x="1178" y="54" type="line"/>
      <point x="922" y="502" type="line"/>
      <point x="1429" y="919" type="line"/>
      <point x="1334" y="1032" type="line"/>
      <point x="847" y="634" type="line"/>
      <point x="621" y="1032" type="line"/>
      <point x="452" y="919" type="line"/>
      <point x="687" y="502" type="line"/>
      <point x="137" y="51" type="line"/>
      <point x="247" y="-53" type="line"/>
    </contour>
  </outline>
</glyph>
<glyph name="divide" format="1">
  <advance width="1225"/>
  <unicode hex="00F7"/>
  <outline>
    <contour>
      <point x="1222" y="360" type="line"/>
      <point x="1286" y="556" type="line"/>
      <point x="301" y="556" type="line"/>
      <point x="237" y="360" type="line"/>
    </contour>
    <contour>
      <point x="664" y="-81"/>
      <point x="737" y="-28"/>
      <point x="758" y="36" type="curve" smooth="yes"/>
      <point x="779" y="102"/>
      <point x="742" y="156"/>
      <point x="674" y="156" type="curve" smooth="yes"/>
      <point x="607" y="156"/>
      <point x="534" y="102"/>
      <point x="513" y="36" type="curve" smooth="yes"/>
      <point x="493" y="-27"/>
      <point x="531" y="-81"/>
      <point x="597" y="-81" type="curve" smooth="yes"/>
    </contour>
    <contour>
      <point x="958" y="821"/>
      <point x="1031" y="875"/>
      <point x="1052" y="941" type="curve" smooth="yes"/>
      <point x="1073" y="1005"/>
      <point x="1035" y="1058"/>
      <point x="967" y="1058" type="curve" smooth="yes"/>
      <point x="900" y="1058"/>
      <point x="828" y="1005"/>
      <point x="807" y="941" type="curve" smooth="yes"/>
      <point x="786" y="875"/>
      <point x="823" y="821"/>
      <point x="890" y="821" type="curve" smooth="yes"/>
    </contour>
  </outline>
</glyph>
<glyph name="caron" format="1">
  <advance width="683"/>
  <unicode hex="02C7"/>
  <outline>
    <contour>
      <point x="914" y="1425" type="line"/>
      <point x="776" y="1229" type="line"/>
      <point x="727" y="1436" type="line"/>
      <point x="563" y="1364" type="line"/>
      <point x="620" y="974" type="line"/>
      <point x="761" y="1011" type="line"/>
      <point x="1005" y="1360" type="line"/>
    </contour>
  </outline>
</glyph>
<glyph name="lowringmod" format="1">
  <advance width="799"/>
  <unicode hex="02F3"/>
  <outline>
    <contour>
      <point x="399" y="-476"/>
      <point x="564" y="-353"/>
      <point x="614" y="-199" type="curve" smooth="yes"/>
      <point x="664" y="-47"/>
      <point x="578" y="76"/>
      <point x="424" y="76" type="curve" smooth="yes"/>
      <point x="271" y="76"/>
      <point x="104" y="-48"/>
      <point x="55" y="-199" type="curve" smooth="yes"/>
      <point x="6" y="-352"/>
      <point x="89" y="-476"/>
      <point x="244" y="-476" type="curve" smooth="yes"/>
    </contour>
    <contour>
      <point x="203" y="-352"/>
      <point x="159" y="-284"/>
      <point x="187" y="-198" type="curve" smooth="yes"/>
      <point x="214" y="-114"/>
      <point x="302" y="-46"/>
      <point x="384" y="-46" type="curve" smooth="yes"/>
      <point x="466" y="-46"/>
      <point x="511" y="-115"/>
      <point x="484" y="-198" type="curve" smooth="yes"/>
      <point x="456" y="-283"/>
      <point x="368" y="-352"/>
      <point x="285" y="-352" type="curve" smooth="yes"/>
    </contour>
  </outline>
</glyph>
<glyph name="comma-ar" format="1">
  <advance width="524"/>
  <unicode hex="060C"/>
  <outline>
    <contour>
      <point x="434" y="175" type="line"/>
      <point x="386" y="196"/>
      <point x="371" y="220"/>
      <point x="384" y="259" type="curve" smooth="yes"/>
      <point x="399" y="305"/>
      <point x="427" y="338"/>
      <point x="567" y="502" type="curve"/>
      <point x="455" y="555" type="line"/>
      <point x="263" y="335"/>
      <point x="207" y="264"/>
      <point x="173" y="162" type="curve" smooth="yes"/>
      <point x="143" y="69"/>
      <point x="169" y="1"/>
      <point x="251" y="-37" type="curve"/>
    </contour>
  </outline>
</glyph>
<glyph name="tahabove-ar" format="1">
  <advance width="0"/>
  <unicode hex="0615"/>
  <outline>
    <contour>
      <point x="624" y="927"/>
      <point x="550" y="914"/>
      <point x="469" y="911" type="curve"/>
      <point x="559" y="978"/>
      <point x="592" y="995"/>
      <point x="627" y="995" type="curve" smooth="yes"/>
      <point x="658" y="995"/>
      <point x="681" y="979"/>
      <point x="690" y="951" type="curve"/>
    </contour>
    <contour>
      <point x="276" y="794" type="line"/>
      <point x="393" y="789" type="line"/>
      <point x="602" y="789"/>
      <point x="767" y="854"/>
      <point x="800" y="958" type="curve" smooth="yes"/>
      <point x="827" y="1040"/>
      <point x="775" y="1117"/>
      <point x="690" y="1117" type="curve" smooth="yes"/>
      <point x="649" y="1118"/>
      <point x="598" y="1100"/>
      <point x="540" y="1064" type="curve"/>
      <point x="593" y="1242" type="line"/>
      <point x="458" y="1213" type="line"/>
      <point x="370" y="921" type="line"/>
      <point x="300" y="924" type="line"/>
    </contour>
    <contour>
      <point x="723" y="1474" type="move" name="top"/>
    </contour>
    <contour>
      <point x="500" y="789" type="move" name="_top"/>
    </contour>
  </outline>
</glyph>
<glyph name="alefLamYehabove-ar" format="1">
  <advance width="0"/>
  <unicode hex="0616"/>
  <outline>
    <contour>
      <point x="693" y="1159" type="line"/>
      <point x="583" y="733" type="line"/>
      <point x="471" y="707"/>
      <point x="353" y="678"/>
      <point x="257" y="598" type="curve" smooth="yes"/>
      <point x="208" y="557"/>
      <point x="161" y="497"/>
      <point x="148" y="457" type="curve" smooth="yes"/>
      <point x="118" y="363"/>
      <point x="224" y="355"/>
      <point x="347" y="355" type="curve" smooth="yes"/>
      <point x="438" y="355"/>
      <point x="689" y="367"/>
      <point x="939" y="382" type="curve"/>
      <point x="993" y="494" type="line"/>
      <point x="994" y="494" type="line"/>
      <point x="819" y="481"/>
      <point x="596" y="469"/>
      <point x="432" y="469" type="curve" smooth="yes"/>
      <point x="355" y="469"/>
      <point x="279" y="474"/>
      <point x="234" y="484" type="curve"/>
      <point x="302" y="574"/>
      <point x="451" y="601"/>
      <point x="567" y="626" type="curve"/>
      <point x="568" y="626" type="line"/>
      <point x="668" y="653"/>
      <point x="703" y="836"/>
      <point x="798" y="1131" type="curve"/>
      <point x="809" y="1099"/>
      <point x="811" y="1066"/>
      <point x="793" y="1010" type="curve"/>
      <point x="650" y="562" type="line"/>
      <point x="766" y="606" type="line"/>
      <point x="905" y="1029" type="line"/>
      <point x="940" y="1137"/>
      <point x="923" y="1188"/>
      <point x="895" y="1254" type="curve"/>
    </contour>
    <contour>
      <point x="913" y="1502" type="move" name="top"/>
    </contour>
    <contour>
      <point x="532" y="355" type="move" name="_top"/>
    </contour>
  </outline>
</glyph>
<glyph name="question-ar" format="1">
  <advance width="852"/>
  <unicode hex="061F"/>
  <outline>
    <contour>
      <point x="727" y="365" type="line"/>
      <point x="766" y="476" type="line" smooth="yes"/>
      <point x="850" y="714"/>
      <point x="763" y="721"/>
      <point x="569" y="956" type="curve"/>
      <point x="701" y="1110"/>
      <point x="846" y="1138"/>
      <point x="1002" y="1052" type="curve"/>
      <point x="1101" y="1230" type="line"/>
      <point x="1054" y="1278"/>
      <point x="984" y="1305"/>
      <point x="905" y="1305" type="curve" smooth="yes"/>
      <point x="700" y="1305"/>
      <point x="491" y="1142"/>
      <point x="420" y="924" type="curve" smooth="yes"/>
      <point x="366" y="757"/>
      <point x="471" y="711"/>
      <point x="549" y="604" type="curve" smooth="yes"/>
      <point x="598" y="537"/>
      <point x="618" y="514"/>
      <point x="588" y="428" type="curve" smooth="yes"/>
      <point x="555" y="335" type="line"/>
    </contour>
    <component base="period" xOffset="285" yOffset="-70" xScale="0.876" yScale="0.876"/>
  </outline>
</glyph>
<glyph name="hamza-ar" format="1">
  <advance width="1014"/>
  <unicode hex="0621"/>
  <outline>
    <contour>
      <point x="609" y="311" type="line"/>
      <point x="492" y="465" type="line"/>
      <point x="624" y="542"/>
      <point x="716" y="572"/>
      <point x="816" y="572" type="curve" smooth="yes"/>
      <point x="841" y="572" type="line"/>
      <point x="875" y="602" type="line"/>
      <point x="894" y="764" type="line"/>
      <point x="865" y="772"/>
      <point x="835" y="775"/>
      <point x="801" y="775" type="curve" smooth="yes"/>
      <point x="594" y="775"/>
      <point x="377" y="628"/>
      <point x="318" y="445" type="curve" smooth="yes"/>
      <point x="293" y="368"/>
      <point x="322" y="273"/>
      <point x="392" y="194" type="curve"/>
      <point x="280" y="138" type="line"/>
      <point x="241" y="-62" type="line"/>
      <point x="973" y="288" type="line"/>
      <point x="1013" y="513" type="line"/>
    </contour>
    <contour>
      <point x="843" y="960" type="move" name="top"/>
    </contour>
    <contour>
      <point x="524" y="-180" type="move" name="bottom"/>
    </contour>
  </outline>
</glyph>
<glyph name="alef-ar" format="1">
  <advance width="592"/>
  <unicode hex="0627"/>
  <outline>
    <contour>
      <point x="457" y="0" type="line"/>
      <point x="937" y="1501" type="line"/>
      <point x="634" y="1420" type="line"/>
      <point x="219" y="-35" type="line"/>
    </contour>
    <contour>
      <point x="898" y="1716" type="move" name="top"/>
    </contour>
    <contour>
      <point x="263" y="-249" type="move" name="bottom"/>
    </contour>
  </outline>
</glyph>
<glyph name="hah-ar" format="1">
  <advance width="1453"/>
  <unicode hex="062D"/>
  <outline>
    <contour>
      <point x="1166" y="-381" type="line"/>
      <point x="1098" y="-390"/>
      <point x="924" y="-431"/>
      <point x="723" y="-431" type="curve" smooth="yes"/>
      <point x="421" y="-431"/>
      <point x="287" y="-324"/>
      <point x="348" y="-137" type="curve" smooth="yes"/>
      <point x="461" y="212"/>
      <point x="892" y="462"/>
      <point x="1398" y="467" type="curve"/>
      <point x="1565" y="759" type="line"/>
      <point x="1416" y="763" type="line" smooth="yes"/>
      <point x="1098" y="772"/>
      <point x="991" y="915"/>
      <point x="793" y="915" type="curve" smooth="yes"/>
      <point x="716" y="915"/>
      <point x="580" y="845"/>
      <point x="449" y="738" type="curve"/>
      <point x="500" y="538" type="line"/>
      <point x="615" y="615"/>
      <point x="653" y="644"/>
      <point x="700" y="644" type="curve" smooth="yes"/>
      <point x="745" y="644"/>
      <point x="802" y="642"/>
      <point x="921" y="596" type="curve"/>
      <point x="520" y="471"/>
      <point x="229" y="173"/>
      <point x="123" y="-153" type="curve" smooth="yes"/>
      <point x="2" y="-526"/>
      <point x="142" y="-713"/>
      <point x="542" y="-713" type="curve" smooth="yes"/>
      <point x="664" y="-713"/>
      <point x="902" y="-687"/>
      <point x="1008" y="-653" type="curve"/>
    </contour>
    <contour>
      <point x="844" y="-40" type="move" name="center"/>
    </contour>
    <contour>
      <point x="471" y="-933" type="move" name="bottom"/>
    </contour>
    <contour>
      <point x="864" y="1128" type="move" name="top"/>
    </contour>
  </outline>
</glyph>
<glyph name="dal-ar" format="1">
  <advance width="1225"/>
  <unicode hex="062F"/>
  <outline>
    <contour>
      <point x="616" y="-38"/>
      <point x="907" y="10"/>
      <point x="1022" y="76" type="curve" smooth="yes"/>
      <point x="1098" y="120"/>
      <point x="1153" y="194"/>
      <point x="1186" y="296" type="curve" smooth="yes"/>
      <point x="1254" y="504"/>
      <point x="1193" y="622"/>
      <point x="1065" y="1046" type="curve"/>
      <point x="815" y="821" type="line"/>
      <point x="932" y="481"/>
      <point x="959" y="354"/>
      <point x="961" y="281" type="curve"/>
      <point x="878" y="252"/>
      <point x="761" y="232"/>
      <point x="588" y="231" type="curve" smooth="yes"/>
      <point x="467" y="230"/>
      <point x="468" y="238"/>
      <point x="510" y="392" type="curve"/>
      <point x="306" y="390" type="line"/>
      <point x="292" y="351"/>
      <point x="273" y="308"/>
      <point x="260" y="267" type="curve" smooth="yes"/>
      <point x="192" y="59"/>
      <point x="262" y="-38"/>
      <point x="478" y="-38" type="curve" smooth="yes"/>
    </contour>
    <contour>
      <point x="1131" y="1254" type="move" name="top"/>
    </contour>
    <contour>
      <point x="440" y="-237" type="move" name="bottom"/>
    </contour>
    <contour>
      <point x="707" y="-194" type="move" name="ring"/>
    </contour>
  </outline>
</glyph>
<glyph name="reh-ar" format="1">
  <advance width="963"/>
  <unicode hex="0631"/>
  <outline>
    <contour>
      <point x="-161" y="-362" type="line"/>
      <point x="-28" y="-413"/>
      <point x="72" y="-435"/>
      <point x="164" y="-435" type="curve" smooth="yes"/>
      <point x="242" y="-435"/>
      <point x="318" y="-418"/>
      <point x="394" y="-383" type="curve" smooth="yes"/>
      <point x="588" y="-293"/>
      <point x="824" y="-13"/>
      <point x="895" y="205" type="curve" smooth="yes"/>
      <point x="943" y="352"/>
      <point x="941" y="552"/>
      <point x="956" y="754" type="curve"/>
      <point x="675" y="607" type="line"/>
      <point x="670" y="153" type="line"/>
      <point x="489" y="-89"/>
      <point x="331" y="-189"/>
      <point x="132" y="-189" type="curve" smooth="yes"/>
      <point x="76" y="-189"/>
      <point x="17" y="-182"/>
      <point x="-49" y="-165" type="curve"/>
    </contour>
    <contour>
      <point x="941" y="949" type="move" name="top"/>
    </contour>
    <contour>
      <point x="104" y="-654" type="move" name="bottom"/>
    </contour>
    <contour>
      <point x="519" y="-459" type="move" name="ring"/>
    </contour>
  </outline>
</glyph>
<glyph name="seen-ar" format="1">
  <advance width="2661"/>
  <unicode hex="0633"/>
  <outline>
    <contour>
      <point x="63" y="-338"/>
      <point x="176" y="-506"/>
      <point x="464" y="-506" type="curve" smooth="yes"/>
      <point x="688" y="-506"/>
      <point x="1089" y="-408"/>
      <point x="1272" y="-235" type="curve" smooth="yes"/>
      <point x="1322" y="-187"/>
      <point x="1355" y="-131"/>
      <point x="1380" y="-55" type="curve" smooth="yes"/>
      <point x="1387" y="-33"/>
      <point x="1393" y="-12"/>
      <point x="1398" y="7" type="curve"/>
      <point x="1433" y="2"/>
      <point x="1474" y="-1"/>
      <point x="1516" y="-1" type="curve" smooth="yes"/>
      <point x="1657" y="-1"/>
      <point x="1797" y="30"/>
      <point x="1883" y="81" type="curve"/>
      <point x="1968" y="26"/>
      <point x="2070" y="-3"/>
      <point x="2181" y="-3" type="curve" smooth="yes"/>
      <point x="2434" y="-3"/>
      <point x="2565" y="98"/>
      <point x="2640" y="351" type="curve" smooth="yes"/>
      <point x="2672" y="458"/>
      <point x="2729" y="744"/>
      <point x="2737" y="906" type="curve"/>
      <point x="2460" y="759" type="line"/>
      <point x="2409" y="276" type="line"/>
      <point x="2362" y="269"/>
      <point x="2323" y="266"/>
      <point x="2287" y="266" type="curve" smooth="yes"/>
      <point x="2214" y="266"/>
      <point x="2151" y="279"/>
      <point x="2090" y="306" type="curve"/>
      <point x="2238" y="639" type="line"/>
      <point x="2033" y="661" type="line"/>
      <point x="1908" y="394" type="line" smooth="yes"/>
      <point x="1866" y="305"/>
      <point x="1799" y="272"/>
      <point x="1645" y="272" type="curve" smooth="yes"/>
      <point x="1494" y="272"/>
      <point x="1460" y="290"/>
      <point x="1473" y="350" type="curve" smooth="yes"/>
      <point x="1539" y="666" type="line"/>
      <point x="1240" y="535" type="line"/>
      <point x="1136" y="-98" type="line"/>
      <point x="1038" y="-134"/>
      <point x="800" y="-212"/>
      <point x="585" y="-212" type="curve" smooth="yes"/>
      <point x="412" y="-212"/>
      <point x="352" y="-139"/>
      <point x="400" y="10" type="curve" smooth="yes"/>
      <point x="418" y="64"/>
      <point x="431" y="83"/>
      <point x="544" y="307" type="curve"/>
      <point x="336" y="329" type="line"/>
      <point x="206" y="74"/>
      <point x="185" y="36"/>
      <point x="156" y="-51" type="curve" smooth="yes"/>
    </contour>
    <contour>
      <point x="942" y="698" type="move" name="top"/>
    </contour>
    <contour>
      <point x="395" y="-725" type="move" name="bottom"/>
    </contour>
  </outline>
</glyph>
<glyph name="sad-ar" format="1">
  <advance width="2712"/>
  <unicode hex="0635"/>
  <outline>
    <contour>
      <point x="56" y="-360"/>
      <point x="169" y="-515"/>
      <point x="462" y="-515" type="curve" smooth="yes"/>
      <point x="688" y="-515"/>
      <point x="1091" y="-409"/>
      <point x="1269" y="-246" type="curve" smooth="yes"/>
      <point x="1321" y="-199"/>
      <point x="1350" y="-151"/>
      <point x="1377" y="-68" type="curve" smooth="yes"/>
      <point x="1388" y="-36"/>
      <point x="1399" y="1"/>
      <point x="1408" y="40" type="curve"/>
      <point x="1499" y="3"/>
      <point x="1634" y="-17"/>
      <point x="1788" y="-17" type="curve" smooth="yes"/>
      <point x="2096" y="-17"/>
      <point x="2403" y="61"/>
      <point x="2559" y="179" type="curve"/>
      <point x="2627" y="235"/>
      <point x="2677" y="307"/>
      <point x="2702" y="384" type="curve" smooth="yes"/>
      <point x="2779" y="622"/>
      <point x="2622" y="844"/>
      <point x="2375" y="845" type="curve" smooth="yes"/>
      <point x="2140" y="846"/>
      <point x="1871" y="703"/>
      <point x="1490" y="378" type="curve"/>
      <point x="1491" y="424"/>
      <point x="1494" y="434"/>
      <point x="1545" y="640" type="curve"/>
      <point x="1256" y="535" type="line"/>
      <point x="1136" y="-108" type="line"/>
      <point x="1034" y="-149"/>
      <point x="841" y="-221"/>
      <point x="585" y="-221" type="curve" smooth="yes"/>
      <point x="407" y="-221"/>
      <point x="349" y="-153"/>
      <point x="397" y="-3" type="curve" smooth="yes"/>
      <point x="413" y="46"/>
      <point x="426" y="65"/>
      <point x="542" y="297" type="curve"/>
      <point x="336" y="320" type="line"/>
      <point x="207" y="65"/>
      <point x="177" y="10"/>
      <point x="148" y="-78" type="curve" smooth="yes"/>
    </contour>
    <contour>
      <point x="1900" y="497"/>
      <point x="2056" y="576"/>
      <point x="2212" y="576" type="curve" smooth="yes"/>
      <point x="2367" y="576"/>
      <point x="2447" y="442"/>
      <point x="2472" y="357" type="curve"/>
      <point x="2319" y="287"/>
      <point x="2132" y="250"/>
      <point x="1937" y="250" type="curve" smooth="yes"/>
      <point x="1831" y="250"/>
      <point x="1729" y="261"/>
      <point x="1641" y="281" type="curve"/>
    </contour>
    <contour>
      <point x="950" y="634" type="move" name="top"/>
    </contour>
    <contour>
      <point x="405" y="-724" type="move" name="bottom"/>
    </contour>
  </outline>
</glyph>
<glyph name="tah-ar" format="1">
  <advance width="1759"/>
  <unicode hex="0637"/>
  <outline>
    <contour>
      <point x="1046" y="557"/>
      <point x="1158" y="618"/>
      <point x="1289" y="618" type="curve" smooth="yes"/>
      <point x="1367" y="618"/>
      <point x="1471" y="527"/>
      <point x="1526" y="416" type="curve"/>
      <point x="1268" y="311"/>
      <point x="977" y="260"/>
      <point x="671" y="271" type="curve"/>
    </contour>
    <contour>
      <point x="214" y="-2" type="line"/>
      <point x="298" y="-11"/>
      <point x="485" y="-21"/>
      <point x="564" y="-21" type="curve" smooth="yes"/>
      <point x="969" y="-21"/>
      <point x="1651" y="82"/>
      <point x="1772" y="456" type="curve" smooth="yes"/>
      <point x="1846" y="682"/>
      <point x="1691" y="902"/>
      <point x="1460" y="904" type="curve" smooth="yes"/>
      <point x="1313" y="905"/>
      <point x="1123" y="825"/>
      <point x="904" y="670" type="curve"/>
      <point x="916" y="701"/>
      <point x="928" y="735"/>
      <point x="941" y="774" type="curve"/>
      <point x="1167" y="1534" type="line"/>
      <point x="857" y="1426" type="line"/>
      <point x="636" y="592" type="line"/>
      <point x="589" y="431"/>
      <point x="551" y="381"/>
      <point x="389" y="259" type="curve"/>
      <point x="344" y="262"/>
      <point x="338" y="263"/>
      <point x="262" y="273" type="curve"/>
    </contour>
    <contour>
      <point x="1522" y="1119" type="move" name="top"/>
    </contour>
    <contour>
      <point x="666" y="-243" type="move" name="bottom"/>
    </contour>
  </outline>
</glyph>
<glyph name="ain-ar" format="1">
  <advance width="1302"/>
  <unicode hex="0639"/>
  <outline>
    <contour>
      <point x="1145" y="-375" type="line"/>
      <point x="778" y="-432"/>
      <point x="288" y="-486"/>
      <point x="407" y="-118" type="curve" smooth="yes"/>
      <point x="494" y="148"/>
      <point x="828" y="375"/>
      <point x="1279" y="478" type="curve"/>
      <point x="1376" y="766" type="line"/>
      <point x="1305" y="759"/>
      <point x="939" y="616"/>
      <point x="804" y="561" type="curve"/>
      <point x="763" y="587"/>
      <point x="682" y="795"/>
      <point x="687" y="860" type="curve"/>
      <point x="783" y="927"/>
      <point x="872" y="958"/>
      <point x="972" y="958" type="curve" smooth="yes"/>
      <point x="1042" y="958"/>
      <point x="1111" y="944"/>
      <point x="1190" y="914" type="curve"/>
      <point x="1267" y="1172" type="line"/>
      <point x="1200" y="1209"/>
      <point x="1120" y="1229"/>
      <point x="1033" y="1229" type="curve" smooth="yes"/>
      <point x="763" y="1229"/>
      <point x="501" y="1045"/>
      <point x="435" y="806" type="curve" smooth="yes"/>
      <point x="392" y="654"/>
      <point x="422" y="521"/>
      <point x="531" y="370" type="curve"/>
      <point x="361" y="216"/>
      <point x="225" y="18"/>
      <point x="166" y="-162" type="curve" smooth="yes"/>
      <point x="50" y="-519"/>
      <point x="184" y="-716"/>
      <point x="543" y="-716" type="curve" smooth="yes"/>
      <point x="652" y="-716"/>
      <point x="898" y="-682"/>
      <point x="963" y="-656" type="curve"/>
    </contour>
    <contour>
      <point x="1099" y="1440" type="move" name="top"/>
    </contour>
    <contour>
      <point x="477" y="-926" type="move" name="bottom"/>
    </contour>
  </outline>
</glyph>
<glyph name="kashida-ar" format="1">
  <advance width="449"/>
  <unicode hex="0640"/>
  <outline>
    <contour>
      <point x="59" y="273" type="line" smooth="yes"/>
      <point x="-13" y="273"/>
      <point x="-90" y="212"/>
      <point x="-115" y="137" type="curve" smooth="yes"/>
      <point x="-140" y="61"/>
      <point x="-101" y="0"/>
      <point x="-29" y="0" type="curve" smooth="yes"/>
      <point x="480" y="0" type="line"/>
      <point x="535" y="39"/>
      <point x="573" y="86"/>
      <point x="589" y="137" type="curve" smooth="yes"/>
      <point x="606" y="188"/>
      <point x="598" y="233"/>
      <point x="568" y="273" type="curve"/>
    </contour>
  </outline>
</glyph>
<glyph name="lam-ar" format="1">
  <advance width="1504"/>
  <unicode hex="0644"/>
  <outline>
    <contour>
      <point x="1501" y="1365" type="line"/>
      <point x="1092" y="-141" type="line"/>
      <point x="1002" y="-169"/>
      <point x="781" y="-232"/>
      <point x="566" y="-232" type="curve" smooth="yes"/>
      <point x="408" y="-232"/>
      <point x="344" y="-163"/>
      <point x="383" y="-41" type="curve" smooth="yes"/>
      <point x="396" y="-3"/>
      <point x="413" y="27"/>
      <point x="585" y="334" type="curve"/>
      <point x="392" y="377" type="line"/>
      <point x="201" y="45"/>
      <point x="170" y="-11"/>
      <point x="140" y="-103" type="curve" smooth="yes"/>
      <point x="55" y="-365"/>
      <point x="164" y="-519"/>
      <point x="435" y="-519" type="curve" smooth="yes"/>
      <point x="705" y="-519"/>
      <point x="1225" y="-421"/>
      <point x="1333" y="-110" type="curve"/>
      <point x="1817" y="1500" type="line"/>
    </contour>
    <contour>
      <point x="913" y="603" type="move" name="top"/>
    </contour>
    <contour>
      <point x="419" y="-728" type="move" name="bottom"/>
    </contour>
  </outline>
</glyph>
<glyph name="meem-ar" format="1">
  <advance width="1302"/>
  <unicode hex="0645"/>
  <outline>
    <contour>
      <point x="1" y="-624" type="line"/>
      <point x="295" y="-523" type="line"/>
      <point x="419" y="67" type="line"/>
      <point x="557" y="106"/>
      <point x="718" y="126"/>
      <point x="890" y="126" type="curve" smooth="yes"/>
      <point x="958" y="126"/>
      <point x="1026" y="122"/>
      <point x="1097" y="115" type="curve"/>
      <point x="1312" y="447" type="line"/>
      <point x="1335" y="703"/>
      <point x="1175" y="932"/>
      <point x="974" y="932" type="curve" smooth="yes"/>
      <point x="710" y="932"/>
      <point x="542" y="646"/>
      <point x="484" y="470" type="curve" smooth="yes"/>
      <point x="428" y="302" type="line"/>
      <point x="300" y="231"/>
      <point x="210" y="113"/>
      <point x="156" y="-52" type="curve" smooth="yes"/>
      <point x="155" y="-54" type="line"/>
    </contour>
    <contour>
      <point x="713" y="544"/>
      <point x="818" y="642"/>
      <point x="860" y="642" type="curve" smooth="yes"/>
      <point x="951" y="642"/>
      <point x="1045" y="528"/>
      <point x="1066" y="394" type="curve"/>
      <point x="912" y="402"/>
      <point x="840" y="398"/>
      <point x="677" y="373" type="curve"/>
      <point x="675" y="472" type="line"/>
    </contour>
    <contour>
      <point x="1044" y="1142" type="move" name="top"/>
    </contour>
    <contour>
      <point x="82" y="-813" type="move" name="bottom"/>
    </contour>
  </outline>
</glyph>
<glyph name="heh-ar" format="1">
  <advance width="1116"/>
  <unicode hex="0647"/>
  <outline>
    <contour>
      <point x="208" y="106"/>
      <point x="288" y="-54"/>
      <point x="473" y="-54" type="curve" smooth="yes"/>
      <point x="710" y="-54"/>
      <point x="1051" y="216"/>
      <point x="1132" y="465" type="curve" smooth="yes"/>
      <point x="1179" y="610"/>
      <point x="1085" y="752"/>
      <point x="775" y="1013" type="curve"/>
      <point x="487" y="714"/>
      <point x="338" y="507"/>
      <point x="279" y="327" type="curve" smooth="yes"/>
    </contour>
    <contour>
      <point x="534" y="482"/>
      <point x="588" y="563"/>
      <point x="676" y="655" type="curve"/>
      <point x="907" y="430" type="line"/>
      <point x="798" y="301"/>
      <point x="696" y="239"/>
      <point x="594" y="239" type="curve" smooth="yes"/>
      <point x="513" y="239"/>
      <point x="477" y="308"/>
      <point x="509" y="405" type="curve" smooth="yes"/>
    </contour>
    <contour>
      <point x="827" y="1191" type="move" name="top"/>
    </contour>
    <contour>
      <point x="416" y="-254" type="move" name="bottom"/>
    </contour>
  </outline>
</glyph>
<glyph name="waw-ar" format="1">
  <advance width="1117"/>
  <unicode hex="0648"/>
  <outline>
    <contour>
      <point x="582" y="-478"/>
      <point x="930" y="-159"/>
      <point x="1072" y="277" type="curve" smooth="yes"/>
      <point x="1191" y="644"/>
      <point x="1114" y="924"/>
      <point x="891" y="924" type="curve" smooth="yes"/>
      <point x="633" y="924"/>
      <point x="360" y="577"/>
      <point x="283" y="339" type="curve" smooth="yes"/>
      <point x="208" y="108"/>
      <point x="287" y="-16"/>
      <point x="512" y="-16" type="curve" smooth="yes"/>
      <point x="564" y="-16"/>
      <point x="686" y="-9"/>
      <point x="754" y="4" type="curve"/>
      <point x="608" y="-144"/>
      <point x="398" y="-209"/>
      <point x="208" y="-209" type="curve" smooth="yes"/>
      <point x="142" y="-209"/>
      <point x="69" y="-199"/>
      <point x="-15" y="-178" type="curve"/>
      <point x="-143" y="-392" type="line"/>
      <point x="7" y="-450"/>
      <point x="135" y="-478"/>
      <point x="247" y="-478" type="curve" smooth="yes"/>
    </contour>
    <contour>
      <point x="769" y="285"/>
      <point x="706" y="279"/>
      <point x="650" y="279" type="curve" smooth="yes"/>
      <point x="571" y="279"/>
      <point x="515" y="291"/>
      <point x="479" y="317" type="curve"/>
      <point x="526" y="459"/>
      <point x="678" y="629"/>
      <point x="757" y="629" type="curve" smooth="yes"/>
      <point x="833" y="629"/>
      <point x="877" y="457"/>
      <point x="840" y="298" type="curve"/>
    </contour>
    <contour>
      <point x="958" y="1132" type="move" name="top"/>
    </contour>
    <contour>
      <point x="192" y="-680" type="move" name="bottom"/>
    </contour>
  </outline>
</glyph>
<glyph name="alefMaksura-ar" format="1">
  <advance width="1683"/>
  <unicode hex="0649"/>
  <outline>
    <contour>
      <point x="1707" y="712" type="line"/>
      <point x="1675" y="730"/>
      <point x="1606" y="759"/>
      <point x="1532" y="759" type="curve" smooth="yes"/>
      <point x="1287" y="759"/>
      <point x="849" y="323"/>
      <point x="771" y="81" type="curve" smooth="yes"/>
      <point x="727" y="-54"/>
      <point x="793" y="-134"/>
      <point x="993" y="-145" type="curve" smooth="yes"/>
      <point x="1221" y="-158" type="line"/>
      <point x="1021" y="-243"/>
      <point x="806" y="-298"/>
      <point x="643" y="-298" type="curve" smooth="yes"/>
      <point x="451" y="-298"/>
      <point x="331" y="-222"/>
      <point x="394" y="-29" type="curve" smooth="yes"/>
      <point x="423" y="61"/>
      <point x="447" y="100"/>
      <point x="587" y="339" type="curve"/>
      <point x="393" y="386" type="line"/>
      <point x="225" y="100"/>
      <point x="182" y="27"/>
      <point x="138" y="-108" type="curve" smooth="yes"/>
      <point x="38" y="-418"/>
      <point x="163" y="-583"/>
      <point x="497" y="-583" type="curve" smooth="yes"/>
      <point x="811" y="-583"/>
      <point x="1431" y="-360"/>
      <point x="1530" y="-56" type="curve" smooth="yes"/>
      <point x="1566" y="54"/>
      <point x="1518" y="100"/>
      <point x="1362" y="113" type="curve" smooth="yes"/>
      <point x="1038" y="140"/>
      <point x="1016" y="153"/>
      <point x="1025" y="181" type="curve" smooth="yes"/>
      <point x="1050" y="258"/>
      <point x="1349" y="481"/>
      <point x="1427" y="481" type="curve" smooth="yes"/>
      <point x="1471" y="481"/>
      <point x="1523" y="461"/>
      <point x="1571" y="424" type="curve"/>
    </contour>
    <contour>
      <point x="810" y="710" type="move" name="top"/>
    </contour>
    <contour>
      <point x="432" y="-789" type="move" name="bottom"/>
    </contour>
  </outline>
</glyph>
<glyph name="dammatan-ar" format="1">
  <advance width="0"/>
  <unicode hex="064C"/>
  <outline>
    <contour>
      <point x="652" y="1007"/>
      <point x="614" y="1020"/>
      <point x="619" y="1033" type="curve" smooth="yes"/>
      <point x="635" y="1084"/>
      <point x="676" y="1130"/>
      <point x="702" y="1130" type="curve" smooth="yes"/>
      <point x="722" y="1130"/>
      <point x="732" y="1065"/>
      <point x="716" y="1016" type="curve"/>
      <point x="712" y="1006" type="line"/>
    </contour>
    <contour>
      <point x="874" y="1028" type="line"/>
      <point x="819" y="1022" type="line"/>
      <point x="869" y="1174"/>
      <point x="847" y="1260"/>
      <point x="759" y="1260" type="curve" smooth="yes"/>
      <point x="676" y="1260"/>
      <point x="556" y="1143"/>
      <point x="519" y="1028" type="curve" smooth="yes"/>
      <point x="493" y="948"/>
      <point x="527" y="896"/>
      <point x="606" y="888" type="curve"/>
      <point x="569" y="859"/>
      <point x="480" y="760"/>
      <point x="440" y="731" type="curve"/>
      <point x="491" y="895"/>
      <point x="465" y="975"/>
      <point x="298" y="917" type="curve"/>
      <point x="265" y="778" type="line"/>
      <point x="293" y="787"/>
      <point x="346" y="796"/>
      <point x="355" y="796" type="curve"/>
      <point x="310" y="647" type="line"/>
      <point x="310" y="647"/>
      <point x="310" y="647"/>
      <point x="310" y="646" type="curve"/>
      <point x="421" y="587" type="line"/>
      <point x="510" y="648"/>
      <point x="678" y="817"/>
      <point x="757" y="900" type="curve"/>
      <point x="831" y="911" type="line"/>
    </contour>
    <contour>
      <point x="755" y="1494" type="move" name="top"/>
    </contour>
    <contour>
      <point x="460" y="584" type="move" name="_top"/>
    </contour>
  </outline>
</glyph>
<glyph name="fatha-ar" format="1">
  <advance width="0"/>
  <unicode hex="064E"/>
  <outline>
    <contour>
      <point x="299" y="920" type="line"/>
      <point x="826" y="1073" type="line"/>
      <point x="889" y="1225" type="line"/>
      <point x="359" y="1066" type="line"/>
    </contour>
    <contour>
      <point x="698" y="1394" type="move" name="top"/>
    </contour>
    <contour>
      <point x="564" y="950" type="move" name="_top"/>
    </contour>
  </outline>
</glyph>
<glyph name="damma-ar" format="1">
  <advance width="0"/>
  <unicode hex="064F"/>
  <outline>
    <contour>
      <point x="450" y="1071"/>
      <point x="498" y="1125"/>
      <point x="527" y="1125" type="curve" smooth="yes"/>
      <point x="555" y="1125"/>
      <point x="565" y="1059"/>
      <point x="545" y="996" type="curve"/>
      <point x="539" y="982" type="line"/>
      <point x="468" y="983"/>
      <point x="426" y="997"/>
      <point x="431" y="1013" type="curve" smooth="yes"/>
    </contour>
    <contour>
      <point x="738" y="1001" type="line"/>
      <point x="651" y="999" type="line"/>
      <point x="663" y="1031" type="line"/>
      <point x="664" y="1032" type="line" smooth="yes"/>
      <point x="707" y="1167"/>
      <point x="679" y="1261"/>
      <point x="589" y="1261" type="curve" smooth="yes"/>
      <point x="499" y="1261"/>
      <point x="368" y="1133"/>
      <point x="328" y="1010" type="curve" smooth="yes"/>
      <point x="298" y="917"/>
      <point x="340" y="860"/>
      <point x="436" y="856" type="curve"/>
      <point x="363" y="788"/>
      <point x="293" y="725"/>
      <point x="248" y="686" type="curve"/>
      <point x="335" y="621" type="line"/>
      <point x="407" y="680"/>
      <point x="529" y="807"/>
      <point x="587" y="869" type="curve"/>
      <point x="662" y="869" type="line"/>
    </contour>
    <contour>
      <point x="681" y="1460" type="move" name="top"/>
    </contour>
    <contour>
      <point x="409" y="623" type="move" name="_top"/>
    </contour>
  </outline>
</glyph>
<glyph name="shadda-ar" format="1">
  <advance width="0"/>
  <unicode hex="0651"/>
  <outline>
    <contour>
      <point x="413" y="1232" type="line"/>
      <point x="347" y="1068" type="line"/>
      <point x="312" y="963"/>
      <point x="353" y="908"/>
      <point x="464" y="908" type="curve" smooth="yes"/>
      <point x="518" y="908"/>
      <point x="578" y="923"/>
      <point x="626" y="947" type="curve"/>
      <point x="652" y="931"/>
      <point x="692" y="923"/>
      <point x="738" y="922" type="curve" smooth="yes"/>
      <point x="860" y="919"/>
      <point x="951" y="987"/>
      <point x="989" y="1103" type="curve" smooth="yes"/>
      <point x="1006" y="1154"/>
      <point x="1001" y="1160"/>
      <point x="1018" y="1329" type="curve"/>
      <point x="872" y="1286" type="line"/>
      <point x="870" y="1100" type="line"/>
      <point x="742" y="1089" type="line"/>
      <point x="783" y="1239" type="line"/>
      <point x="653" y="1235" type="line"/>
      <point x="605" y="1084" type="line"/>
      <point x="470" y="1075" type="line"/>
      <point x="531" y="1235" type="line"/>
    </contour>
    <contour>
      <point x="778" y="1494" type="move" name="top"/>
    </contour>
    <contour>
      <point x="613" y="919" type="move" name="_top"/>
    </contour>
  </outline>
</glyph>
<glyph name="sukun-ar" format="1">
  <advance width="0"/>
  <unicode hex="0652"/>
  <outline>
    <contour>
      <point x="525" y="705"/>
      <point x="694" y="850"/>
      <point x="746" y="1011" type="curve" smooth="yes"/>
      <point x="791" y="1150"/>
      <point x="737" y="1259"/>
      <point x="623" y="1259" type="curve" smooth="yes"/>
      <point x="510" y="1259"/>
      <point x="356" y="1098"/>
      <point x="301" y="926" type="curve" smooth="yes"/>
      <point x="259" y="797"/>
      <point x="291" y="719"/>
      <point x="390" y="713" type="curve" smooth="yes"/>
    </contour>
    <contour>
      <point x="428" y="885"/>
      <point x="407" y="917"/>
      <point x="421" y="961" type="curve" smooth="yes"/>
      <point x="438" y="1014"/>
      <point x="513" y="1092"/>
      <point x="548" y="1092" type="curve" smooth="yes"/>
      <point x="585" y="1092"/>
      <point x="632" y="1010"/>
      <point x="619" y="969" type="curve" smooth="yes"/>
      <point x="608" y="936"/>
      <point x="518" y="885"/>
      <point x="470" y="885" type="curve" smooth="yes"/>
    </contour>
    <contour>
      <point x="684" y="1464" type="move" name="top"/>
    </contour>
    <contour>
      <point x="441" y="716" type="move" name="_top"/>
    </contour>
  </outline>
</glyph>
<glyph name="madda-ar" format="1">
  <advance width="0"/>
  <unicode hex="0653"/>
  <outline>
    <contour>
      <point x="451" y="972" type="line"/>
      <point x="513" y="1046" type="line"/>
      <point x="579" y="1025"/>
      <point x="662" y="1014"/>
      <point x="750" y="1014" type="curve" smooth="yes"/>
      <point x="853" y="1014"/>
      <point x="956" y="1030"/>
      <point x="1030" y="1058" type="curve"/>
      <point x="1125" y="1252" type="line"/>
      <point x="879" y="1232"/>
      <point x="749" y="1220"/>
      <point x="545" y="1295" type="curve"/>
      <point x="342" y="1054" type="line"/>
    </contour>
    <contour>
      <point x="834" y="1464" type="move" name="top"/>
    </contour>
    <contour>
      <point x="678" y="983" type="move" name="_top"/>
    </contour>
  </outline>
</glyph>
<glyph name="hamzaabove-ar" format="1">
  <advance width="0"/>
  <unicode hex="0654"/>
  <outline>
    <component base="hamzacenter-ar" xOffset="205" yOffset="631"/>
    <contour>
      <point x="677" y="1468" type="move" name="top"/>
    </contour>
    <contour>
      <point x="496" y="698" type="move" name="_top"/>
    </contour>
  </outline>
</glyph>
<glyph name="hamzabelow-ar" format="1">
  <advance width="0"/>
  <unicode hex="0655"/>
  <outline>
    <component base="hamzacenter-ar" xOffset="-265" yOffset="-815"/>
    <contour>
      <point x="143" y="-138" type="move" name="_bottom"/>
    </contour>
    <contour>
      <point x="-91" y="-988" type="move" name="bottom"/>
    </contour>
  </outline>
</glyph>
<glyph name="noonghunnaabove-ar" format="1">
  <advance width="0"/>
  <unicode hex="0658"/>
  <outline>
    <contour>
      <point x="553" y="867"/>
      <point x="758" y="927"/>
      <point x="798" y="1044" type="curve" smooth="yes"/>
      <point x="815" y="1094"/>
      <point x="842" y="1225"/>
      <point x="851" y="1275" type="curve"/>
      <point x="703" y="1217" type="line"/>
      <point x="677" y="1034" type="line"/>
      <point x="678" y="1036" type="line"/>
      <point x="513" y="1010" type="line"/>
      <point x="464" y="1010"/>
      <point x="453" y="1038"/>
      <point x="467" y="1081" type="curve" smooth="yes"/>
      <point x="477" y="1110"/>
      <point x="500" y="1148"/>
      <point x="505" y="1164" type="curve"/>
      <point x="397" y="1171" type="line"/>
      <point x="363" y="1105"/>
      <point x="352" y="1083"/>
      <point x="343" y="1057" type="curve" smooth="yes"/>
      <point x="310" y="953"/>
      <point x="350" y="867"/>
      <point x="458" y="867" type="curve" smooth="yes"/>
    </contour>
    <contour>
      <point x="700" y="1447" type="move" name="top"/>
    </contour>
    <contour>
      <point x="513" y="870" type="move" name="_top"/>
    </contour>
  </outline>
</glyph>
<glyph name="vinvertedabove-ar" format="1">
  <advance width="0"/>
  <unicode hex="065B"/>
  <outline>
    <contour>
      <point x="289" y="890" type="line"/>
      <point x="419" y="829" type="line"/>
      <point x="589" y="1044" type="line"/>
      <point x="606" y="827" type="line"/>
      <point x="765" y="847" type="line"/>
      <point x="735" y="1223" type="line"/>
      <point x="559" y="1223" type="line"/>
    </contour>
    <contour>
      <point x="708" y="1424" type="move" name="top"/>
    </contour>
    <contour>
      <point x="512" y="821" type="move" name="_top"/>
    </contour>
  </outline>
</glyph>
<glyph name="zero-ar" format="1">
  <advance width="986"/>
  <unicode hex="0660"/>
  <outline>
    <contour>
      <point x="521" y="500" type="line"/>
      <point x="696" y="631" type="line"/>
      <point x="785" y="500" type="line"/>
      <point x="610" y="367" type="line"/>
    </contour>
    <contour>
      <point x="528" y="125" type="line"/>
      <point x="1026" y="491" type="line"/>
      <point x="784" y="871" type="line"/>
      <point x="284" y="504" type="line"/>
    </contour>
  </outline>
</glyph>
<glyph name="one-ar" format="1">
  <advance width="672"/>
  <unicode hex="0661"/>
  <outline>
    <contour>
      <point x="552" y="0" type="line"/>
      <point x="742" y="580"/>
      <point x="831" y="920"/>
      <point x="759" y="1272" type="curve"/>
      <point x="456" y="1034" type="line"/>
      <point x="565" y="662"/>
      <point x="413" y="237"/>
      <point x="328" y="-29" type="curve"/>
    </contour>
  </outline>
</glyph>
<glyph name="two-ar" format="1">
  <advance width="1075"/>
  <unicode hex="0662"/>
  <outline>
    <contour>
      <point x="565" y="663"/>
      <point x="413" y="239"/>
      <point x="328" y="-27" type="curve"/>
      <point x="551" y="0" type="line"/>
      <point x="602" y="151" type="line" smooth="yes"/>
      <point x="669" y="346"/>
      <point x="733" y="545"/>
      <point x="756" y="738" type="curve"/>
      <point x="770" y="737"/>
      <point x="786" y="737"/>
      <point x="803" y="737" type="curve" smooth="yes"/>
      <point x="1047" y="737"/>
      <point x="1237" y="910"/>
      <point x="1359" y="1243" type="curve"/>
      <point x="1148" y="1262" type="line"/>
      <point x="1093" y="1116"/>
      <point x="1016" y="1047"/>
      <point x="908" y="1047" type="curve" smooth="yes"/>
      <point x="881" y="1047"/>
      <point x="852" y="1051"/>
      <point x="822" y="1060" type="curve"/>
      <point x="756" y="1274" type="line"/>
      <point x="456" y="1035" type="line"/>
    </contour>
  </outline>
</glyph>
<glyph name="three-ar" format="1">
  <advance width="1330"/>
  <unicode hex="0663"/>
  <outline>
    <contour>
      <point x="552" y="0" type="line"/>
      <point x="654" y="314"/>
      <point x="705" y="441"/>
      <point x="753" y="740" type="curve"/>
      <point x="763" y="739"/>
      <point x="773" y="739"/>
      <point x="784" y="739" type="curve" smooth="yes"/>
      <point x="868" y="739"/>
      <point x="953" y="765"/>
      <point x="1020" y="811" type="curve"/>
      <point x="1064" y="785"/>
      <point x="1112" y="771"/>
      <point x="1162" y="771" type="curve" smooth="yes"/>
      <point x="1337" y="771"/>
      <point x="1513" y="920"/>
      <point x="1573" y="1118" type="curve" smooth="yes"/>
      <point x="1624" y="1283" type="line"/>
      <point x="1425" y="1293" type="line"/>
      <point x="1369" y="1111"/>
      <point x="1325" y="1055"/>
      <point x="1249" y="1055" type="curve" smooth="yes"/>
      <point x="1231" y="1055"/>
      <point x="1212" y="1058"/>
      <point x="1190" y="1063" type="curve"/>
      <point x="1266" y="1283" type="line"/>
      <point x="1065" y="1284" type="line"/>
      <point x="1002" y="1083"/>
      <point x="970" y="1041"/>
      <point x="887" y="1038" type="curve" smooth="yes"/>
      <point x="771" y="1034"/>
      <point x="776" y="1095"/>
      <point x="764" y="1274" type="curve"/>
      <point x="456" y="1034" type="line"/>
      <point x="565" y="662"/>
      <point x="413" y="237"/>
      <point x="327" y="-29" type="curve"/>
    </contour>
  </outline>
</glyph>
<glyph name="four-ar" format="1">
  <advance width="1000"/>
  <unicode hex="0664"/>
  <outline>
    <contour>
      <point x="969" y="274" type="line"/>
      <point x="870" y="256"/>
      <point x="766" y="246"/>
      <point x="670" y="246" type="curve" smooth="yes"/>
      <point x="548" y="246"/>
      <point x="421" y="279"/>
      <point x="427" y="296" type="curve" smooth="yes"/>
      <point x="437" y="326"/>
      <point x="685" y="482"/>
      <point x="872" y="568" type="curve"/>
      <point x="948" y="842" type="line"/>
      <point x="887" y="847"/>
      <point x="762" y="865"/>
      <point x="690" y="905" type="curve"/>
      <point x="787" y="973"/>
      <point x="909" y="1037"/>
      <point x="1043" y="1103" type="curve"/>
      <point x="1080" y="1357" type="line"/>
      <point x="739" y="1236"/>
      <point x="493" y="1031"/>
      <point x="421" y="811" type="curve" smooth="yes"/>
      <point x="394" y="726"/>
      <point x="440" y="664"/>
      <point x="558" y="624" type="curve"/>
      <point x="372" y="499"/>
      <point x="233" y="345"/>
      <point x="190" y="214" type="curve" smooth="yes"/>
      <point x="139" y="57"/>
      <point x="252" y="-26"/>
      <point x="510" y="-26" type="curve" smooth="yes"/>
      <point x="632" y="-26"/>
      <point x="761" y="-8"/>
      <point x="844" y="3" type="curve"/>
    </contour>
  </outline>
</glyph>
<glyph name="five-ar" format="1">
  <advance width="1022"/>
  <unicode hex="0665"/>
  <outline>
    <contour>
      <point x="748" y="113"/>
      <point x="1012" y="337"/>
      <point x="1119" y="667" type="curve" smooth="yes"/>
      <point x="1193" y="893"/>
      <point x="1061" y="1138"/>
      <point x="863" y="1138" type="curve" smooth="yes"/>
      <point x="625" y="1138"/>
      <point x="354" y="717"/>
      <point x="281" y="494" type="curve" smooth="yes"/>
      <point x="198" y="239"/>
      <point x="258" y="113"/>
      <point x="464" y="113" type="curve" smooth="yes"/>
    </contour>
    <contour>
      <point x="506" y="414"/>
      <point x="469" y="457"/>
      <point x="497" y="543" type="curve" smooth="yes"/>
      <point x="548" y="698"/>
      <point x="640" y="821"/>
      <point x="711" y="821" type="curve" smooth="yes"/>
      <point x="819" y="821"/>
      <point x="920" y="674"/>
      <point x="884" y="565" type="curve" smooth="yes"/>
      <point x="866" y="508"/>
      <point x="697" y="414"/>
      <point x="607" y="414" type="curve" smooth="yes"/>
    </contour>
  </outline>
</glyph>
<glyph name="six-ar" format="1">
  <advance width="1104"/>
  <unicode hex="0666"/>
  <outline>
    <contour>
      <point x="1018" y="106" type="line"/>
      <point x="998" y="339"/>
      <point x="1020" y="538"/>
      <point x="1087" y="746" type="curve" smooth="yes"/>
      <point x="1119" y="843"/>
      <point x="1147" y="941"/>
      <point x="1204" y="1038" type="curve"/>
      <point x="1177" y="1262" type="line"/>
      <point x="944" y="1245"/>
      <point x="751" y="1236"/>
      <point x="560" y="1299" type="curve"/>
      <point x="442" y="991" type="line"/>
      <point x="521" y="946"/>
      <point x="775" y="945"/>
      <point x="958" y="960" type="curve"/>
      <point x="892" y="809"/>
      <point x="845" y="688"/>
      <point x="809" y="578" type="curve" smooth="yes"/>
      <point x="739" y="362"/>
      <point x="696" y="153"/>
      <point x="722" y="-62" type="curve"/>
    </contour>
  </outline>
</glyph>
<glyph name="seven-ar" format="1">
  <advance width="1287"/>
  <unicode hex="0667"/>
  <outline>
    <contour>
      <point x="832" y="17" type="line"/>
      <point x="1028" y="357"/>
      <point x="1268" y="769"/>
      <point x="1536" y="1137" type="curve"/>
      <point x="1408" y="1328" type="line"/>
      <point x="1215" y="1087"/>
      <point x="1026" y="774"/>
      <point x="872" y="503" type="curve"/>
      <point x="886" y="805"/>
      <point x="821" y="1129"/>
      <point x="759" y="1301" type="curve"/>
      <point x="468" y="1072" type="line"/>
      <point x="643" y="645"/>
      <point x="633" y="415"/>
      <point x="581" y="-36" type="curve"/>
    </contour>
  </outline>
</glyph>
<glyph name="eight-ar" format="1">
  <advance width="1263"/>
  <unicode hex="0668"/>
  <outline>
    <contour>
      <point x="294" y="-52" type="line"/>
      <point x="477" y="179"/>
      <point x="656" y="459"/>
      <point x="794" y="705" type="curve"/>
      <point x="794" y="431"/>
      <point x="850" y="113"/>
      <point x="912" y="-48" type="curve"/>
      <point x="1201" y="179" type="line"/>
      <point x="1090" y="503"/>
      <point x="1045" y="781"/>
      <point x="1098" y="1313" type="curve"/>
      <point x="839" y="1211" type="line"/>
      <point x="709" y="891"/>
      <point x="449" y="479"/>
      <point x="165" y="139" type="curve"/>
    </contour>
  </outline>
</glyph>
<glyph name="nine-ar" format="1">
  <advance width="1091"/>
  <unicode hex="0669"/>
  <outline>
    <contour>
      <point x="322" y="621"/>
      <point x="401" y="499"/>
      <point x="592" y="499" type="curve" smooth="yes"/>
      <point x="651" y="499"/>
      <point x="720" y="512"/>
      <point x="783" y="535" type="curve"/>
      <point x="732" y="342"/>
      <point x="693" y="150"/>
      <point x="707" y="-58" type="curve"/>
      <point x="1020" y="150" type="line"/>
      <point x="1002" y="358"/>
      <point x="1018" y="545"/>
      <point x="1070" y="753" type="curve" smooth="yes"/>
      <point x="1126" y="975"/>
      <point x="1212" y="1329"/>
      <point x="910" y="1329" type="curve" smooth="yes"/>
      <point x="686" y="1329"/>
      <point x="453" y="1022"/>
      <point x="386" y="818" type="curve" smooth="yes"/>
    </contour>
    <contour>
      <point x="642" y="952"/>
      <point x="728" y="1048"/>
      <point x="805" y="1048" type="curve" smooth="yes"/>
      <point x="864" y="1048"/>
      <point x="888" y="935"/>
      <point x="853" y="806" type="curve"/>
      <point x="796" y="795"/>
      <point x="748" y="786"/>
      <point x="706" y="786" type="curve" smooth="yes"/>
      <point x="669" y="786"/>
      <point x="635" y="793"/>
      <point x="596" y="810" type="curve"/>
    </contour>
  </outline>
</glyph>
<glyph name="percent-ar" format="1">
  <advance width="1296"/>
  <unicode hex="066A"/>
  <outline>
    <contour>
      <point x="1316" y="1107" type="line"/>
      <point x="1293" y="1311" type="line"/>
      <point x="239" y="78" type="line"/>
      <point x="309" y="-72" type="line"/>
    </contour>
    <component base="period" xOffset="741" yOffset="103" xScale="0.803" yScale="0.803"/>
    <component base="period" xOffset="337" yOffset="870" xScale="0.803" yScale="0.803"/>
  </outline>
</glyph>
<glyph name="decimalseparator-ar" format="1">
  <advance width="834"/>
  <unicode hex="066B"/>
  <outline>
    <contour>
      <point x="160" y="-383" type="line"/>
      <point x="955" y="741" type="line"/>
      <point x="804" y="767" type="line"/>
      <point x="4" y="-358" type="line"/>
    </contour>
  </outline>
</glyph>
<glyph name="thousandseparator-ar" format="1">
  <advance width="683"/>
  <unicode hex="066C"/>
  <outline>
    <contour>
      <point x="287" y="28" type="line"/>
      <point x="759" y="603" type="line"/>
      <point x="613" y="633" type="line"/>
      <point x="139" y="58" type="line"/>
    </contour>
  </outline>
</glyph>
<glyph name="asterisk-ar" format="1">
  <advance width="890"/>
  <unicode hex="066D"/>
  <outline>
    <contour>
      <point x="551" y="315" type="line"/>
      <point x="677" y="189" type="line"/>
      <point x="744" y="234" type="line"/>
      <point x="731" y="421" type="line"/>
      <point x="944" y="535" type="line"/>
      <point x="944" y="596" type="line"/>
      <point x="731" y="586" type="line"/>
      <point x="737" y="790" type="line"/>
      <point x="666" y="790" type="line"/>
      <point x="549" y="585" type="line"/>
      <point x="334" y="592" type="line"/>
      <point x="294" y="535" type="line"/>
      <point x="444" y="420" type="line"/>
      <point x="309" y="223" type="line"/>
      <point x="346" y="182" type="line"/>
    </contour>
  </outline>
</glyph>
<glyph name="behDotless-ar" format="1">
  <advance width="1870"/>
  <unicode hex="066E"/>
  <outline>
    <contour>
      <point x="207" y="106"/>
      <point x="346" y="-34"/>
      <point x="729" y="-34" type="curve" smooth="yes"/>
      <point x="840" y="-34"/>
      <point x="988" y="-21"/>
      <point x="1169" y="5" type="curve" smooth="yes"/>
      <point x="1576" y="64"/>
      <point x="1802" y="206"/>
      <point x="1886" y="464" type="curve" smooth="yes"/>
      <point x="1918" y="563"/>
      <point x="1944" y="874"/>
      <point x="1955" y="1038" type="curve"/>
      <point x="1678" y="894" type="line"/>
      <point x="1628" y="361" type="line"/>
      <point x="1472" y="303"/>
      <point x="1164" y="239"/>
      <point x="892" y="239" type="curve" smooth="yes"/>
      <point x="604" y="239"/>
      <point x="485" y="315"/>
      <point x="534" y="464" type="curve" smooth="yes"/>
      <point x="540" y="484"/>
      <point x="543" y="497"/>
      <point x="613" y="652" type="curve"/>
      <point x="416" y="670" type="line"/>
      <point x="333" y="490"/>
      <point x="317" y="445"/>
      <point x="303" y="401" type="curve" smooth="yes"/>
    </contour>
    <contour>
      <point x="1160" y="876" type="move" name="top"/>
    </contour>
    <contour>
      <point x="868" y="-244" type="move" name="bottom"/>
    </contour>
    <contour>
      <point x="399" y="-198" type="move" name="ring"/>
    </contour>
  </outline>
</glyph>
<glyph name="qafDotless-ar" format="1">
  <advance width="1684"/>
  <unicode hex="066F"/>
  <outline>
    <contour>
      <point x="337" y="334" type="line"/>
      <point x="198" y="51"/>
      <point x="176" y="7"/>
      <point x="154" y="-58" type="curve" smooth="yes"/>
      <point x="61" y="-346"/>
      <point x="185" y="-524"/>
      <point x="480" y="-524" type="curve" smooth="yes"/>
      <point x="678" y="-524"/>
      <point x="1187" y="-458"/>
      <point x="1397" y="-252" type="curve" smooth="yes"/>
      <point x="1487" y="-164"/>
      <point x="1529" y="-46"/>
      <point x="1577" y="87" type="curve" smooth="yes"/>
      <point x="1695" y="413"/>
      <point x="1664" y="855"/>
      <point x="1404" y="855" type="curve" smooth="yes"/>
      <point x="1144" y="855"/>
      <point x="880" y="496"/>
      <point x="804" y="260" type="curve" smooth="yes"/>
      <point x="738" y="58"/>
      <point x="825" y="-55"/>
      <point x="1045" y="-55" type="curve" smooth="yes"/>
      <point x="1127" y="-55"/>
      <point x="1223" y="-40"/>
      <point x="1308" y="-13" type="curve"/>
      <point x="1268" y="-125" type="line"/>
      <point x="1173" y="-155"/>
      <point x="933" y="-230"/>
      <point x="622" y="-230" type="curve" smooth="yes"/>
      <point x="425" y="-230"/>
      <point x="345" y="-136"/>
      <point x="406" y="25" type="curve" smooth="yes"/>
      <point x="413" y="43"/>
      <point x="423" y="62"/>
      <point x="545" y="302" type="curve"/>
    </contour>
    <contour>
      <point x="1052" y="400"/>
      <point x="1184" y="571"/>
      <point x="1273" y="571" type="curve" smooth="yes"/>
      <point x="1357" y="571"/>
      <point x="1412" y="405"/>
      <point x="1381" y="240" type="curve"/>
      <point x="1316" y="227"/>
      <point x="1251" y="221"/>
      <point x="1177" y="221" type="curve" smooth="yes"/>
      <point x="1105" y="221"/>
      <point x="1059" y="228"/>
      <point x="1023" y="243" type="curve"/>
    </contour>
    <contour>
      <point x="1473" y="1066" type="move" name="top"/>
    </contour>
    <contour>
      <point x="444" y="-750" type="move" name="bottom"/>
    </contour>
  </outline>
</glyph>
<glyph name="alefabove-ar" format="1">
  <advance width="0"/>
  <unicode hex="0670"/>
  <outline>
    <contour>
      <point x="437" y="838" type="line"/>
      <point x="564" y="1234" type="line"/>
      <point x="382" y="1176" type="line"/>
      <point x="278" y="778" type="line"/>
    </contour>
    <contour>
      <point x="545" y="1424" type="move" name="top"/>
    </contour>
    <contour>
      <point x="332" y="770" type="move" name="_top"/>
    </contour>
  </outline>
</glyph>
<glyph name="highhamza-ar" format="1">
  <advance width="0"/>
  <unicode hex="0674"/>
  <outline>
    <component base="hamzacenter-ar" xOffset="101" yOffset="311"/>
    <contour>
      <point x="531" y="1190" type="move" name="top"/>
    </contour>
    <contour>
      <point x="204" y="152" type="move" name="bottom"/>
    </contour>
  </outline>
</glyph>
<glyph name="fehDotless-ar" format="1">
  <advance width="1893"/>
  <unicode hex="06A1"/>
  <outline>
    <contour>
      <point x="403" y="642" type="line"/>
      <point x="332" y="486"/>
      <point x="314" y="434"/>
      <point x="302" y="396" type="curve" smooth="yes"/>
      <point x="206" y="100"/>
      <point x="344" y="-39"/>
      <point x="729" y="-39" type="curve" smooth="yes"/>
      <point x="944" y="-39"/>
      <point x="1206" y="-7"/>
      <point x="1417" y="44" type="curve" smooth="yes"/>
      <point x="1676" y="107"/>
      <point x="1840" y="250"/>
      <point x="1914" y="480" type="curve" smooth="yes"/>
      <point x="2003" y="753"/>
      <point x="1982" y="1163"/>
      <point x="1741" y="1163" type="curve" smooth="yes"/>
      <point x="1481" y="1163"/>
      <point x="1254" y="848"/>
      <point x="1177" y="612" type="curve" smooth="yes"/>
      <point x="1120" y="435"/>
      <point x="1206" y="335"/>
      <point x="1414" y="335" type="curve" smooth="yes"/>
      <point x="1491" y="335"/>
      <point x="1583" y="351"/>
      <point x="1663" y="378" type="curve"/>
      <point x="1657" y="357" type="line"/>
      <point x="1503" y="303"/>
      <point x="1166" y="234"/>
      <point x="887" y="234" type="curve" smooth="yes"/>
      <point x="602" y="234"/>
      <point x="485" y="310"/>
      <point x="534" y="459" type="curve" smooth="yes"/>
      <point x="540" y="480"/>
      <point x="549" y="508"/>
      <point x="605" y="632" type="curve"/>
    </contour>
    <contour>
      <point x="1437" y="769"/>
      <point x="1531" y="878"/>
      <point x="1610" y="878" type="curve" smooth="yes"/>
      <point x="1674" y="878"/>
      <point x="1722" y="753"/>
      <point x="1713" y="606" type="curve"/>
      <point x="1674" y="599"/>
      <point x="1612" y="591"/>
      <point x="1546" y="591" type="curve" smooth="yes"/>
      <point x="1505" y="591"/>
      <point x="1414" y="606"/>
      <point x="1385" y="613" type="curve"/>
    </contour>
    <contour>
      <point x="1808" y="1368" type="move" name="top"/>
    </contour>
    <contour>
      <point x="749" y="-259" type="move" name="bottom"/>
    </contour>
  </outline>
</glyph>
<glyph name="veh-ar" format="1">
  <advance width="1893"/>
  <unicode hex="06A4"/>
  <outline>
    <component base="fehDotless-ar"/>
    <component base="threedotsupabove-ar" xOffset="1302" yOffset="758"/>
    <contour>
      <point x="538" y="-256" type="move" name="bottom"/>
    </contour>
  </outline>
</glyph>
<glyph name="keheh-ar" format="1">
  <advance width="1754"/>
  <unicode hex="06A9"/>
  <outline>
    <contour>
      <point x="407" y="655" type="line"/>
      <point x="329" y="478"/>
      <point x="321" y="453"/>
      <point x="305" y="405" type="curve" smooth="yes"/>
      <point x="207" y="103"/>
      <point x="343" y="-34"/>
      <point x="740" y="-34" type="curve" smooth="yes"/>
      <point x="1071" y="-34"/>
      <point x="1400" y="54"/>
      <point x="1554" y="114" type="curve" smooth="yes"/>
      <point x="1606" y="134"/>
      <point x="1715" y="296"/>
      <point x="1746" y="394" type="curve" smooth="yes"/>
      <point x="1811" y="593"/>
      <point x="1713" y="864"/>
      <point x="1508" y="1069" type="curve"/>
      <point x="2096" y="1237" type="line"/>
      <point x="2224" y="1521" type="line"/>
      <point x="1451" y="1288" type="line"/>
      <point x="1202" y="920" type="line"/>
      <point x="1425" y="742"/>
      <point x="1546" y="531"/>
      <point x="1538" y="337" type="curve"/>
      <point x="1407" y="295"/>
      <point x="1163" y="239"/>
      <point x="889" y="239" type="curve" smooth="yes"/>
      <point x="605" y="239"/>
      <point x="485" y="317"/>
      <point x="533" y="464" type="curve" smooth="yes"/>
      <point x="537" y="475"/>
      <point x="541" y="494"/>
      <point x="605" y="637" type="curve"/>
    </contour>
    <contour>
      <point x="909" y="1007" type="move" name="top"/>
    </contour>
    <contour>
      <point x="675" y="-234" type="move" name="bottom"/>
    </contour>
    <contour>
      <point x="1919" y="1011" type="move" name="ring"/>
    </contour>
  </outline>
</glyph>
<glyph name="gaf-ar" format="1">
  <advance width="1754"/>
  <unicode hex="06AF"/>
  <outline>
    <contour>
      <point x="2096" y="1524" type="line"/>
      <point x="2180" y="1735" type="line"/>
      <point x="1654" y="1583" type="line"/>
      <point x="1542" y="1366" type="line"/>
    </contour>
    <contour>
      <point x="407" y="655" type="line"/>
      <point x="329" y="478"/>
      <point x="321" y="453"/>
      <point x="305" y="405" type="curve" smooth="yes"/>
      <point x="207" y="103"/>
      <point x="344" y="-34"/>
      <point x="741" y="-34" type="curve" smooth="yes"/>
      <point x="1072" y="-34"/>
      <point x="1400" y="54"/>
      <point x="1555" y="114" type="curve" smooth="yes"/>
      <point x="1606" y="134"/>
      <point x="1715" y="296"/>
      <point x="1747" y="394" type="curve" smooth="yes"/>
      <point x="1811" y="593"/>
      <point x="1713" y="864"/>
      <point x="1508" y="1069" type="curve"/>
      <point x="2097" y="1237" type="line"/>
      <point x="2224" y="1521" type="line"/>
      <point x="1451" y="1288" type="line"/>
      <point x="1203" y="920" type="line"/>
      <point x="1425" y="742"/>
      <point x="1546" y="531"/>
      <point x="1538" y="337" type="curve"/>
      <point x="1408" y="295"/>
      <point x="1163" y="239"/>
      <point x="889" y="239" type="curve" smooth="yes"/>
      <point x="605" y="239"/>
      <point x="486" y="317"/>
      <point x="533" y="464" type="curve" smooth="yes"/>
      <point x="537" y="475"/>
      <point x="541" y="494"/>
      <point x="606" y="637" type="curve"/>
    </contour>
    <contour>
      <point x="990" y="1103" type="move" name="top"/>
    </contour>
    <contour>
      <point x="673" y="-244" type="move" name="bottom"/>
    </contour>
  </outline>
</glyph>
<glyph name="noonghunna-ar" format="1">
  <advance width="1557"/>
  <unicode hex="06BA"/>
  <outline>
    <contour>
      <point x="60" y="-345"/>
      <point x="175" y="-512"/>
      <point x="462" y="-512" type="curve" smooth="yes"/>
      <point x="687" y="-512"/>
      <point x="1112" y="-406"/>
      <point x="1289" y="-242" type="curve" smooth="yes"/>
      <point x="1342" y="-193"/>
      <point x="1376" y="-139"/>
      <point x="1399" y="-70" type="curve" smooth="yes"/>
      <point x="1418" y="-11"/>
      <point x="1425" y="28"/>
      <point x="1543" y="632" type="curve"/>
      <point x="1246" y="506" type="line"/>
      <point x="1170" y="-95" type="line"/>
      <point x="1079" y="-136"/>
      <point x="844" y="-218"/>
      <point x="585" y="-218" type="curve" smooth="yes"/>
      <point x="412" y="-218"/>
      <point x="349" y="-145"/>
      <point x="397" y="1" type="curve" smooth="yes"/>
      <point x="412" y="49"/>
      <point x="426" y="72"/>
      <point x="525" y="259" type="curve"/>
      <point x="325" y="298" type="line"/>
      <point x="199" y="58"/>
      <point x="181" y="25"/>
      <point x="153" y="-61" type="curve" smooth="yes"/>
    </contour>
    <contour>
      <point x="890" y="495" type="move" name="top"/>
    </contour>
    <contour>
      <point x="403" y="-715" type="move" name="bottom"/>
    </contour>
    <contour>
      <point x="224" y="-681" type="move" name="ring"/>
    </contour>
  </outline>
</glyph>
<glyph name="noonRing-ar" format="1">
  <advance width="1557"/>
  <unicode hex="06BC"/>
  <outline>
    <component base="noon-ar"/>
    <component base="ringbelow-ar" xOffset="251" yOffset="-148"/>
    <contour>
      <point x="376" y="-950" type="move" name="bottom"/>
    </contour>
  </outline>
</glyph>
<glyph name="hehDoachashmee-ar" format="1">
  <advance width="1409"/>
  <unicode hex="06BE"/>
  <outline>
    <contour>
      <point x="440" y="811"/>
      <point x="165" y="301"/>
      <point x="413" y="137" type="curve"/>
      <point x="142" y="-96" type="line"/>
      <point x="320" y="-191"/>
      <point x="383" y="-186"/>
      <point x="523" y="-49" type="curve" smooth="yes"/>
      <point x="673" y="99" type="line"/>
      <point x="1179" y="-27" type="line"/>
      <point x="1555" y="513"/>
      <point x="1515" y="797"/>
      <point x="1007" y="1184" type="curve"/>
      <point x="874" y="974" type="line"/>
    </contour>
    <contour>
      <point x="583" y="613"/>
      <point x="727" y="723"/>
      <point x="827" y="709" type="curve" smooth="yes"/>
      <point x="869" y="703"/>
      <point x="898" y="687"/>
      <point x="913" y="658" type="curve"/>
      <point x="649" y="362" type="line"/>
      <point x="563" y="391"/>
      <point x="526" y="439"/>
      <point x="544" y="494" type="curve" smooth="yes"/>
    </contour>
    <contour>
      <point x="1085" y="618" type="line"/>
      <point x="1183" y="513"/>
      <point x="1218" y="393"/>
      <point x="1183" y="277" type="curve"/>
      <point x="910" y="356" type="line"/>
    </contour>
    <contour>
      <point x="1088" y="1400" type="move" name="top"/>
    </contour>
    <contour>
      <point x="603" y="-320" type="move" name="bottom"/>
    </contour>
  </outline>
</glyph>
<glyph name="yehTail-ar" format="1">
  <advance width="2006"/>
  <unicode hex="06CD"/>
  <outline>
    <contour>
      <point x="333" y="-40" type="line"/>
      <point x="524" y="26" type="line"/>
      <point x="501" y="-25"/>
      <point x="485" y="-69"/>
      <point x="472" y="-108" type="curve" smooth="yes"/>
      <point x="366" y="-435"/>
      <point x="479" y="-593"/>
      <point x="817" y="-593" type="curve" smooth="yes"/>
      <point x="1131" y="-593"/>
      <point x="1752" y="-369"/>
      <point x="1850" y="-65" type="curve" smooth="yes"/>
      <point x="1886" y="45"/>
      <point x="1838" y="91"/>
      <point x="1682" y="104" type="curve" smooth="yes"/>
      <point x="1376" y="130"/>
      <point x="1335" y="142"/>
      <point x="1344" y="172" type="curve" smooth="yes"/>
      <point x="1369" y="247"/>
      <point x="1669" y="472"/>
      <point x="1747" y="472" type="curve" smooth="yes"/>
      <point x="1770" y="472"/>
      <point x="1788" y="464"/>
      <point x="1815" y="443" type="curve"/>
      <point x="1995" y="696" type="line"/>
      <point x="1968" y="730"/>
      <point x="1915" y="750"/>
      <point x="1853" y="750" type="curve" smooth="yes"/>
      <point x="1606" y="750"/>
      <point x="1171" y="316"/>
      <point x="1092" y="72" type="curve" smooth="yes"/>
      <point x="1048" y="-64"/>
      <point x="1118" y="-134"/>
      <point x="1313" y="-154" type="curve" smooth="yes"/>
      <point x="1500" y="-173" type="line"/>
      <point x="1308" y="-255"/>
      <point x="1107" y="-301"/>
      <point x="940" y="-301" type="curve" smooth="yes"/>
      <point x="724" y="-301"/>
      <point x="655" y="-219"/>
      <point x="715" y="-36" type="curve" smooth="yes"/>
      <point x="743" y="51"/>
      <point x="787" y="140"/>
      <point x="809" y="207" type="curve" smooth="yes"/>
      <point x="884" y="440"/>
      <point x="688" y="361"/>
      <point x="239" y="202" type="curve"/>
    </contour>
    <contour>
      <point x="1136" y="693" type="move" name="top"/>
    </contour>
    <contour>
      <point x="755" y="-788" type="move" name="bottom"/>
    </contour>
  </outline>
</glyph>
<glyph name="yehbarree-ar" format="1">
  <advance width="1894"/>
  <unicode hex="06D2"/>
  <outline>
    <contour>
      <point x="1738" y="-65" type="line"/>
      <point x="1794" y="110"/>
      <point x="1839" y="212"/>
      <point x="1668" y="212" type="curve" smooth="yes"/>
      <point x="560" y="213" type="line" smooth="yes"/>
      <point x="489" y="213"/>
      <point x="460" y="225"/>
      <point x="464" y="245" type="curve" smooth="yes"/>
      <point x="479" y="331"/>
      <point x="800" y="336"/>
      <point x="1024" y="622" type="curve"/>
      <point x="1163" y="539" type="line"/>
      <point x="1344" y="782" type="line"/>
      <point x="1305" y="828"/>
      <point x="1243" y="901"/>
      <point x="1163" y="906" type="curve" smooth="yes"/>
      <point x="1030" y="914"/>
      <point x="872" y="702"/>
      <point x="731" y="634" type="curve" smooth="yes"/>
      <point x="552" y="548"/>
      <point x="446" y="490"/>
      <point x="333" y="339" type="curve" smooth="yes"/>
      <point x="273" y="258"/>
      <point x="237" y="197"/>
      <point x="220" y="145" type="curve" smooth="yes"/>
      <point x="177" y="11"/>
      <point x="250" y="-65"/>
      <point x="421" y="-65" type="curve" smooth="yes"/>
    </contour>
    <contour>
      <point x="1229" y="1114" type="move" name="top"/>
    </contour>
    <contour>
      <point x="840" y="-270" type="move" name="bottom"/>
    </contour>
  </outline>
</glyph>
<glyph name="fullstop-ar" format="1">
  <advance width="721"/>
  <unicode hex="06D4"/>
  <outline>
    <contour>
      <point x="674" y="293" type="line"/>
      <point x="758" y="483" type="line"/>
      <point x="299" y="483" type="line"/>
      <point x="215" y="293" type="line"/>
    </contour>
  </outline>
</glyph>
<glyph name="sadLamAlefMaksuraabove-ar" format="1">
  <advance width="0"/>
  <unicode hex="06D6"/>
  <outline>
    <contour>
      <point x="194" y="309"/>
      <point x="325" y="312" type="curve" smooth="yes"/>
      <point x="1322" y="336" type="line"/>
      <point x="1388" y="449" type="line"/>
      <point x="403" y="426" type="line" smooth="yes"/>
      <point x="344" y="425"/>
      <point x="296" y="429"/>
      <point x="245" y="441" type="curve"/>
      <point x="306" y="522"/>
      <point x="398" y="549"/>
      <point x="506" y="570" type="curve"/>
      <point x="507" y="570" type="line"/>
      <point x="534" y="577"/>
      <point x="536" y="582"/>
      <point x="563" y="611" type="curve"/>
      <point x="582" y="570"/>
      <point x="623" y="544"/>
      <point x="675" y="544" type="curve" smooth="yes"/>
      <point x="719" y="544"/>
      <point x="769" y="563"/>
      <point x="809" y="594" type="curve"/>
      <point x="851" y="575"/>
      <point x="914" y="563"/>
      <point x="979" y="563" type="curve" smooth="yes"/>
      <point x="1152" y="563"/>
      <point x="1320" y="641"/>
      <point x="1352" y="741" type="curve" smooth="yes"/>
      <point x="1375" y="810"/>
      <point x="1294" y="901"/>
      <point x="1212" y="902" type="curve" smooth="yes"/>
      <point x="1143" y="903"/>
      <point x="1065" y="853"/>
      <point x="886" y="699" type="curve"/>
      <point x="854" y="710" type="line"/>
      <point x="840" y="713"/>
      <point x="821" y="706"/>
      <point x="808" y="693" type="curve"/>
      <point x="779" y="667"/>
      <point x="754" y="655"/>
      <point x="728" y="655" type="curve" smooth="yes"/>
      <point x="647" y="655"/>
      <point x="638" y="732"/>
      <point x="699" y="936" type="curve"/>
      <point x="746" y="1119" type="line"/>
      <point x="613" y="1042" type="line"/>
      <point x="516" y="675" type="line"/>
      <point x="378" y="647"/>
      <point x="246" y="608"/>
      <point x="142" y="426" type="curve" smooth="yes"/>
      <point x="88" y="332"/>
    </contour>
    <contour>
      <point x="1062" y="759"/>
      <point x="1116" y="792"/>
      <point x="1150" y="792" type="curve" smooth="yes"/>
      <point x="1186" y="792"/>
      <point x="1218" y="765"/>
      <point x="1244" y="719" type="curve"/>
      <point x="1164" y="685"/>
      <point x="1096" y="670"/>
      <point x="1018" y="670" type="curve"/>
      <point x="960" y="673" type="line"/>
    </contour>
    <contour>
      <point x="1040" y="1319" type="move" name="top"/>
    </contour>
    <contour>
      <point x="714" y="316" type="move" name="_top"/>
    </contour>
  </outline>
</glyph>
<glyph name="qafLamAlefMaksuraabove-ar" format="1">
  <advance width="0"/>
  <unicode hex="06D7"/>
  <outline>
    <contour>
      <point x="961" y="804"/>
      <point x="935" y="801"/>
      <point x="912" y="801" type="curve" smooth="yes"/>
      <point x="879" y="801"/>
      <point x="857" y="804"/>
      <point x="843" y="811" type="curve"/>
      <point x="865" y="871"/>
      <point x="909" y="929"/>
      <point x="928" y="929" type="curve" smooth="yes"/>
      <point x="965" y="929"/>
      <point x="985" y="884"/>
      <point x="981" y="805" type="curve"/>
    </contour>
    <contour>
      <point x="998" y="433" type="line"/>
      <point x="881" y="426"/>
      <point x="618" y="410"/>
      <point x="417" y="410" type="curve" smooth="yes"/>
      <point x="340" y="410"/>
      <point x="285" y="415"/>
      <point x="240" y="425" type="curve"/>
      <point x="307" y="506"/>
      <point x="434" y="533"/>
      <point x="547" y="555" type="curve"/>
      <point x="565" y="559"/>
      <point x="580" y="569"/>
      <point x="590" y="582" type="curve"/>
      <point x="590" y="581" type="line"/>
      <point x="605" y="599" type="line"/>
      <point x="630" y="555"/>
      <point x="689" y="529"/>
      <point x="767" y="529" type="curve" smooth="yes"/>
      <point x="894" y="529"/>
      <point x="1014" y="594"/>
      <point x="1049" y="683" type="curve" smooth="yes"/>
      <point x="1130" y="888"/>
      <point x="1098" y="1051"/>
      <point x="982" y="1051" type="curve" smooth="yes"/>
      <point x="897" y="1051"/>
      <point x="793" y="938"/>
      <point x="750" y="805" type="curve" smooth="yes"/>
      <point x="726" y="733"/>
      <point x="767" y="691"/>
      <point x="858" y="691" type="curve" smooth="yes"/>
      <point x="891" y="691"/>
      <point x="928" y="696"/>
      <point x="962" y="706" type="curve"/>
      <point x="948" y="666" type="line"/>
      <point x="910" y="650"/>
      <point x="868" y="642"/>
      <point x="826" y="642" type="curve" smooth="yes"/>
      <point x="750" y="642"/>
      <point x="704" y="669"/>
      <point x="699" y="718" type="curve" smooth="yes"/>
      <point x="697" y="752"/>
      <point x="715" y="830"/>
      <point x="799" y="1130" type="curve"/>
      <point x="667" y="1080" type="line"/>
      <point x="556" y="661" type="line"/>
      <point x="414" y="632"/>
      <point x="242" y="593"/>
      <point x="139" y="412" type="curve"/>
      <point x="72" y="309"/>
      <point x="219" y="297"/>
      <point x="337" y="297" type="curve" smooth="yes"/>
      <point x="404" y="297"/>
      <point x="763" y="311"/>
      <point x="948" y="322" type="curve"/>
    </contour>
    <contour>
      <point x="849" y="1338" type="move" name="top"/>
    </contour>
    <contour>
      <point x="511" y="297" type="move" name="_top"/>
    </contour>
  </outline>
</glyph>
<glyph name="endofayah-ar" format="1">
  <advance width="2901"/>
  <unicode hex="06DD"/>
  <outline>
    <contour>
      <point x="1185" y="-1049" type="line" smooth="yes"/>
      <point x="1209" y="-1049"/>
      <point x="1235" y="-1031"/>
      <point x="1242" y="-1009" type="curve" smooth="yes"/>
      <point x="1302" y="-826" type="line"/>
      <point x="1989" y="-779"/>
      <point x="2715" y="-203"/>
      <point x="2940" y="489" type="curve" smooth="yes"/>
      <point x="3316" y="1645"/>
      <point x="2168" y="1841"/>
      <point x="2156" y="1803" type="curve"/>
      <point x="2216" y="1986" type="line" smooth="yes"/>
      <point x="2223" y="2008"/>
      <point x="2209" y="2026"/>
      <point x="2185" y="2026" type="curve" smooth="yes"/>
      <point x="2032" y="2026" type="line" smooth="yes"/>
      <point x="2008" y="2026"/>
      <point x="1982" y="2008"/>
      <point x="1975" y="1986" type="curve" smooth="yes"/>
      <point x="1915" y="1804" type="line"/>
      <point x="1926" y="1838"/>
      <point x="656" y="1648"/>
      <point x="279" y="489" type="curve" smooth="yes"/>
      <point x="-96" y="-666"/>
      <point x="847" y="-827"/>
      <point x="1061" y="-827" type="curve"/>
      <point x="1001" y="-1009" type="line" smooth="yes"/>
      <point x="994" y="-1031"/>
      <point x="1008" y="-1049"/>
      <point x="1032" y="-1049" type="curve" smooth="yes"/>
    </contour>
    <contour>
      <point x="1169" y="-687"/>
      <point x="1139" y="-641"/>
      <point x="1158" y="-582" type="curve" smooth="yes"/>
      <point x="1178" y="-522"/>
      <point x="1241" y="-471"/>
      <point x="1296" y="-471" type="curve" smooth="yes"/>
      <point x="1352" y="-471"/>
      <point x="1385" y="-523"/>
      <point x="1366" y="-582" type="curve" smooth="yes"/>
      <point x="1347" y="-640"/>
      <point x="1284" y="-687"/>
      <point x="1226" y="-687" type="curve" smooth="yes"/>
    </contour>
    <contour>
      <point x="403" y="-144"/>
      <point x="363" y="157"/>
      <point x="471" y="489" type="curve" smooth="yes"/>
      <point x="580" y="824"/>
      <point x="821" y="1134"/>
      <point x="1132" y="1342" type="curve"/>
      <point x="1108" y="1327"/>
      <point x="1158" y="1290"/>
      <point x="1192" y="1290" type="curve" smooth="yes"/>
      <point x="1214" y="1290"/>
      <point x="1238" y="1298"/>
      <point x="1261" y="1313" type="curve" smooth="yes"/>
      <point x="1368" y="1380"/>
      <point x="1464" y="1413"/>
      <point x="1554" y="1413" type="curve" smooth="yes"/>
      <point x="1658" y="1413"/>
      <point x="1752" y="1370"/>
      <point x="1836" y="1283" type="curve" smooth="yes"/>
      <point x="1843" y="1275"/>
      <point x="1853" y="1271"/>
      <point x="1863" y="1271" type="curve" smooth="yes"/>
      <point x="1874" y="1271"/>
      <point x="1890" y="1276"/>
      <point x="1898" y="1283" type="curve"/>
      <point x="2039" y="1370"/>
      <point x="2160" y="1413"/>
      <point x="2264" y="1413" type="curve" smooth="yes"/>
      <point x="2355" y="1413"/>
      <point x="2433" y="1380"/>
      <point x="2494" y="1313" type="curve"/>
      <point x="2505" y="1299"/>
      <point x="2525" y="1290"/>
      <point x="2546" y="1290" type="curve" smooth="yes"/>
      <point x="2570" y="1290"/>
      <point x="2598" y="1301"/>
      <point x="2624" y="1321" type="curve" smooth="yes"/>
      <point x="2648" y="1339" type="line"/>
      <point x="2646" y="1340"/>
      <point x="2644" y="1341"/>
      <point x="2642" y="1342" type="curve"/>
      <point x="2817" y="1133"/>
      <point x="2856" y="823"/>
      <point x="2747" y="489" type="curve" smooth="yes"/>
      <point x="2639" y="157"/>
      <point x="2404" y="-144"/>
      <point x="2089" y="-353" type="curve"/>
      <point x="2089" y="-354"/>
      <point x="2102" y="-354"/>
      <point x="2103" y="-354" type="curve"/>
      <point x="2088" y="-331" type="line" smooth="yes"/>
      <point x="2073" y="-310"/>
      <point x="2053" y="-300"/>
      <point x="2030" y="-300" type="curve" smooth="yes"/>
      <point x="2010" y="-300"/>
      <point x="1983" y="-310"/>
      <point x="1961" y="-324" type="curve"/>
      <point x="1850" y="-395"/>
      <point x="1749" y="-430"/>
      <point x="1655" y="-430" type="curve" smooth="yes"/>
      <point x="1553" y="-430"/>
      <point x="1462" y="-389"/>
      <point x="1380" y="-305" type="curve"/>
      <point x="1376" y="-298"/>
      <point x="1365" y="-293"/>
      <point x="1354" y="-293" type="curve" smooth="yes"/>
      <point x="1322" y="-293"/>
      <point x="1091" y="-430"/>
      <point x="966" y="-430" type="curve" smooth="yes"/>
      <point x="874" y="-430"/>
      <point x="796" y="-395"/>
      <point x="729" y="-324" type="curve" smooth="yes"/>
      <point x="716" y="-309"/>
      <point x="696" y="-300"/>
      <point x="675" y="-300" type="curve" smooth="yes"/>
      <point x="652" y="-300"/>
      <point x="625" y="-311"/>
      <point x="599" y="-331" type="curve" smooth="yes"/>
      <point x="568" y="-354" type="line"/>
      <point x="572" y="-352"/>
      <point x="585" y="-352"/>
      <point x="583" y="-354" type="curve"/>
    </contour>
    <contour>
      <point x="1861" y="1448"/>
      <point x="1832" y="1494"/>
      <point x="1851" y="1553" type="curve" smooth="yes"/>
      <point x="1871" y="1614"/>
      <point x="1934" y="1664"/>
      <point x="1989" y="1664" type="curve" smooth="yes"/>
      <point x="2045" y="1664"/>
      <point x="2078" y="1612"/>
      <point x="2059" y="1553" type="curve" smooth="yes"/>
      <point x="2040" y="1495"/>
      <point x="1977" y="1448"/>
      <point x="1919" y="1448" type="curve" smooth="yes"/>
    </contour>
  </outline>
</glyph>
<glyph name="asteriskArt-ar" format="1">
  <advance width="1391"/>
  <unicode hex="06DE"/>
  <outline>
    <contour>
      <point x="712" y="-158" type="line"/>
      <point x="737" y="-81" type="line"/>
      <point x="1038" y="-50"/>
      <point x="1334" y="192"/>
      <point x="1430" y="489" type="curve" smooth="yes"/>
      <point x="1527" y="787"/>
      <point x="1388" y="1028"/>
      <point x="1107" y="1057" type="curve"/>
      <point x="1132" y="1134" type="line"/>
      <point x="997" y="1134" type="line"/>
      <point x="972" y="1057" type="line"/>
      <point x="671" y="1027"/>
      <point x="376" y="785"/>
      <point x="279" y="489" type="curve" smooth="yes"/>
      <point x="183" y="192"/>
      <point x="321" y="-50"/>
      <point x="602" y="-81" type="curve"/>
      <point x="577" y="-158" type="line"/>
    </contour>
    <contour>
      <point x="654" y="-28"/>
      <point x="637" y="-3"/>
      <point x="648" y="28" type="curve" smooth="yes"/>
      <point x="658" y="59"/>
      <point x="691" y="84"/>
      <point x="722" y="84" type="curve" smooth="yes"/>
      <point x="753" y="84"/>
      <point x="770" y="59"/>
      <point x="760" y="28" type="curve" smooth="yes"/>
      <point x="749" y="-3"/>
      <point x="716" y="-28"/>
      <point x="685" y="-28" type="curve" smooth="yes"/>
    </contour>
    <contour>
      <point x="612" y="108"/>
      <point x="553" y="111"/>
      <point x="497" y="160" type="curve" smooth="yes"/>
      <point x="478" y="177"/>
      <point x="449" y="175"/>
      <point x="419" y="153" type="curve"/>
      <point x="362" y="250"/>
      <point x="363" y="386"/>
      <point x="396" y="489" type="curve" smooth="yes"/>
      <point x="444" y="635"/>
      <point x="532" y="754"/>
      <point x="652" y="832" type="curve"/>
      <point x="655" y="805"/>
      <point x="668" y="795"/>
      <point x="713" y="822" type="curve"/>
      <point x="771" y="854"/>
      <point x="856" y="861"/>
      <point x="910" y="834" type="curve"/>
      <point x="815" y="539" type="line"/>
      <point x="507" y="545" type="line"/>
      <point x="471" y="435" type="line"/>
      <point x="790" y="435" type="line"/>
      <point x="693" y="149" type="line"/>
    </contour>
    <contour>
      <point x="897" y="441" type="line"/>
      <point x="1204" y="435" type="line"/>
      <point x="1240" y="545" type="line"/>
      <point x="929" y="539" type="line"/>
      <point x="1020" y="830" type="line"/>
      <point x="1101" y="869"/>
      <point x="1163" y="867"/>
      <point x="1214" y="822" type="curve" smooth="yes"/>
      <point x="1233" y="806"/>
      <point x="1265" y="808"/>
      <point x="1292" y="827" type="curve"/>
      <point x="1355" y="767"/>
      <point x="1346" y="592"/>
      <point x="1312" y="489" type="curve" smooth="yes"/>
      <point x="1270" y="360"/>
      <point x="1179" y="238"/>
      <point x="1058" y="151" type="curve"/>
      <point x="1058" y="178"/>
      <point x="1032" y="177"/>
      <point x="997" y="159" type="curve"/>
      <point x="915" y="112"/>
      <point x="853" y="108"/>
      <point x="799" y="147" type="curve"/>
    </contour>
    <contour>
      <point x="954" y="894"/>
      <point x="937" y="919"/>
      <point x="947" y="950" type="curve" smooth="yes"/>
      <point x="957" y="981"/>
      <point x="990" y="1006"/>
      <point x="1021" y="1006" type="curve" smooth="yes"/>
      <point x="1052" y="1006"/>
      <point x="1069" y="981"/>
      <point x="1059" y="950" type="curve" smooth="yes"/>
      <point x="1049" y="919"/>
      <point x="1016" y="894"/>
      <point x="985" y="894" type="curve" smooth="yes"/>
    </contour>
  </outline>
</glyph>
<glyph name="sajdah-ar" format="1">
  <advance width="961"/>
  <unicode hex="06E9"/>
  <outline>
    <contour>
      <point x="956" y="657" type="line" smooth="yes"/>
      <point x="1016" y="657"/>
      <point x="1068" y="697"/>
      <point x="1088" y="760" type="curve" smooth="yes"/>
      <point x="1160" y="981"/>
      <point x="1099" y="977"/>
      <point x="895" y="1179" type="curve"/>
      <point x="891" y="1186"/>
      <point x="880" y="1191"/>
      <point x="869" y="1191" type="curve" smooth="yes"/>
      <point x="858" y="1191"/>
      <point x="844" y="1187"/>
      <point x="834" y="1181" type="curve"/>
      <point x="501" y="979"/>
      <point x="440" y="983"/>
      <point x="367" y="760" type="curve" smooth="yes"/>
      <point x="348" y="699"/>
      <point x="377" y="657"/>
      <point x="441" y="657" type="curve" smooth="yes"/>
    </contour>
    <contour>
      <point x="723" y="6" type="line" smooth="yes"/>
      <point x="747" y="6"/>
      <point x="773" y="24"/>
      <point x="780" y="46" type="curve" smooth="yes"/>
      <point x="862" y="297" type="line" smooth="yes"/>
      <point x="869" y="319"/>
      <point x="855" y="337"/>
      <point x="831" y="337" type="curve" smooth="yes"/>
      <point x="351" y="337" type="line" smooth="yes"/>
      <point x="326" y="337"/>
      <point x="301" y="320"/>
      <point x="293" y="297" type="curve" smooth="yes"/>
      <point x="211" y="46" type="line" smooth="yes"/>
      <point x="204" y="23"/>
      <point x="218" y="6"/>
      <point x="243" y="6" type="curve" smooth="yes"/>
    </contour>
    <contour>
      <point x="850" y="395" type="line" smooth="yes"/>
      <point x="874" y="395"/>
      <point x="900" y="413"/>
      <point x="907" y="435" type="curve" smooth="yes"/>
      <point x="947" y="559" type="line" smooth="yes"/>
      <point x="954" y="581"/>
      <point x="940" y="599"/>
      <point x="916" y="599" type="curve" smooth="yes"/>
      <point x="436" y="599" type="line" smooth="yes"/>
      <point x="411" y="599"/>
      <point x="386" y="582"/>
      <point x="378" y="559" type="curve" smooth="yes"/>
      <point x="338" y="435" type="line" smooth="yes"/>
      <point x="330" y="412"/>
      <point x="345" y="395"/>
      <point x="370" y="395" type="curve" smooth="yes"/>
    </contour>
  </outline>
</glyph>
<glyph name="four-persian" format="1">
  <advance width="1206"/>
  <unicode hex="06F4"/>
  <outline>
    <contour>
      <point x="696" y="911" type="line"/>
      <point x="713" y="1219" type="line"/>
      <point x="458" y="1041" type="line"/>
      <point x="483" y="740"/>
      <point x="490" y="457"/>
      <point x="328" y="-29" type="curve"/>
      <point x="553" y="0" type="line"/>
      <point x="635" y="252"/>
      <point x="690" y="440"/>
      <point x="728" y="615" type="curve"/>
      <point x="769" y="607"/>
      <point x="818" y="602"/>
      <point x="873" y="602" type="curve" smooth="yes"/>
      <point x="974" y="602"/>
      <point x="1170" y="628"/>
      <point x="1288" y="657" type="curve"/>
      <point x="1389" y="931" type="line"/>
      <point x="1285" y="910"/>
      <point x="1104" y="880"/>
      <point x="997" y="882" type="curve" smooth="yes"/>
      <point x="949" y="883" type="line"/>
      <point x="979" y="1096" type="line"/>
      <point x="1100" y="1116"/>
      <point x="1194" y="1114"/>
      <point x="1318" y="1090" type="curve"/>
      <point x="1398" y="1334" type="line"/>
      <point x="1350" y="1357"/>
      <point x="1278" y="1370"/>
      <point x="1203" y="1370" type="curve" smooth="yes"/>
      <point x="958" y="1370"/>
      <point x="804" y="1211"/>
      <point x="722" y="913" type="curve"/>
    </contour>
  </outline>
</glyph>
<glyph name="five-persian" format="1">
  <advance width="1125"/>
  <unicode hex="06F5"/>
  <outline>
    <contour>
      <point x="850" y="-30"/>
      <point x="1056" y="157"/>
      <point x="1125" y="368" type="curve" smooth="yes"/>
      <point x="1218" y="654"/>
      <point x="1083" y="921"/>
      <point x="900" y="1261" type="curve"/>
      <point x="641" y="1007" type="line"/>
      <point x="684" y="930" type="line"/>
      <point x="526" y="779"/>
      <point x="294" y="537"/>
      <point x="208" y="271" type="curve" smooth="yes"/>
      <point x="150" y="92"/>
      <point x="199" y="-23"/>
      <point x="338" y="-23" type="curve" smooth="yes"/>
      <point x="400" y="-23"/>
      <point x="468" y="5"/>
      <point x="531" y="56" type="curve"/>
      <point x="555" y="0"/>
      <point x="608" y="-30"/>
      <point x="683" y="-30" type="curve" smooth="yes"/>
    </contour>
    <contour>
      <point x="735" y="249"/>
      <point x="722" y="288"/>
      <point x="742" y="364" type="curve"/>
      <point x="577" y="356" type="line"/>
      <point x="564" y="304"/>
      <point x="520" y="256"/>
      <point x="463" y="256" type="curve" smooth="yes"/>
      <point x="423" y="256"/>
      <point x="406" y="287"/>
      <point x="421" y="333" type="curve" smooth="yes"/>
      <point x="463" y="463"/>
      <point x="655" y="667"/>
      <point x="773" y="773" type="curve"/>
      <point x="861" y="608"/>
      <point x="921" y="427"/>
      <point x="919" y="328" type="curve"/>
      <point x="884" y="286"/>
      <point x="826" y="249"/>
      <point x="795" y="249" type="curve" smooth="yes"/>
    </contour>
  </outline>
</glyph>
<glyph name="six-persian" format="1">
  <advance width="1219"/>
  <unicode hex="06F6"/>
  <outline>
    <contour>
      <point x="1151" y="1335" type="line"/>
      <point x="1107" y="1350"/>
      <point x="1054" y="1347"/>
      <point x="999" y="1347" type="curve" smooth="yes"/>
      <point x="753" y="1347"/>
      <point x="494" y="1150"/>
      <point x="413" y="901" type="curve" smooth="yes"/>
      <point x="366" y="756"/>
      <point x="445" y="609"/>
      <point x="611" y="522" type="curve"/>
      <point x="457" y="365"/>
      <point x="319" y="205"/>
      <point x="205" y="80" type="curve"/>
      <point x="336" y="-70" type="line"/>
      <point x="591" y="185"/>
      <point x="888" y="522"/>
      <point x="1375" y="849" type="curve"/>
      <point x="1394" y="1137" type="line"/>
      <point x="1176" y="1001"/>
      <point x="958" y="805"/>
      <point x="856" y="724" type="curve"/>
      <point x="652" y="933" type="line"/>
      <point x="740" y="1031"/>
      <point x="864" y="1084"/>
      <point x="976" y="1084" type="curve" smooth="yes"/>
      <point x="1016" y="1084"/>
      <point x="1042" y="1081"/>
      <point x="1063" y="1074" type="curve"/>
    </contour>
  </outline>
</glyph>
<glyph name="hyphentwo" format="1">
  <advance width="831"/>
  <unicode hex="2010"/>
  <outline>
    <contour>
      <point x="839" y="393" type="line"/>
      <point x="901" y="584" type="line"/>
      <point x="310" y="584" type="line"/>
      <point x="248" y="393" type="line"/>
    </contour>
  </outline>
</glyph>
<glyph name="bullet" format="1">
  <advance width="1015"/>
  <unicode hex="2022"/>
  <outline>
    <contour>
      <point x="756" y="105"/>
      <point x="985" y="277"/>
      <point x="1054" y="490" type="curve" smooth="yes"/>
      <point x="1123" y="701"/>
      <point x="1005" y="873"/>
      <point x="792" y="873" type="curve" smooth="yes"/>
      <point x="578" y="873"/>
      <point x="348" y="701"/>
      <point x="279" y="490" type="curve" smooth="yes"/>
      <point x="210" y="277"/>
      <point x="327" y="105"/>
      <point x="542" y="105" type="curve" smooth="yes"/>
    </contour>
  </outline>
</glyph>
<glyph name="minus" format="1">
  <advance width="1282"/>
  <unicode hex="2212"/>
  <outline>
    <contour>
      <point x="1288" y="387" type="line"/>
      <point x="1354" y="590" type="line"/>
      <point x="312" y="590" type="line"/>
      <point x="246" y="387" type="line"/>
    </contour>
  </outline>
</glyph>
<glyph name="dottedCircle" format="1">
  <advance width="1093"/>
  <unicode hex="25CC"/>
  <outline>
    <contour>
      <point x="840" y="640"/>
      <point x="871" y="603"/>
      <point x="917" y="603" type="curve" smooth="yes"/>
      <point x="959" y="603"/>
      <point x="1016" y="649"/>
      <point x="1030" y="692" type="curve" smooth="yes"/>
      <point x="1043" y="732"/>
      <point x="1011" y="770"/>
      <point x="966" y="770" type="curve" smooth="yes"/>
      <point x="923" y="770"/>
      <point x="868" y="726"/>
      <point x="853" y="681" type="curve" smooth="yes"/>
    </contour>
    <contour>
      <point x="307" y="49"/>
      <point x="338" y="12"/>
      <point x="382" y="12" type="curve" smooth="yes"/>
      <point x="426" y="12"/>
      <point x="479" y="55"/>
      <point x="494" y="102" type="curve" smooth="yes"/>
      <point x="506" y="140"/>
      <point x="475" y="177"/>
      <point x="432" y="177" type="curve" smooth="yes"/>
      <point x="389" y="177"/>
      <point x="334" y="134"/>
      <point x="319" y="88" type="curve" smooth="yes"/>
    </contour>
    <contour>
      <point x="338" y="138"/>
      <point x="396" y="177"/>
      <point x="410" y="218" type="curve" smooth="yes"/>
      <point x="424" y="261"/>
      <point x="397" y="302"/>
      <point x="354" y="302" type="curve" smooth="yes"/>
      <point x="309" y="302"/>
      <point x="249" y="263"/>
      <point x="236" y="223" type="curve" smooth="yes"/>
      <point x="222" y="179"/>
      <point x="247" y="138"/>
      <point x="291" y="138" type="curve" smooth="yes"/>
    </contour>
    <contour>
      <point x="589" y="-31"/>
      <point x="630" y="-2"/>
      <point x="646" y="47" type="curve" smooth="yes"/>
      <point x="662" y="95"/>
      <point x="638" y="126"/>
      <point x="587" y="126" type="curve" smooth="yes"/>
      <point x="534" y="126"/>
      <point x="492" y="97"/>
      <point x="476" y="47" type="curve" smooth="yes"/>
      <point x="460" y="-2"/>
      <point x="483" y="-31"/>
      <point x="536" y="-31" type="curve" smooth="yes"/>
    </contour>
    <contour>
      <point x="360" y="311"/>
      <point x="401" y="340"/>
      <point x="418" y="391" type="curve" smooth="yes"/>
      <point x="433" y="438"/>
      <point x="409" y="469"/>
      <point x="357" y="469" type="curve" smooth="yes"/>
      <point x="304" y="469"/>
      <point x="263" y="440"/>
      <point x="247" y="391" type="curve" smooth="yes"/>
      <point x="231" y="341"/>
      <point x="253" y="311"/>
      <point x="306" y="311" type="curve" smooth="yes"/>
    </contour>
    <contour>
      <point x="329" y="515"/>
      <point x="359" y="479"/>
      <point x="405" y="479" type="curve" smooth="yes"/>
      <point x="448" y="479"/>
      <point x="504" y="523"/>
      <point x="518" y="568" type="curve" smooth="yes"/>
      <point x="531" y="608"/>
      <point x="500" y="645"/>
      <point x="456" y="645" type="curve" smooth="yes"/>
      <point x="413" y="645"/>
      <point x="357" y="601"/>
      <point x="342" y="556" type="curve" smooth="yes"/>
    </contour>
    <contour>
      <point x="761" y="11"/>
      <point x="821" y="50"/>
      <point x="834" y="90" type="curve" smooth="yes"/>
      <point x="848" y="133"/>
      <point x="822" y="175"/>
      <point x="781" y="175" type="curve" smooth="yes"/>
      <point x="735" y="175"/>
      <point x="676" y="136"/>
      <point x="663" y="96" type="curve" smooth="yes"/>
      <point x="648" y="51"/>
      <point x="672" y="11"/>
      <point x="715" y="11" type="curve" smooth="yes"/>
    </contour>
    <contour>
      <point x="814" y="174"/>
      <point x="846" y="136"/>
      <point x="891" y="136" type="curve" smooth="yes"/>
      <point x="934" y="136"/>
      <point x="988" y="180"/>
      <point x="1003" y="225" type="curve" smooth="yes"/>
      <point x="1016" y="264"/>
      <point x="985" y="301"/>
      <point x="940" y="301" type="curve" smooth="yes"/>
      <point x="897" y="301"/>
      <point x="841" y="257"/>
      <point x="827" y="212" type="curve" smooth="yes"/>
    </contour>
    <contour>
      <point x="610" y="607"/>
      <point x="671" y="647"/>
      <point x="684" y="686" type="curve" smooth="yes"/>
      <point x="697" y="728"/>
      <point x="670" y="770"/>
      <point x="628" y="770" type="curve" smooth="yes"/>
      <point x="581" y="770"/>
      <point x="524" y="731"/>
      <point x="511" y="690" type="curve" smooth="yes"/>
      <point x="497" y="647"/>
      <point x="523" y="607"/>
      <point x="565" y="607" type="curve" smooth="yes"/>
    </contour>
    <contour>
      <point x="1043" y="311"/>
      <point x="1084" y="341"/>
      <point x="1100" y="391" type="curve" smooth="yes"/>
      <point x="1115" y="439"/>
      <point x="1092" y="469"/>
      <point x="1041" y="469" type="curve" smooth="yes"/>
      <point x="988" y="469"/>
      <point x="947" y="440"/>
      <point x="931" y="391" type="curve" smooth="yes"/>
      <point x="915" y="341"/>
      <point x="937" y="311"/>
      <point x="990" y="311" type="curve" smooth="yes"/>
    </contour>
    <contour>
      <point x="812" y="656"/>
      <point x="853" y="685"/>
      <point x="870" y="735" type="curve" smooth="yes"/>
      <point x="885" y="783"/>
      <point x="861" y="814"/>
      <point x="810" y="814" type="curve" smooth="yes"/>
      <point x="757" y="814"/>
      <point x="716" y="785"/>
      <point x="700" y="735" type="curve" smooth="yes"/>
      <point x="683" y="685"/>
      <point x="706" y="656"/>
      <point x="759" y="656" type="curve" smooth="yes"/>
    </contour>
    <contour>
      <point x="1040" y="480"/>
      <point x="1098" y="519"/>
      <point x="1111" y="559" type="curve" smooth="yes"/>
      <point x="1126" y="603"/>
      <point x="1100" y="642"/>
      <point x="1057" y="642" type="curve" smooth="yes"/>
      <point x="1010" y="642"/>
      <point x="953" y="604"/>
      <point x="940" y="564" type="curve" smooth="yes"/>
      <point x="926" y="520"/>
      <point x="951" y="480"/>
      <point x="993" y="480" type="curve" smooth="yes"/>
    </contour>
  </outline>
</glyph>
<glyph name="whiteStar.circled" format="1">
  <advance width="1016"/>
  <unicode hex="272A"/>
  <outline>
    <contour>
      <point x="211" y="281"/>
      <point x="331" y="113"/>
      <point x="545" y="113" type="curve" smooth="yes"/>
      <point x="759" y="113"/>
      <point x="987" y="281"/>
      <point x="1055" y="488" type="curve" smooth="yes"/>
      <point x="1122" y="695"/>
      <point x="1002" y="865"/>
      <point x="789" y="865" type="curve" smooth="yes"/>
      <point x="576" y="865"/>
      <point x="346" y="695"/>
      <point x="279" y="488" type="curve" smooth="yes"/>
    </contour>
    <contour>
      <point x="641" y="564" type="line"/>
      <point x="767" y="781" type="line"/>
      <point x="763" y="563" type="line"/>
      <point x="1012" y="575" type="line"/>
      <point x="758" y="440" type="line"/>
      <point x="773" y="225" type="line"/>
      <point x="633" y="366" type="line"/>
      <point x="409" y="218" type="line"/>
      <point x="561" y="440" type="line"/>
      <point x="389" y="571" type="line"/>
    </contour>
  </outline>
</glyph>
<glyph name="alefWasla-ar.fina" format="1">
  <advance width="725"/>
  <unicode hex="FB51"/>
  <outline>
    <component base="wasla-ar" xOffset="175" yOffset="558"/>
    <component base="alef-ar.fina.short"/>
    <contour>
      <point x="1033" y="2040" type="move" name="top"/>
    </contour>
  </outline>
</glyph>
<glyph name="peh-ar.fina" format="1">
  <advance width="2002"/>
  <unicode hex="FB57"/>
  <outline>
    <component base="behDotless-ar.fina"/>
    <component base="threedotsdownbelow-ar" xOffset="578" yOffset="-101"/>
    <contour>
      <point x="1159" y="800" type="move" name="top"/>
    </contour>
  </outline>
</glyph>
<glyph name="veh-ar.fina" format="1">
  <advance width="2073"/>
  <unicode hex="FB6B"/>
  <outline>
    <component base="fehDotless-ar.fina"/>
    <component base="threedotsupabove-ar" xOffset="1534" yOffset="665"/>
    <contour>
      <point x="563" y="-248" type="move" name="bottom"/>
    </contour>
  </outline>
</glyph>
<glyph name="tcheh-ar.medi" format="1">
  <advance width="1574"/>
  <unicode hex="FB7D"/>
  <outline>
    <component base="hah-ar.medi"/>
    <component base="threedotsdownbelow-ar" xOffset="639" yOffset="165"/>
    <contour>
      <point x="811" y="1074" type="move" name="top"/>
    </contour>
  </outline>
</glyph>
<glyph name="jeh-ar.fina" format="1">
  <advance width="1159"/>
  <unicode hex="FB8B"/>
  <outline>
    <component base="reh-ar.fina"/>
    <component base="threedotsupabove-ar" xOffset="489" yOffset="364"/>
    <contour>
      <point x="-19" y="-690" type="move" name="bottom"/>
    </contour>
  </outline>
</glyph>
<glyph name="keheh-ar.fina" format="1">
  <advance width="1881"/>
  <unicode hex="FB8F"/>
  <outline>
    <contour>
      <point x="1919" y="273" type="line" smooth="yes"/>
      <point x="1818" y="273"/>
      <point x="1789" y="298"/>
      <point x="1769" y="403" type="curve" smooth="yes"/>
      <point x="1727" y="623"/>
      <point x="1720" y="861"/>
      <point x="1503" y="1063" type="curve"/>
      <point x="2216" y="1265" type="line"/>
      <point x="2319" y="1542" type="line"/>
      <point x="1438" y="1280" type="line"/>
      <point x="1179" y="925" type="line"/>
      <point x="1457" y="754"/>
      <point x="1505" y="481"/>
      <point x="1519" y="332" type="curve"/>
      <point x="1374" y="290"/>
      <point x="1148" y="235"/>
      <point x="893" y="235" type="curve" smooth="yes"/>
      <point x="602" y="235"/>
      <point x="483" y="311"/>
      <point x="531" y="459" type="curve" smooth="yes"/>
      <point x="537" y="477"/>
      <point x="542" y="490"/>
      <point x="609" y="648" type="curve"/>
      <point x="412" y="665" type="line"/>
      <point x="327" y="476"/>
      <point x="319" y="449"/>
      <point x="303" y="400" type="curve" smooth="yes"/>
      <point x="204" y="96"/>
      <point x="341" y="-39"/>
      <point x="743" y="-39" type="curve" smooth="yes"/>
      <point x="1034" y="-39"/>
      <point x="1349" y="27"/>
      <point x="1517" y="87" type="curve" smooth="yes"/>
      <point x="1545" y="97"/>
      <point x="1568" y="113"/>
      <point x="1603" y="152" type="curve"/>
      <point x="1653" y="51"/>
      <point x="1730" y="0"/>
      <point x="1830" y="0" type="curve" smooth="yes"/>
      <point x="1912" y="0" type="line"/>
      <point x="1967" y="39"/>
      <point x="2005" y="86"/>
      <point x="2021" y="137" type="curve" smooth="yes"/>
      <point x="2038" y="188"/>
      <point x="2031" y="233"/>
      <point x="2001" y="273" type="curve"/>
    </contour>
    <contour>
      <point x="961" y="1082" type="move" name="top"/>
    </contour>
    <contour>
      <point x="676" y="-244" type="move" name="bottom"/>
    </contour>
    <contour>
      <point x="2039" y="1045" type="move" name="ring"/>
    </contour>
  </outline>
</glyph>
<glyph name="gaf-ar.fina" format="1">
  <advance width="1882"/>
  <unicode hex="FB93"/>
  <outline>
    <contour>
      <point x="1652" y="1579" type="line"/>
      <point x="1540" y="1361" type="line"/>
      <point x="2178" y="1542" type="line"/>
      <point x="2262" y="1752" type="line"/>
    </contour>
    <contour>
      <point x="1918" y="273" type="line" smooth="yes"/>
      <point x="1817" y="273"/>
      <point x="1788" y="298"/>
      <point x="1768" y="403" type="curve" smooth="yes"/>
      <point x="1727" y="623"/>
      <point x="1719" y="862"/>
      <point x="1501" y="1063" type="curve"/>
      <point x="2216" y="1265" type="line"/>
      <point x="2320" y="1542" type="line"/>
      <point x="1437" y="1280" type="line"/>
      <point x="1179" y="925" type="line"/>
      <point x="1457" y="755"/>
      <point x="1506" y="481"/>
      <point x="1519" y="332" type="curve"/>
      <point x="1375" y="290"/>
      <point x="1148" y="235"/>
      <point x="894" y="235" type="curve" smooth="yes"/>
      <point x="602" y="235"/>
      <point x="483" y="312"/>
      <point x="531" y="460" type="curve" smooth="yes"/>
      <point x="535" y="472"/>
      <point x="552" y="513"/>
      <point x="609" y="648" type="curve"/>
      <point x="412" y="665" type="line"/>
      <point x="329" y="475"/>
      <point x="319" y="452"/>
      <point x="303" y="401" type="curve" smooth="yes"/>
      <point x="204" y="96"/>
      <point x="340" y="-38"/>
      <point x="747" y="-38" type="curve" smooth="yes"/>
      <point x="974" y="-38"/>
      <point x="1220" y="7"/>
      <point x="1389" y="49" type="curve" smooth="yes"/>
      <point x="1510" y="79"/>
      <point x="1560" y="116"/>
      <point x="1601" y="156" type="curve"/>
      <point x="1650" y="53"/>
      <point x="1727" y="0"/>
      <point x="1830" y="0" type="curve" smooth="yes"/>
      <point x="1913" y="0" type="line"/>
      <point x="1968" y="39"/>
      <point x="2005" y="86"/>
      <point x="2022" y="137" type="curve" smooth="yes"/>
      <point x="2039" y="188"/>
      <point x="2031" y="233"/>
      <point x="2001" y="273" type="curve"/>
    </contour>
    <contour>
      <point x="974" y="1103" type="move" name="top"/>
    </contour>
    <contour>
      <point x="683" y="-235" type="move" name="bottom"/>
    </contour>
  </outline>
</glyph>
<glyph name="gaf-ar.init" format="1">
  <advance width="868"/>
  <unicode hex="FB94"/>
  <outline>
    <contour>
      <point x="753" y="1579" type="line"/>
      <point x="641" y="1361" type="line"/>
      <point x="1193" y="1520" type="line"/>
      <point x="1277" y="1731" type="line"/>
    </contour>
    <contour>
      <point x="533" y="1279" type="line"/>
      <point x="284" y="926" type="line"/>
      <point x="568" y="747"/>
      <point x="644" y="499"/>
      <point x="647" y="348" type="curve"/>
      <point x="478" y="284"/>
      <point x="313" y="273"/>
      <point x="133" y="273" type="curve" smooth="yes"/>
      <point x="59" y="273" type="line" smooth="yes"/>
      <point x="-13" y="273"/>
      <point x="-90" y="212"/>
      <point x="-115" y="137" type="curve" smooth="yes"/>
      <point x="-139" y="61"/>
      <point x="-101" y="0"/>
      <point x="-29" y="0" type="curve" smooth="yes"/>
      <point x="45" y="0" type="line" smooth="yes"/>
      <point x="244" y="0"/>
      <point x="505" y="35"/>
      <point x="679" y="133" type="curve" smooth="yes"/>
      <point x="699" y="144"/>
      <point x="711" y="154"/>
      <point x="723" y="169" type="curve" smooth="yes"/>
      <point x="785" y="247"/>
      <point x="842" y="337"/>
      <point x="862" y="397" type="curve" smooth="yes"/>
      <point x="945" y="653"/>
      <point x="796" y="922"/>
      <point x="612" y="1067" type="curve"/>
      <point x="1232" y="1243" type="line"/>
      <point x="1332" y="1520" type="line"/>
    </contour>
    <contour>
      <point x="1092" y="1924" type="move" name="top"/>
    </contour>
    <contour>
      <point x="246" y="-207" type="move" name="bottom"/>
    </contour>
  </outline>
</glyph>
<glyph name="gaf-ar.medi" format="1">
  <advance width="1013"/>
  <unicode hex="FB95"/>
  <outline>
    <contour>
      <point x="785" y="1579" type="line"/>
      <point x="670" y="1361" type="line"/>
      <point x="1311" y="1542" type="line"/>
      <point x="1395" y="1753" type="line"/>
    </contour>
    <contour>
      <point x="1051" y="273" type="line" smooth="yes"/>
      <point x="953" y="273"/>
      <point x="923" y="300"/>
      <point x="902" y="407" type="curve" smooth="yes"/>
      <point x="861" y="627"/>
      <point x="850" y="861"/>
      <point x="637" y="1063" type="curve"/>
      <point x="1348" y="1265" type="line"/>
      <point x="1450" y="1543" type="line"/>
      <point x="572" y="1281" type="line"/>
      <point x="312" y="925" type="line"/>
      <point x="592" y="754"/>
      <point x="640" y="482"/>
      <point x="652" y="335" type="curve"/>
      <point x="522" y="294"/>
      <point x="344" y="273"/>
      <point x="133" y="273" type="curve" smooth="yes"/>
      <point x="59" y="273" type="line" smooth="yes"/>
      <point x="-13" y="273"/>
      <point x="-91" y="212"/>
      <point x="-115" y="137" type="curve" smooth="yes"/>
      <point x="-140" y="61"/>
      <point x="-102" y="0"/>
      <point x="-30" y="0" type="curve" smooth="yes"/>
      <point x="44" y="0" type="line" smooth="yes"/>
      <point x="213" y="0"/>
      <point x="430" y="32"/>
      <point x="596" y="84" type="curve" smooth="yes"/>
      <point x="666" y="106"/>
      <point x="698" y="122"/>
      <point x="736" y="158" type="curve"/>
      <point x="786" y="54"/>
      <point x="862" y="0"/>
      <point x="962" y="0" type="curve" smooth="yes"/>
      <point x="1043" y="0" type="line"/>
      <point x="1099" y="39"/>
      <point x="1136" y="86"/>
      <point x="1153" y="137" type="curve" smooth="yes"/>
      <point x="1169" y="188"/>
      <point x="1162" y="233"/>
      <point x="1132" y="273" type="curve"/>
    </contour>
    <contour>
      <point x="1167" y="1933" type="move" name="top"/>
    </contour>
    <contour>
      <point x="299" y="-198" type="move" name="bottom"/>
    </contour>
  </outline>
</glyph>
<glyph name="noonghunna-ar.fina" format="1">
  <advance width="1675"/>
  <unicode hex="FB9F"/>
  <outline>
    <contour>
      <point x="1706" y="273" type="line" smooth="yes"/>
      <point x="1535" y="273"/>
      <point x="1487" y="307"/>
      <point x="1508" y="406" type="curve" smooth="yes"/>
      <point x="1548" y="594" type="line"/>
      <point x="1253" y="454" type="line"/>
      <point x="1158" y="-107" type="line"/>
      <point x="920" y="-188"/>
      <point x="771" y="-216"/>
      <point x="587" y="-216" type="curve" smooth="yes"/>
      <point x="412" y="-216"/>
      <point x="351" y="-147"/>
      <point x="397" y="-4" type="curve" smooth="yes"/>
      <point x="414" y="48"/>
      <point x="429" y="75"/>
      <point x="525" y="255" type="curve"/>
      <point x="324" y="292" type="line"/>
      <point x="201" y="55"/>
      <point x="179" y="16"/>
      <point x="148" y="-77" type="curve" smooth="yes"/>
      <point x="58" y="-355"/>
      <point x="173" y="-510"/>
      <point x="466" y="-510" type="curve" smooth="yes"/>
      <point x="690" y="-510"/>
      <point x="1115" y="-402"/>
      <point x="1292" y="-240" type="curve" smooth="yes"/>
      <point x="1372" y="-167"/>
      <point x="1399" y="-86"/>
      <point x="1427" y="29" type="curve"/>
      <point x="1466" y="8"/>
      <point x="1523" y="0"/>
      <point x="1617" y="0" type="curve" smooth="yes"/>
      <point x="1705" y="0" type="line"/>
      <point x="1761" y="39"/>
      <point x="1798" y="86"/>
      <point x="1815" y="137" type="curve" smooth="yes"/>
      <point x="1831" y="188"/>
      <point x="1824" y="233"/>
      <point x="1794" y="273" type="curve"/>
    </contour>
    <contour>
      <point x="893" y="495" type="move" name="top"/>
    </contour>
    <contour>
      <point x="416" y="-715" type="move" name="bottom"/>
    </contour>
    <contour>
      <point x="242" y="-680" type="move" name="ring"/>
    </contour>
  </outline>
</glyph>
<glyph name="hehgoal-ar.fina" format="1">
  <advance width="1233"/>
  <unicode hex="FBA7"/>
  <outline>
    <contour>
      <point x="1262" y="273" type="line" smooth="yes"/>
      <point x="1159" y="273"/>
      <point x="1101" y="314"/>
      <point x="1038" y="364" type="curve" smooth="yes"/>
      <point x="969" y="419"/>
      <point x="904" y="494"/>
      <point x="819" y="494" type="curve" smooth="yes"/>
      <point x="713" y="494"/>
      <point x="583" y="404"/>
      <point x="197" y="75" type="curve"/>
      <point x="285" y="-60" type="line"/>
      <point x="434" y="63"/>
      <point x="674" y="245"/>
      <point x="681" y="245" type="curve" smooth="yes"/>
      <point x="727" y="245"/>
      <point x="878" y="0"/>
      <point x="1119" y="0" type="curve" smooth="yes"/>
      <point x="1263" y="0" type="line"/>
      <point x="1319" y="39"/>
      <point x="1356" y="86"/>
      <point x="1373" y="137" type="curve" smooth="yes"/>
      <point x="1390" y="188"/>
      <point x="1382" y="233"/>
      <point x="1352" y="273" type="curve"/>
    </contour>
    <contour>
      <point x="886" y="703" type="move" name="top"/>
    </contour>
    <contour>
      <point x="540" y="-221" type="move" name="bottom"/>
    </contour>
  </outline>
</glyph>
<glyph name="hehgoal-ar.init" format="1">
  <advance width="788"/>
  <unicode hex="FBA8"/>
  <outline>
    <component base="behDotless-ar.init"/>
    <component base="comma-ar" xOffset="-272" yOffset="-734"/>
    <contour>
      <point x="-106" y="-980" type="move" name="bottom"/>
    </contour>
  </outline>
</glyph>
<glyph name="hehgoal-ar.medi" format="1">
  <advance width="1222"/>
  <unicode hex="FBA9"/>
  <outline>
    <contour>
      <point x="1281" y="273" type="line" smooth="yes"/>
      <point x="932" y="273"/>
      <point x="735" y="195"/>
      <point x="611" y="-5" type="curve"/>
      <point x="621" y="79"/>
      <point x="641" y="165"/>
      <point x="670" y="255" type="curve" smooth="yes"/>
      <point x="683" y="294"/>
      <point x="697" y="329"/>
      <point x="792" y="566" type="curve"/>
      <point x="582" y="560" type="line"/>
      <point x="510" y="396" type="line" smooth="yes"/>
      <point x="454" y="269"/>
      <point x="264" y="273"/>
      <point x="138" y="273" type="curve" smooth="yes"/>
      <point x="59" y="273" type="line" smooth="yes"/>
      <point x="-13" y="273"/>
      <point x="-91" y="212"/>
      <point x="-115" y="137" type="curve" smooth="yes"/>
      <point x="-140" y="61"/>
      <point x="-102" y="0"/>
      <point x="-30" y="0" type="curve" smooth="yes"/>
      <point x="42" y="0" type="line" smooth="yes"/>
      <point x="175" y="0"/>
      <point x="291" y="25"/>
      <point x="394" y="78" type="curve"/>
      <point x="314" y="-232"/>
      <point x="417" y="-509"/>
      <point x="452" y="-618" type="curve"/>
      <point x="771" y="-347" type="line"/>
      <point x="751" y="-247"/>
      <point x="737" y="-163"/>
      <point x="756" y="-62" type="curve"/>
      <point x="883" y="-16"/>
      <point x="1000" y="0"/>
      <point x="1192" y="0" type="curve" smooth="yes"/>
      <point x="1252" y="0" type="line"/>
      <point x="1308" y="39"/>
      <point x="1345" y="86"/>
      <point x="1362" y="137" type="curve" smooth="yes"/>
      <point x="1379" y="188"/>
      <point x="1371" y="233"/>
      <point x="1341" y="273" type="curve"/>
    </contour>
    <contour>
      <point x="754" y="773" type="move" name="top"/>
    </contour>
    <contour>
      <point x="406" y="-818" type="move" name="bottom"/>
    </contour>
  </outline>
</glyph>
<glyph name="hehDoachashmee-ar.fina" format="1">
  <advance width="1571"/>
  <unicode hex="FBAB"/>
  <outline>
    <contour>
      <point x="1519" y="273" type="line" smooth="yes"/>
      <point x="1470" y="273"/>
      <point x="1417" y="273"/>
      <point x="1372" y="274" type="curve"/>
      <point x="1551" y="630"/>
      <point x="1457" y="860"/>
      <point x="1012" y="1200" type="curve"/>
      <point x="879" y="990" type="line"/>
      <point x="445" y="827"/>
      <point x="170" y="317"/>
      <point x="418" y="153" type="curve"/>
      <point x="147" y="-80" type="line"/>
      <point x="325" y="-175"/>
      <point x="388" y="-170"/>
      <point x="528" y="-33" type="curve" smooth="yes"/>
      <point x="678" y="115" type="line"/>
      <point x="1125" y="16"/>
      <point x="1403" y="0"/>
      <point x="1542" y="0" type="curve" smooth="yes"/>
      <point x="1602" y="0" type="line"/>
      <point x="1657" y="39"/>
      <point x="1694" y="86"/>
      <point x="1711" y="137" type="curve" smooth="yes"/>
      <point x="1728" y="188"/>
      <point x="1720" y="233"/>
      <point x="1690" y="273" type="curve"/>
    </contour>
    <contour>
      <point x="568" y="407"/>
      <point x="531" y="455"/>
      <point x="549" y="510" type="curve" smooth="yes"/>
      <point x="588" y="629"/>
      <point x="732" y="739"/>
      <point x="832" y="725" type="curve" smooth="yes"/>
      <point x="874" y="719"/>
      <point x="903" y="703"/>
      <point x="918" y="674" type="curve"/>
      <point x="654" y="378" type="line"/>
    </contour>
    <contour>
      <point x="1090" y="635" type="line"/>
      <point x="1162" y="565"/>
      <point x="1247" y="476"/>
      <point x="1201" y="334" type="curve"/>
      <point x="918" y="376" type="line"/>
    </contour>
    <contour>
      <point x="1091" y="1407" type="move" name="top"/>
    </contour>
    <contour>
      <point x="579" y="-341" type="move" name="bottom"/>
    </contour>
  </outline>
</glyph>
<glyph name="hehDoachashmee-ar.medi" format="1">
  <advance width="1514"/>
  <unicode hex="FBAD"/>
  <outline>
    <contour>
      <point x="1479" y="273" type="line" smooth="yes"/>
      <point x="1430" y="273"/>
      <point x="1357" y="279"/>
      <point x="1304" y="282" type="curve"/>
      <point x="1487" y="645"/>
      <point x="1389" y="896"/>
      <point x="952" y="1230" type="curve"/>
      <point x="819" y="1020" type="line"/>
      <point x="466" y="888"/>
      <point x="183" y="502"/>
      <point x="269" y="284" type="curve"/>
      <point x="225" y="277"/>
      <point x="174" y="273"/>
      <point x="133" y="273" type="curve" smooth="yes"/>
      <point x="59" y="273" type="line" smooth="yes"/>
      <point x="-13" y="273"/>
      <point x="-91" y="212"/>
      <point x="-115" y="137" type="curve" smooth="yes"/>
      <point x="-140" y="61"/>
      <point x="-102" y="0"/>
      <point x="-30" y="0" type="curve" smooth="yes"/>
      <point x="44" y="0" type="line" smooth="yes"/>
      <point x="160" y="0"/>
      <point x="370" y="58"/>
      <point x="584" y="148" type="curve"/>
      <point x="1060" y="-7"/>
      <point x="1342" y="0"/>
      <point x="1481" y="0" type="curve" smooth="yes"/>
      <point x="1544" y="0" type="line"/>
      <point x="1600" y="39"/>
      <point x="1637" y="86"/>
      <point x="1654" y="137" type="curve" smooth="yes"/>
      <point x="1670" y="188"/>
      <point x="1663" y="233"/>
      <point x="1633" y="273" type="curve"/>
    </contour>
    <contour>
      <point x="507" y="437"/>
      <point x="471" y="485"/>
      <point x="489" y="540" type="curve" smooth="yes"/>
      <point x="527" y="659"/>
      <point x="671" y="769"/>
      <point x="771" y="755" type="curve" smooth="yes"/>
      <point x="814" y="749"/>
      <point x="842" y="733"/>
      <point x="857" y="704" type="curve"/>
      <point x="594" y="408" type="line"/>
    </contour>
    <contour>
      <point x="1029" y="664" type="line"/>
      <point x="1126" y="560"/>
      <point x="1162" y="437"/>
      <point x="1126" y="320" type="curve"/>
      <point x="855" y="402" type="line"/>
    </contour>
    <contour>
      <point x="1040" y="1448" type="move" name="top"/>
    </contour>
    <contour>
      <point x="432" y="-205" type="move" name="bottom"/>
    </contour>
  </outline>
</glyph>
<glyph name="yehbarree-ar.fina" format="1">
  <advance width="1030"/>
  <unicode hex="FBAF"/>
  <outline>
    <contour>
      <point x="419" y="-220" type="line" smooth="yes"/>
      <point x="348" y="-220"/>
      <point x="317" y="-207"/>
      <point x="321" y="-192" type="curve" smooth="yes"/>
      <point x="351" y="-101"/>
      <point x="578" y="0"/>
      <point x="755" y="0" type="curve" smooth="yes"/>
      <point x="1060" y="0" type="line"/>
      <point x="1115" y="39"/>
      <point x="1153" y="86"/>
      <point x="1169" y="137" type="curve" smooth="yes"/>
      <point x="1186" y="188"/>
      <point x="1178" y="233"/>
      <point x="1148" y="273" type="curve"/>
      <point x="862" y="273" type="line" smooth="yes"/>
      <point x="556" y="273"/>
      <point x="173" y="0"/>
      <point x="80" y="-285" type="curve" smooth="yes"/>
      <point x="38" y="-416"/>
      <point x="112" y="-487"/>
      <point x="285" y="-487" type="curve" smooth="yes"/>
      <point x="1602" y="-487" type="line"/>
      <point x="1656" y="-315"/>
      <point x="1701" y="-221"/>
      <point x="1528" y="-221" type="curve" smooth="yes"/>
    </contour>
    <contour>
      <point x="955" y="483" type="move" name="top"/>
    </contour>
    <contour>
      <point x="516" y="-694" type="move" name="bottom"/>
    </contour>
  </outline>
</glyph>
<glyph name="dotabove-ar" format="1">
  <advance width="0"/>
  <unicode hex="FBB2"/>
  <outline>
    <component base="dotcenter-ar" xOffset="97" yOffset="297"/>
    <contour>
      <point x="571" y="1299" type="move" name="top"/>
    </contour>
    <contour>
      <point x="441" y="718" type="move" name="_top"/>
    </contour>
  </outline>
</glyph>
<glyph name="threedotsupbelow-ar" format="1">
  <advance width="0"/>
  <unicode hex="FBB7"/>
  <outline>
    <component base="threedotsupabove-ar" xOffset="-414" yOffset="-1274"/>
    <contour>
      <point x="36" y="-867" type="move" name="_bottom"/>
    </contour>
    <contour>
      <point x="223" y="-95" type="move" name="bottom"/>
    </contour>
  </outline>
</glyph>
<glyph name="threedotsdownabove-ar" format="1">
  <advance width="0"/>
  <unicode hex="FBB8"/>
  <outline>
    <component base="threedotsdowncenter-ar" xOffset="106" yOffset="328"/>
    <contour>
      <point x="753" y="1338" type="move" name="top"/>
    </contour>
    <contour>
      <point x="563" y="568" type="move" name="_top"/>
    </contour>
  </outline>
</glyph>
<glyph name="fourdotsabove-ar" format="1">
  <advance width="0"/>
  <unicode hex="FBBA"/>
  <outline>
    <component base="dotcenter-ar" xOffset="102" yOffset="315" xScale="0.772" yScale="0.772"/>
    <component base="dotcenter-ar" xOffset="202" yOffset="589" xScale="0.772" yScale="0.772"/>
    <component base="dotcenter-ar" xOffset="395" yOffset="339" xScale="0.772" yScale="0.772"/>
    <component base="dotcenter-ar" xOffset="495" yOffset="603" xScale="0.772" yScale="0.772"/>
    <contour>
      <point x="727" y="1425" type="move" name="top"/>
    </contour>
    <contour>
      <point x="493" y="614" type="move" name="_top"/>
    </contour>
  </outline>
</glyph>
<glyph name="ng-ar.fina" format="1">
  <advance width="1599"/>
  <unicode hex="FBD4"/>
  <outline>
    <component base="kaf-ar.fina"/>
    <component base="threedotsupabove-ar" xOffset="480" yOffset="409"/>
    <contour>
      <point x="608" y="-240" type="move" name="bottom"/>
    </contour>
  </outline>
</glyph>
<glyph name="ve-ar.fina" format="1">
  <advance width="1129"/>
  <unicode hex="FBDF"/>
  <outline>
    <component base="waw-ar.fina"/>
    <component base="threedotsupabove-ar" xOffset="441" yOffset="494"/>
    <contour>
      <point x="14" y="-675" type="move" name="bottom"/>
    </contour>
  </outline>
</glyph>
<glyph name="e-ar.init" format="1">
  <advance width="788"/>
  <unicode hex="FBE6"/>
  <outline>
    <component base="behDotless-ar.init"/>
    <component base="twodotsverticalbelow-ar" xOffset="99" yOffset="-203"/>
    <contour>
      <point x="815" y="1170" type="move" name="top"/>
    </contour>
  </outline>
</glyph>
<glyph name="yeh-farsi.medi" format="1">
  <advance width="893"/>
  <unicode hex="FBFF"/>
  <outline>
    <component base="yeh-ar.medi"/>
    <contour>
      <point x="770" y="860" type="move" name="top"/>
    </contour>
  </outline>
</glyph>
<glyph name="parenleft-ar" format="1">
  <advance width="1085"/>
  <unicode hex="FD3E"/>
  <outline>
    <contour>
      <point x="857" y="-326" type="line"/>
      <point x="745" y="-278"/>
      <point x="657" y="-201"/>
      <point x="595" y="-99" type="curve"/>
      <point x="627" y="-73"/>
      <point x="645" y="-52"/>
      <point x="652" y="-31" type="curve" smooth="yes"/>
      <point x="658" y="-13"/>
      <point x="655" y="5"/>
      <point x="646" y="25" type="curve"/>
      <point x="647" y="24" type="line"/>
      <point x="619" y="95"/>
      <point x="615" y="159"/>
      <point x="638" y="227" type="curve" smooth="yes"/>
      <point x="663" y="305"/>
      <point x="723" y="385"/>
      <point x="816" y="468" type="curve" smooth="yes"/>
      <point x="827" y="478"/>
      <point x="833" y="485"/>
      <point x="836" y="493" type="curve" smooth="yes"/>
      <point x="839" y="502"/>
      <point x="838" y="511"/>
      <point x="833" y="521" type="curve" smooth="yes"/>
      <point x="795" y="602"/>
      <point x="789" y="679"/>
      <point x="814" y="755" type="curve" smooth="yes"/>
      <point x="835" y="819"/>
      <point x="877" y="879"/>
      <point x="952" y="951" type="curve"/>
      <point x="950" y="950" type="line"/>
      <point x="971" y="968"/>
      <point x="985" y="987"/>
      <point x="990" y="1005" type="curve" smooth="yes"/>
      <point x="997" y="1026"/>
      <point x="992" y="1048"/>
      <point x="979" y="1067" type="curve"/>
      <point x="964" y="1064" type="line"/>
      <point x="1125" y="1189"/>
      <point x="1243" y="1258"/>
      <point x="1389" y="1305" type="curve"/>
      <point x="1328" y="1432" type="line"/>
      <point x="936" y="1286"/>
      <point x="594" y="970"/>
      <point x="435" y="586" type="curve"/>
      <point x="310" y="586" type="line"/>
      <point x="249" y="397" type="line"/>
      <point x="373" y="397" type="line"/>
      <point x="286" y="24"/>
      <point x="418" y="-299"/>
      <point x="712" y="-446" type="curve"/>
    </contour>
    <contour>
      <point x="623" y="396"/>
      <point x="680" y="439"/>
      <point x="698" y="492" type="curve" smooth="yes"/>
      <point x="715" y="544"/>
      <point x="686" y="587"/>
      <point x="634" y="587" type="curve" smooth="yes"/>
      <point x="581" y="587"/>
      <point x="524" y="544"/>
      <point x="507" y="492" type="curve" smooth="yes"/>
      <point x="489" y="439"/>
      <point x="518" y="396"/>
      <point x="571" y="396" type="curve" smooth="yes"/>
    </contour>
  </outline>
</glyph>
<glyph name="parenright-ar" format="1">
  <advance width="1085"/>
  <unicode hex="FD3F"/>
  <outline>
    <contour>
      <point x="473" y="-299"/>
      <point x="815" y="24"/>
      <point x="970" y="397" type="curve"/>
      <point x="1094" y="397" type="line"/>
      <point x="1155" y="586" type="line"/>
      <point x="1030" y="586" type="line"/>
      <point x="1121" y="970"/>
      <point x="985" y="1286"/>
      <point x="687" y="1432" type="curve"/>
      <point x="544" y="1305" type="line"/>
      <point x="660" y="1258"/>
      <point x="732" y="1189"/>
      <point x="813" y="1064" type="curve"/>
      <point x="800" y="1067" type="line"/>
      <point x="773" y="1048"/>
      <point x="754" y="1026"/>
      <point x="747" y="1005" type="curve" smooth="yes"/>
      <point x="742" y="987"/>
      <point x="742" y="968"/>
      <point x="751" y="950" type="curve"/>
      <point x="751" y="951" type="line"/>
      <point x="778" y="879"/>
      <point x="782" y="819"/>
      <point x="761" y="755" type="curve" smooth="yes"/>
      <point x="736" y="679"/>
      <point x="680" y="602"/>
      <point x="590" y="521" type="curve" smooth="yes"/>
      <point x="579" y="511"/>
      <point x="572" y="502"/>
      <point x="569" y="493" type="curve" smooth="yes"/>
      <point x="566" y="485"/>
      <point x="568" y="478"/>
      <point x="573" y="468" type="curve" smooth="yes"/>
      <point x="612" y="385"/>
      <point x="620" y="305"/>
      <point x="595" y="227" type="curve" smooth="yes"/>
      <point x="572" y="159"/>
      <point x="528" y="95"/>
      <point x="454" y="24" type="curve"/>
      <point x="455" y="25" type="line"/>
      <point x="432" y="5"/>
      <point x="419" y="-13"/>
      <point x="413" y="-31" type="curve" smooth="yes"/>
      <point x="406" y="-52"/>
      <point x="410" y="-73"/>
      <point x="426" y="-99" type="curve"/>
      <point x="298" y="-201"/>
      <point x="158" y="-278"/>
      <point x="16" y="-326" type="curve"/>
      <point x="83" y="-446" type="line"/>
    </contour>
    <contour>
      <point x="823" y="396"/>
      <point x="880" y="439"/>
      <point x="898" y="492" type="curve" smooth="yes"/>
      <point x="915" y="544"/>
      <point x="886" y="587"/>
      <point x="833" y="587" type="curve" smooth="yes"/>
      <point x="781" y="587"/>
      <point x="724" y="544"/>
      <point x="707" y="492" type="curve" smooth="yes"/>
      <point x="689" y="439"/>
      <point x="718" y="396"/>
      <point x="770" y="396" type="curve" smooth="yes"/>
    </contour>
  </outline>
</glyph>
<glyph name="allah-ar" format="1">
  <advance width="2498"/>
  <unicode hex="FDF2"/>
  <outline>
    <contour>
      <point x="123" y="11"/>
      <point x="320" y="-56"/>
      <point x="698" y="-22" type="curve"/>
      <point x="787" y="74" type="line"/>
      <point x="824" y="-4"/>
      <point x="906" y="-44"/>
      <point x="1028" y="-44" type="curve" smooth="yes"/>
      <point x="1151" y="-44"/>
      <point x="1300" y="-3"/>
      <point x="1407" y="59" type="curve"/>
      <point x="1448" y="-7"/>
      <point x="1533" y="-45"/>
      <point x="1641" y="-45" type="curve" smooth="yes"/>
      <point x="1883" y="-45"/>
      <point x="2096" y="117"/>
      <point x="2175" y="361" type="curve" smooth="yes"/>
      <point x="2193" y="416"/>
      <point x="2209" y="484"/>
      <point x="2230" y="596" type="curve" smooth="yes"/>
      <point x="2322" y="1082" type="line"/>
      <point x="2039" y="927" type="line"/>
      <point x="1934" y="251" type="line"/>
      <point x="1901" y="239"/>
      <point x="1802" y="212"/>
      <point x="1744" y="212" type="curve" smooth="yes"/>
      <point x="1579" y="212"/>
      <point x="1591" y="283"/>
      <point x="1658" y="530" type="curve" smooth="yes"/>
      <point x="1774" y="957" type="line"/>
      <point x="1514" y="887" type="line"/>
      <point x="1361" y="256" type="line"/>
      <point x="1301" y="236"/>
      <point x="1207" y="221"/>
      <point x="1135" y="221" type="curve" smooth="yes"/>
      <point x="962" y="221"/>
      <point x="974" y="255"/>
      <point x="1120" y="742" type="curve" smooth="yes"/>
      <point x="1216" y="1064" type="line"/>
      <point x="944" y="966" type="line"/>
      <point x="893" y="772" type="line"/>
      <point x="493" y="598"/>
      <point x="248" y="394"/>
      <point x="176" y="172" type="curve" smooth="yes"/>
    </contour>
    <contour>
      <point x="504" y="370"/>
      <point x="667" y="467"/>
      <point x="832" y="534" type="curve"/>
      <point x="761" y="233" type="line"/>
      <point x="669" y="211"/>
      <point x="454" y="242"/>
      <point x="411" y="283" type="curve"/>
    </contour>
    <contour>
      <point x="1500" y="1366" type="line"/>
      <point x="1429" y="1193" type="line"/>
      <point x="1394" y="1083"/>
      <point x="1437" y="1021"/>
      <point x="1552" y="1021" type="curve" smooth="yes"/>
      <point x="1599" y="1021"/>
      <point x="1654" y="1033"/>
      <point x="1700" y="1054" type="curve"/>
      <point x="1726" y="1041"/>
      <point x="1762" y="1034"/>
      <point x="1802" y="1034" type="curve" smooth="yes"/>
      <point x="1928" y="1034"/>
      <point x="2024" y="1104"/>
      <point x="2063" y="1223" type="curve" smooth="yes"/>
      <point x="2082" y="1281"/>
      <point x="2075" y="1291"/>
      <point x="2094" y="1461" type="curve"/>
      <point x="1907" y="1406" type="line"/>
      <point x="1904" y="1243" type="line"/>
      <point x="1846" y="1238" type="line"/>
      <point x="1883" y="1373" type="line"/>
      <point x="1715" y="1367" type="line"/>
      <point x="1671" y="1229" type="line"/>
      <point x="1602" y="1225" type="line"/>
      <point x="1656" y="1369" type="line"/>
    </contour>
    <contour>
      <point x="1719" y="1394" type="line"/>
      <point x="1899" y="1429" type="line"/>
      <point x="2008" y="1758" type="line"/>
      <point x="1804" y="1719" type="line"/>
    </contour>
    <contour>
      <point x="2139" y="-42" type="line"/>
      <point x="2383" y="16" type="line"/>
      <point x="2860" y="1506" type="line"/>
      <point x="2531" y="1346" type="line"/>
    </contour>
  </outline>
</glyph>
<glyph name="rial" format="1">
  <advance width="2663"/>
  <unicode hex="FDFC"/>
  <outline>
    <contour>
      <point x="313" y="395" type="line"/>
      <point x="210" y="212" type="line"/>
      <point x="143" y="70" type="line"/>
      <point x="84" y="-112"/>
      <point x="159" y="-217"/>
      <point x="350" y="-217" type="curve" smooth="yes"/>
      <point x="550" y="-217"/>
      <point x="919" y="-147"/>
      <point x="994" y="66" type="curve"/>
      <point x="1290" y="1171" type="line"/>
      <point x="1406" y="1108"/>
      <point x="1491" y="1071"/>
      <point x="1418" y="820" type="curve" smooth="yes"/>
      <point x="1254" y="283" type="line" smooth="yes"/>
      <point x="1176" y="29"/>
      <point x="1286" y="-14"/>
      <point x="1507" y="-14" type="curve" smooth="yes"/>
      <point x="1915" y="-14"/>
      <point x="2091" y="81"/>
      <point x="2156" y="280" type="curve" smooth="yes"/>
      <point x="2176" y="343"/>
      <point x="2192" y="522"/>
      <point x="2203" y="650" type="curve"/>
      <point x="2041" y="547" type="line"/>
      <point x="2010" y="197" type="line"/>
      <point x="1964" y="167"/>
      <point x="1749" y="140"/>
      <point x="1560" y="140" type="curve" smooth="yes"/>
      <point x="1504" y="140"/>
      <point x="1343" y="160"/>
      <point x="1352" y="189" type="curve" smooth="yes"/>
      <point x="1564" y="824" type="line" smooth="yes"/>
      <point x="1652" y="1096"/>
      <point x="1624" y="1178"/>
      <point x="1412" y="1313" type="curve"/>
      <point x="1117" y="1118" type="line"/>
      <point x="854" y="25" type="line"/>
      <point x="803" y="8"/>
      <point x="616" y="-49"/>
      <point x="434" y="-49" type="curve" smooth="yes"/>
      <point x="302" y="-49"/>
      <point x="246" y="12"/>
      <point x="280" y="117" type="curve" smooth="yes"/>
      <point x="291" y="150"/>
      <point x="307" y="178"/>
      <point x="417" y="373" type="curve"/>
    </contour>
    <contour>
      <point x="2530" y="566" type="line"/>
      <point x="2518" y="254" type="line"/>
      <point x="2367" y="53"/>
      <point x="2240" y="-33"/>
      <point x="2070" y="-33" type="curve" smooth="yes"/>
      <point x="2037" y="-33"/>
      <point x="2002" y="-29"/>
      <point x="1964" y="-22" type="curve"/>
      <point x="1903" y="-127" type="line"/>
      <point x="1978" y="-153"/>
      <point x="2046" y="-170"/>
      <point x="2110" y="-170" type="curve" smooth="yes"/>
      <point x="2165" y="-170"/>
      <point x="2218" y="-158"/>
      <point x="2273" y="-132" type="curve" smooth="yes"/>
      <point x="2416" y="-65"/>
      <point x="2587" y="134"/>
      <point x="2637" y="288" type="curve" smooth="yes"/>
      <point x="2671" y="392"/>
      <point x="2681" y="552"/>
      <point x="2691" y="694" type="curve"/>
    </contour>
    <contour>
      <point x="1340" y="-383" type="line"/>
      <point x="1479" y="-264" type="line"/>
      <point x="1582" y="-383" type="line"/>
      <point x="1747" y="-242" type="line"/>
      <point x="1643" y="-122" type="line"/>
      <point x="1505" y="-241" type="line"/>
      <point x="1401" y="-122" type="line"/>
      <point x="1236" y="-263" type="line"/>
    </contour>
  </outline>
</glyph>
<glyph name="alefMadda-ar.fina" format="1">
  <advance width="692"/>
  <unicode hex="FE82"/>
  <outline>
    <component base="madda-ar" xOffset="110" yOffset="554"/>
    <component base="alef-ar.fina.short"/>
    <contour>
      <point x="963" y="2001" type="move" name="top"/>
    </contour>
  </outline>
</glyph>
<glyph name="alef-ar.fina" format="1">
  <advance width="702"/>
  <unicode hex="FE8E"/>
  <outline>
    <contour>
      <point x="362" y="425" type="line" smooth="yes"/>
      <point x="283" y="138"/>
      <point x="357" y="0"/>
      <point x="591" y="0" type="curve" smooth="yes"/>
      <point x="732" y="0" type="line"/>
      <point x="788" y="39"/>
      <point x="825" y="86"/>
      <point x="842" y="137" type="curve" smooth="yes"/>
      <point x="858" y="188"/>
      <point x="851" y="233"/>
      <point x="821" y="273" type="curve"/>
      <point x="726" y="273" type="line" smooth="yes"/>
      <point x="672" y="273"/>
      <point x="602" y="292"/>
      <point x="561" y="319" type="curve"/>
      <point x="942" y="1549" type="line"/>
      <point x="646" y="1455" type="line"/>
    </contour>
    <contour>
      <point x="907" y="1758" type="move" name="top"/>
    </contour>
    <contour>
      <point x="520" y="-220" type="move" name="bottom"/>
    </contour>
  </outline>
</glyph>
<glyph name="tehMarbuta-ar.fina" format="1">
  <advance width="1162"/>
  <unicode hex="FE94"/>
  <outline>
    <component base="heh-ar.fina"/>
    <component base="twodotshorizontalabove-ar" xOffset="522" yOffset="457"/>
    <contour>
      <point x="425" y="-190" type="move" name="bottom"/>
    </contour>
  </outline>
</glyph>
<glyph name="theh-ar.init" format="1">
  <advance width="788"/>
  <unicode hex="FE9B"/>
  <outline>
    <component base="behDotless-ar.init"/>
    <component base="threedotsupabove-ar" xOffset="332" yOffset="572"/>
    <contour>
      <point x="-84" y="-210" type="move" name="bottom"/>
    </contour>
  </outline>
</glyph>
<glyph name="hah-ar.fina" format="1">
  <advance width="1307"/>
  <unicode hex="FEA2"/>
  <outline>
    <contour>
      <point x="1336" y="273" type="line" smooth="yes"/>
      <point x="1193" y="273"/>
      <point x="1103" y="335"/>
      <point x="1080" y="445" type="curve"/>
      <point x="1184" y="469"/>
      <point x="1293" y="482"/>
      <point x="1403" y="483" type="curve"/>
      <point x="1570" y="775" type="line"/>
      <point x="1421" y="779" type="line" smooth="yes"/>
      <point x="1103" y="788"/>
      <point x="996" y="931"/>
      <point x="798" y="931" type="curve" smooth="yes"/>
      <point x="721" y="931"/>
      <point x="585" y="861"/>
      <point x="454" y="754" type="curve"/>
      <point x="505" y="554" type="line"/>
      <point x="620" y="631"/>
      <point x="658" y="660"/>
      <point x="705" y="660" type="curve" smooth="yes"/>
      <point x="750" y="660"/>
      <point x="758" y="659"/>
      <point x="876" y="612" type="curve"/>
      <point x="535" y="487"/>
      <point x="234" y="189"/>
      <point x="128" y="-137" type="curve" smooth="yes"/>
      <point x="7" y="-510"/>
      <point x="147" y="-697"/>
      <point x="547" y="-697" type="curve" smooth="yes"/>
      <point x="669" y="-697"/>
      <point x="907" y="-671"/>
      <point x="1013" y="-637" type="curve"/>
      <point x="1171" y="-365" type="line"/>
      <point x="1103" y="-374"/>
      <point x="929" y="-415"/>
      <point x="728" y="-415" type="curve" smooth="yes"/>
      <point x="426" y="-415"/>
      <point x="292" y="-308"/>
      <point x="353" y="-121" type="curve" smooth="yes"/>
      <point x="419" y="84"/>
      <point x="597" y="259"/>
      <point x="849" y="370" type="curve"/>
      <point x="869" y="132"/>
      <point x="1004" y="0"/>
      <point x="1232" y="0" type="curve" smooth="yes"/>
      <point x="1338" y="0" type="line"/>
      <point x="1394" y="39"/>
      <point x="1431" y="86"/>
      <point x="1447" y="137" type="curve" smooth="yes"/>
      <point x="1464" y="188"/>
      <point x="1457" y="233"/>
      <point x="1427" y="273" type="curve"/>
    </contour>
    <contour>
      <point x="724" y="-90" type="move" name="center"/>
    </contour>
    <contour>
      <point x="477" y="-912" type="move" name="bottom"/>
    </contour>
    <contour>
      <point x="865" y="1143" type="move" name="top"/>
    </contour>
  </outline>
</glyph>
<glyph name="hah-ar.init" format="1">
  <advance width="1643"/>
  <unicode hex="FEA3"/>
  <outline>
    <contour>
      <point x="31" y="0" type="line" smooth="yes"/>
      <point x="429" y="0"/>
      <point x="921" y="212"/>
      <point x="1152" y="281" type="curve" smooth="yes"/>
      <point x="1273" y="317"/>
      <point x="1491" y="325"/>
      <point x="1522" y="322" type="curve"/>
      <point x="1708" y="617" type="line"/>
      <point x="1619" y="617" type="line" smooth="yes"/>
      <point x="1262" y="617"/>
      <point x="1052" y="862"/>
      <point x="799" y="862" type="curve" smooth="yes"/>
      <point x="719" y="862"/>
      <point x="586" y="805"/>
      <point x="459" y="716" type="curve"/>
      <point x="454" y="454" type="line"/>
      <point x="571" y="543"/>
      <point x="658" y="593"/>
      <point x="692" y="593" type="curve" smooth="yes"/>
      <point x="765" y="593"/>
      <point x="913" y="521"/>
      <point x="1053" y="466" type="curve"/>
      <point x="795" y="387"/>
      <point x="447" y="273"/>
      <point x="120" y="273" type="curve" smooth="yes"/>
      <point x="60" y="273" type="line" smooth="yes"/>
      <point x="-12" y="273"/>
      <point x="-90" y="212"/>
      <point x="-115" y="137" type="curve" smooth="yes"/>
      <point x="-139" y="61"/>
      <point x="-101" y="0"/>
      <point x="-29" y="0" type="curve" smooth="yes"/>
    </contour>
    <contour>
      <point x="865" y="1064" type="move" name="top"/>
    </contour>
    <contour>
      <point x="599" y="-41" type="move" name="bottom"/>
    </contour>
  </outline>
</glyph>
<glyph name="hah-ar.medi" format="1">
  <advance width="1574"/>
  <unicode hex="FEA4"/>
  <outline>
    <contour>
      <point x="1604" y="273" type="line" smooth="yes"/>
      <point x="1445" y="273"/>
      <point x="1392" y="300"/>
      <point x="1355" y="335" type="curve"/>
      <point x="1565" y="340" type="line"/>
      <point x="1708" y="617" type="line"/>
      <point x="1619" y="617" type="line" smooth="yes"/>
      <point x="1262" y="617"/>
      <point x="1052" y="862"/>
      <point x="799" y="862" type="curve" smooth="yes"/>
      <point x="719" y="862"/>
      <point x="586" y="805"/>
      <point x="459" y="716" type="curve"/>
      <point x="454" y="454" type="line"/>
      <point x="571" y="543"/>
      <point x="658" y="593"/>
      <point x="692" y="593" type="curve" smooth="yes"/>
      <point x="765" y="593"/>
      <point x="913" y="521"/>
      <point x="1053" y="466" type="curve"/>
      <point x="795" y="387"/>
      <point x="447" y="273"/>
      <point x="120" y="273" type="curve" smooth="yes"/>
      <point x="60" y="273" type="line" smooth="yes"/>
      <point x="-12" y="273"/>
      <point x="-90" y="212"/>
      <point x="-115" y="137" type="curve" smooth="yes"/>
      <point x="-139" y="61"/>
      <point x="-101" y="0"/>
      <point x="-29" y="0" type="curve" smooth="yes"/>
      <point x="31" y="0" type="line" smooth="yes"/>
      <point x="418" y="0"/>
      <point x="893" y="200"/>
      <point x="1132" y="275" type="curve"/>
      <point x="1179" y="135"/>
      <point x="1261" y="0"/>
      <point x="1515" y="0" type="curve" smooth="yes"/>
      <point x="1605" y="0" type="line"/>
      <point x="1661" y="39"/>
      <point x="1698" y="86"/>
      <point x="1714" y="137" type="curve" smooth="yes"/>
      <point x="1731" y="188"/>
      <point x="1724" y="233"/>
      <point x="1694" y="273" type="curve"/>
    </contour>
    <contour>
      <point x="867" y="1064" type="move" name="top"/>
    </contour>
    <contour>
      <point x="911" y="29" type="move" name="bottom"/>
    </contour>
  </outline>
</glyph>
<glyph name="dal-ar.fina" format="1">
  <advance width="1366"/>
  <unicode hex="FEAA"/>
  <outline>
    <contour>
      <point x="1379" y="273" type="line" smooth="yes"/>
      <point x="1223" y="273"/>
      <point x="1203" y="312"/>
      <point x="1243" y="564" type="curve" smooth="yes"/>
      <point x="1317" y="1029" type="line"/>
      <point x="1025" y="905" type="line"/>
      <point x="940" y="267" type="line"/>
      <point x="846" y="245"/>
      <point x="724" y="233"/>
      <point x="590" y="233" type="curve" smooth="yes"/>
      <point x="467" y="233"/>
      <point x="466" y="238"/>
      <point x="509" y="392" type="curve"/>
      <point x="305" y="390" type="line"/>
      <point x="287" y="346"/>
      <point x="273" y="308"/>
      <point x="260" y="268" type="curve" smooth="yes"/>
      <point x="192" y="60"/>
      <point x="263" y="-38"/>
      <point x="478" y="-38" type="curve" smooth="yes"/>
      <point x="616" y="-38"/>
      <point x="876" y="-5"/>
      <point x="992" y="61" type="curve" smooth="yes"/>
      <point x="1013" y="73"/>
      <point x="1033" y="88"/>
      <point x="1050" y="106" type="curve"/>
      <point x="1089" y="37"/>
      <point x="1167" y="0"/>
      <point x="1277" y="0" type="curve" smooth="yes"/>
      <point x="1396" y="0" type="line"/>
      <point x="1452" y="39"/>
      <point x="1489" y="86"/>
      <point x="1506" y="137" type="curve" smooth="yes"/>
      <point x="1522" y="188"/>
      <point x="1515" y="233"/>
      <point x="1485" y="273" type="curve"/>
    </contour>
    <contour>
      <point x="1284" y="1224" type="move" name="top"/>
    </contour>
    <contour>
      <point x="440" y="-237" type="move" name="bottom"/>
    </contour>
    <contour>
      <point x="694" y="-204" type="move" name="ring"/>
    </contour>
  </outline>
</glyph>
<glyph name="reh-ar.fina" format="1">
  <advance width="1159"/>
  <unicode hex="FEAE"/>
  <outline>
    <contour>
      <point x="1100" y="273" type="line" smooth="yes"/>
      <point x="961" y="273"/>
      <point x="940" y="311"/>
      <point x="971" y="563" type="curve" smooth="yes"/>
      <point x="996" y="764" type="line"/>
      <point x="711" y="621" type="line"/>
      <point x="674" y="149" type="line"/>
      <point x="489" y="-110"/>
      <point x="328" y="-215"/>
      <point x="119" y="-215" type="curve" smooth="yes"/>
      <point x="61" y="-215"/>
      <point x="4" y="-207"/>
      <point x="-57" y="-191" type="curve"/>
      <point x="-179" y="-385" type="line"/>
      <point x="-25" y="-443"/>
      <point x="64" y="-465"/>
      <point x="145" y="-465" type="curve" smooth="yes"/>
      <point x="211" y="-465"/>
      <point x="278" y="-449"/>
      <point x="354" y="-415" type="curve" smooth="yes"/>
      <point x="515" y="-343"/>
      <point x="717" y="-147"/>
      <point x="834" y="49" type="curve"/>
      <point x="877" y="16"/>
      <point x="936" y="0"/>
      <point x="1011" y="0" type="curve" smooth="yes"/>
      <point x="1189" y="0" type="line"/>
      <point x="1245" y="39"/>
      <point x="1282" y="86"/>
      <point x="1299" y="137" type="curve" smooth="yes"/>
      <point x="1316" y="188"/>
      <point x="1308" y="233"/>
      <point x="1278" y="273" type="curve"/>
    </contour>
    <contour>
      <point x="995" y="974" type="move" name="top"/>
    </contour>
    <contour>
      <point x="101" y="-675" type="move" name="bottom"/>
    </contour>
    <contour>
      <point x="483" y="-495" type="move" name="ring"/>
    </contour>
  </outline>
</glyph>
<glyph name="seen-ar.fina" format="1">
  <advance width="2833"/>
  <unicode hex="FEB2"/>
  <outline>
    <contour>
      <point x="2829" y="273" type="line" smooth="yes"/>
      <point x="2705" y="273"/>
      <point x="2683" y="308"/>
      <point x="2734" y="561" type="curve" smooth="yes"/>
      <point x="2769" y="742" type="line"/>
      <point x="2490" y="637" type="line"/>
      <point x="2431" y="273" type="line"/>
      <point x="2386" y="266"/>
      <point x="2343" y="262"/>
      <point x="2301" y="262" type="curve" smooth="yes"/>
      <point x="2222" y="262"/>
      <point x="2153" y="276"/>
      <point x="2091" y="305" type="curve"/>
      <point x="2091" y="305"/>
      <point x="2093" y="306"/>
      <point x="2093" y="307" type="curve"/>
      <point x="2238" y="634" type="line"/>
      <point x="2031" y="655" type="line"/>
      <point x="1908" y="386" type="line" smooth="yes"/>
      <point x="1867" y="297"/>
      <point x="1807" y="267"/>
      <point x="1655" y="267" type="curve" smooth="yes"/>
      <point x="1494" y="267"/>
      <point x="1458" y="282"/>
      <point x="1472" y="346" type="curve" smooth="yes"/>
      <point x="1538" y="662" type="line"/>
      <point x="1239" y="531" type="line"/>
      <point x="1135" y="-102" type="line"/>
      <point x="1037" y="-138"/>
      <point x="799" y="-216"/>
      <point x="585" y="-216" type="curve" smooth="yes"/>
      <point x="412" y="-216"/>
      <point x="351" y="-143"/>
      <point x="399" y="5" type="curve" smooth="yes"/>
      <point x="415" y="55"/>
      <point x="425" y="68"/>
      <point x="539" y="291" type="curve"/>
      <point x="333" y="316" type="line"/>
      <point x="209" y="77"/>
      <point x="182" y="29"/>
      <point x="154" y="-57" type="curve" smooth="yes"/>
      <point x="61" y="-342"/>
      <point x="176" y="-510"/>
      <point x="463" y="-510" type="curve" smooth="yes"/>
      <point x="687" y="-510"/>
      <point x="1088" y="-412"/>
      <point x="1271" y="-239" type="curve" smooth="yes"/>
      <point x="1321" y="-191"/>
      <point x="1354" y="-135"/>
      <point x="1379" y="-59" type="curve" smooth="yes"/>
      <point x="1387" y="-36"/>
      <point x="1392" y="-15"/>
      <point x="1398" y="5" type="curve"/>
      <point x="1449" y="-4"/>
      <point x="1504" y="-9"/>
      <point x="1557" y="-9" type="curve" smooth="yes"/>
      <point x="1676" y="-9"/>
      <point x="1802" y="22"/>
      <point x="1883" y="70" type="curve"/>
      <point x="1962" y="23"/>
      <point x="2071" y="-4"/>
      <point x="2188" y="-4" type="curve" smooth="yes"/>
      <point x="2334" y="-4"/>
      <point x="2442" y="28"/>
      <point x="2521" y="96" type="curve"/>
      <point x="2567" y="34"/>
      <point x="2644" y="0"/>
      <point x="2740" y="0" type="curve" smooth="yes"/>
      <point x="2863" y="0" type="line"/>
      <point x="2919" y="39"/>
      <point x="2956" y="86"/>
      <point x="2973" y="137" type="curve" smooth="yes"/>
      <point x="2989" y="188"/>
      <point x="2982" y="233"/>
      <point x="2952" y="273" type="curve"/>
    </contour>
    <contour>
      <point x="923" y="674" type="move" name="top"/>
    </contour>
    <contour>
      <point x="393" y="-729" type="move" name="bottom"/>
    </contour>
  </outline>
</glyph>
<glyph name="seen-ar.init" format="1">
  <advance width="1824"/>
  <unicode hex="FEB3"/>
  <outline>
    <contour>
      <point x="1835" y="459"/>
      <point x="1875" y="740"/>
      <point x="1886" y="902" type="curve"/>
      <point x="1606" y="753" type="line"/>
      <point x="1569" y="273" type="line"/>
      <point x="1455" y="249"/>
      <point x="1373" y="259"/>
      <point x="1252" y="309" type="curve"/>
      <point x="1398" y="634" type="line"/>
      <point x="1194" y="660" type="line"/>
      <point x="1069" y="395" type="line" smooth="yes"/>
      <point x="1026" y="304"/>
      <point x="968" y="274"/>
      <point x="818" y="274" type="curve" smooth="yes"/>
      <point x="748" y="274"/>
      <point x="671" y="283"/>
      <point x="613" y="298" type="curve"/>
      <point x="761" y="635" type="line"/>
      <point x="552" y="653" type="line"/>
      <point x="473" y="480" type="line" smooth="yes"/>
      <point x="390" y="300"/>
      <point x="365" y="282"/>
      <point x="202" y="273" type="curve"/>
      <point x="59" y="273" type="line" smooth="yes"/>
      <point x="-13" y="273"/>
      <point x="-90" y="212"/>
      <point x="-115" y="137" type="curve" smooth="yes"/>
      <point x="-140" y="61"/>
      <point x="-101" y="0"/>
      <point x="-29" y="0" type="curve" smooth="yes"/>
      <point x="120" y="0" type="line" smooth="yes"/>
      <point x="200" y="0"/>
      <point x="304" y="31"/>
      <point x="379" y="77" type="curve"/>
      <point x="442" y="28"/>
      <point x="568" y="0"/>
      <point x="720" y="0" type="curve" smooth="yes"/>
      <point x="839" y="0"/>
      <point x="963" y="30"/>
      <point x="1045" y="78" type="curve"/>
      <point x="1123" y="27"/>
      <point x="1232" y="-1"/>
      <point x="1346" y="-1" type="curve" smooth="yes"/>
      <point x="1597" y="-1"/>
      <point x="1728" y="100"/>
      <point x="1802" y="350" type="curve" smooth="yes"/>
    </contour>
    <contour>
      <point x="1340" y="903" type="move" name="top"/>
    </contour>
    <contour>
      <point x="938" y="-231" type="move" name="bottom"/>
    </contour>
  </outline>
</glyph>
<glyph name="seen-ar.medi" format="1">
  <advance width="1978"/>
  <unicode hex="FEB4"/>
  <outline>
    <contour>
      <point x="1976" y="273" type="line" smooth="yes"/>
      <point x="1839" y="273"/>
      <point x="1821" y="318"/>
      <point x="1880" y="556" type="curve" smooth="yes"/>
      <point x="1925" y="738" type="line"/>
      <point x="1651" y="636" type="line"/>
      <point x="1584" y="283" type="line"/>
      <point x="1539" y="276"/>
      <point x="1492" y="272"/>
      <point x="1445" y="272" type="curve" smooth="yes"/>
      <point x="1367" y="272"/>
      <point x="1298" y="283"/>
      <point x="1239" y="306" type="curve"/>
      <point x="1387" y="634" type="line"/>
      <point x="1180" y="655" type="line"/>
      <point x="1049" y="374" type="line" smooth="yes"/>
      <point x="1013" y="297"/>
      <point x="960" y="273"/>
      <point x="805" y="273" type="curve" smooth="yes"/>
      <point x="743" y="273"/>
      <point x="669" y="282"/>
      <point x="610" y="296" type="curve"/>
      <point x="750" y="636" type="line"/>
      <point x="540" y="653" type="line"/>
      <point x="452" y="462" type="line" smooth="yes"/>
      <point x="370" y="283"/>
      <point x="355" y="273"/>
      <point x="213" y="273" type="curve" smooth="yes"/>
      <point x="59" y="273" type="line" smooth="yes"/>
      <point x="-13" y="273"/>
      <point x="-91" y="212"/>
      <point x="-115" y="137" type="curve" smooth="yes"/>
      <point x="-140" y="61"/>
      <point x="-102" y="0"/>
      <point x="-30" y="0" type="curve" smooth="yes"/>
      <point x="108" y="0" type="line" smooth="yes"/>
      <point x="189" y="0"/>
      <point x="292" y="31"/>
      <point x="366" y="75" type="curve"/>
      <point x="425" y="25"/>
      <point x="542" y="0"/>
      <point x="708" y="0" type="curve" smooth="yes"/>
      <point x="827" y="0"/>
      <point x="952" y="30"/>
      <point x="1033" y="79" type="curve"/>
      <point x="1111" y="28"/>
      <point x="1219" y="-1"/>
      <point x="1330" y="-1" type="curve" smooth="yes"/>
      <point x="1471" y="-1"/>
      <point x="1586" y="35"/>
      <point x="1667" y="105" type="curve"/>
      <point x="1706" y="39"/>
      <point x="1786" y="0"/>
      <point x="1887" y="0" type="curve" smooth="yes"/>
      <point x="2008" y="0" type="line"/>
      <point x="2064" y="39"/>
      <point x="2101" y="86"/>
      <point x="2118" y="137" type="curve" smooth="yes"/>
      <point x="2134" y="188"/>
      <point x="2127" y="233"/>
      <point x="2097" y="273" type="curve"/>
    </contour>
    <contour>
      <point x="1340" y="883" type="move" name="top"/>
    </contour>
    <contour>
      <point x="945" y="-211" type="move" name="bottom"/>
    </contour>
  </outline>
</glyph>
<glyph name="sad-ar.fina" format="1">
  <advance width="2822"/>
  <unicode hex="FEBA"/>
  <outline>
    <contour>
      <point x="2823" y="273" type="line" smooth="yes"/>
      <point x="2774" y="273"/>
      <point x="2690" y="276"/>
      <point x="2624" y="286" type="curve"/>
      <point x="2639" y="313"/>
      <point x="2651" y="342"/>
      <point x="2661" y="372" type="curve" smooth="yes"/>
      <point x="2743" y="624"/>
      <point x="2600" y="860"/>
      <point x="2364" y="862" type="curve" smooth="yes"/>
      <point x="2169" y="864"/>
      <point x="1884" y="702"/>
      <point x="1475" y="357" type="curve"/>
      <point x="1479" y="394"/>
      <point x="1494" y="474"/>
      <point x="1527" y="646" type="curve"/>
      <point x="1237" y="523" type="line"/>
      <point x="1136" y="-102" type="line"/>
      <point x="1038" y="-138"/>
      <point x="798" y="-216"/>
      <point x="584" y="-216" type="curve" smooth="yes"/>
      <point x="410" y="-216"/>
      <point x="350" y="-143"/>
      <point x="399" y="8" type="curve" smooth="yes"/>
      <point x="416" y="60"/>
      <point x="431" y="84"/>
      <point x="543" y="304" type="curve"/>
      <point x="338" y="329" type="line"/>
      <point x="209" y="75"/>
      <point x="183" y="31"/>
      <point x="155" y="-54" type="curve" smooth="yes"/>
      <point x="62" y="-342"/>
      <point x="175" y="-510"/>
      <point x="462" y="-510" type="curve" smooth="yes"/>
      <point x="686" y="-510"/>
      <point x="1078" y="-413"/>
      <point x="1260" y="-239" type="curve" smooth="yes"/>
      <point x="1321" y="-181"/>
      <point x="1351" y="-131"/>
      <point x="1380" y="-43" type="curve" smooth="yes"/>
      <point x="1388" y="-18"/>
      <point x="1396" y="9"/>
      <point x="1403" y="36" type="curve"/>
      <point x="1500" y="9"/>
      <point x="1621" y="-6"/>
      <point x="1753" y="-6" type="curve" smooth="yes"/>
      <point x="1973" y="-6"/>
      <point x="2235" y="30"/>
      <point x="2396" y="83" type="curve"/>
      <point x="2445" y="22"/>
      <point x="2538" y="0"/>
      <point x="2734" y="0" type="curve" smooth="yes"/>
      <point x="2853" y="0" type="line"/>
      <point x="2908" y="39"/>
      <point x="2946" y="86"/>
      <point x="2962" y="137" type="curve" smooth="yes"/>
      <point x="2979" y="188"/>
      <point x="2972" y="233"/>
      <point x="2942" y="273" type="curve"/>
    </contour>
    <contour>
      <point x="1826" y="261"/>
      <point x="1738" y="267"/>
      <point x="1649" y="279" type="curve"/>
      <point x="1909" y="494"/>
      <point x="2094" y="590"/>
      <point x="2239" y="590" type="curve" smooth="yes"/>
      <point x="2380" y="590"/>
      <point x="2425" y="426"/>
      <point x="2432" y="340" type="curve"/>
      <point x="2265" y="287"/>
      <point x="2093" y="261"/>
      <point x="1916" y="261" type="curve" smooth="yes"/>
    </contour>
    <contour>
      <point x="936" y="620" type="move" name="top"/>
    </contour>
    <contour>
      <point x="396" y="-730" type="move" name="bottom"/>
    </contour>
  </outline>
</glyph>
<glyph name="sad-ar.init" format="1">
  <advance width="1777"/>
  <unicode hex="FEBB"/>
  <outline>
    <contour>
      <point x="1244" y="863"/>
      <point x="952" y="695"/>
      <point x="539" y="343" type="curve"/>
      <point x="545" y="361"/>
      <point x="559" y="394"/>
      <point x="584" y="457" type="curve" smooth="yes"/>
      <point x="662" y="639" type="line"/>
      <point x="459" y="656" type="line"/>
      <point x="345" y="412" type="line" smooth="yes"/>
      <point x="289" y="293"/>
      <point x="261" y="273"/>
      <point x="134" y="273" type="curve" smooth="yes"/>
      <point x="60" y="273" type="line" smooth="yes"/>
      <point x="-12" y="273"/>
      <point x="-90" y="212"/>
      <point x="-115" y="137" type="curve" smooth="yes"/>
      <point x="-139" y="61"/>
      <point x="-101" y="0"/>
      <point x="-29" y="0" type="curve" smooth="yes"/>
      <point x="45" y="0" type="line" smooth="yes"/>
      <point x="139" y="0"/>
      <point x="242" y="33"/>
      <point x="331" y="91" type="curve"/>
      <point x="434" y="27"/>
      <point x="598" y="-8"/>
      <point x="791" y="-6" type="curve" smooth="yes"/>
      <point x="1019" y="-4"/>
      <point x="1329" y="39"/>
      <point x="1542" y="157" type="curve" smooth="yes"/>
      <point x="1661" y="223"/>
      <point x="1743" y="312"/>
      <point x="1776" y="412" type="curve" smooth="yes"/>
      <point x="1851" y="642"/>
      <point x="1689" y="861"/>
      <point x="1444" y="862" type="curve" smooth="yes"/>
    </contour>
    <contour>
      <point x="853" y="267"/>
      <point x="789" y="271"/>
      <point x="729" y="278" type="curve"/>
      <point x="989" y="495"/>
      <point x="1146" y="579"/>
      <point x="1285" y="579" type="curve" smooth="yes"/>
      <point x="1446" y="579"/>
      <point x="1518" y="461"/>
      <point x="1542" y="386" type="curve"/>
      <point x="1361" y="309"/>
      <point x="1141" y="267"/>
      <point x="918" y="267" type="curve" smooth="yes"/>
    </contour>
    <contour>
      <point x="1514" y="1073" type="move" name="top"/>
    </contour>
    <contour>
      <point x="750" y="-216" type="move" name="bottom"/>
    </contour>
  </outline>
</glyph>
<glyph name="sad-ar.medi" format="1">
  <advance width="1880"/>
  <unicode hex="FEBC"/>
  <outline>
    <contour>
      <point x="1879" y="273" type="line" smooth="yes"/>
      <point x="1831" y="273"/>
      <point x="1748" y="276"/>
      <point x="1680" y="286" type="curve"/>
      <point x="1695" y="313"/>
      <point x="1707" y="341"/>
      <point x="1717" y="371" type="curve" smooth="yes"/>
      <point x="1799" y="624"/>
      <point x="1657" y="860"/>
      <point x="1420" y="862" type="curve" smooth="yes"/>
      <point x="1224" y="864"/>
      <point x="941" y="703"/>
      <point x="543" y="366" type="curve"/>
      <point x="561" y="403"/>
      <point x="596" y="478"/>
      <point x="660" y="637" type="curve"/>
      <point x="456" y="653" type="line"/>
      <point x="341" y="402" type="line" smooth="yes"/>
      <point x="290" y="290"/>
      <point x="263" y="273"/>
      <point x="133" y="273" type="curve" smooth="yes"/>
      <point x="59" y="273" type="line" smooth="yes"/>
      <point x="-13" y="273"/>
      <point x="-91" y="212"/>
      <point x="-115" y="137" type="curve" smooth="yes"/>
      <point x="-140" y="61"/>
      <point x="-102" y="0"/>
      <point x="-30" y="0" type="curve" smooth="yes"/>
      <point x="44" y="0" type="line" smooth="yes"/>
      <point x="150" y="0"/>
      <point x="253" y="30"/>
      <point x="336" y="85" type="curve"/>
      <point x="441" y="30"/>
      <point x="615" y="-2"/>
      <point x="808" y="-2" type="curve" smooth="yes"/>
      <point x="1014" y="-2"/>
      <point x="1286" y="30"/>
      <point x="1461" y="98" type="curve"/>
      <point x="1513" y="31"/>
      <point x="1618" y="0"/>
      <point x="1790" y="0" type="curve" smooth="yes"/>
      <point x="1910" y="0" type="line"/>
      <point x="1966" y="39"/>
      <point x="2003" y="86"/>
      <point x="2020" y="137" type="curve" smooth="yes"/>
      <point x="2036" y="188"/>
      <point x="2029" y="233"/>
      <point x="1999" y="273" type="curve"/>
    </contour>
    <contour>
      <point x="889" y="259"/>
      <point x="799" y="268"/>
      <point x="707" y="283" type="curve"/>
      <point x="964" y="494"/>
      <point x="1148" y="590"/>
      <point x="1295" y="590" type="curve" smooth="yes"/>
      <point x="1437" y="590"/>
      <point x="1483" y="431"/>
      <point x="1492" y="347" type="curve"/>
      <point x="1312" y="287"/>
      <point x="1149" y="259"/>
      <point x="984" y="259" type="curve" smooth="yes"/>
    </contour>
    <contour>
      <point x="1486" y="1078" type="move" name="top"/>
    </contour>
    <contour>
      <point x="790" y="-218" type="move" name="bottom"/>
    </contour>
  </outline>
</glyph>
<glyph name="tah-ar.fina" format="1">
  <advance width="1765"/>
  <unicode hex="FEC2"/>
  <outline>
    <contour>
      <point x="1785" y="273" type="line" smooth="yes"/>
      <point x="1755" y="273"/>
      <point x="1705" y="275"/>
      <point x="1655" y="278" type="curve"/>
      <point x="1712" y="333"/>
      <point x="1752" y="393"/>
      <point x="1773" y="459" type="curve" smooth="yes"/>
      <point x="1847" y="685"/>
      <point x="1692" y="905"/>
      <point x="1461" y="907" type="curve" smooth="yes"/>
      <point x="1314" y="908"/>
      <point x="1124" y="828"/>
      <point x="905" y="673" type="curve"/>
      <point x="917" y="704"/>
      <point x="929" y="738"/>
      <point x="942" y="778" type="curve"/>
      <point x="1168" y="1537" type="line"/>
      <point x="858" y="1429" type="line"/>
      <point x="637" y="595" type="line" smooth="yes"/>
      <point x="595" y="435"/>
      <point x="552" y="385"/>
      <point x="390" y="262" type="curve"/>
      <point x="345" y="265"/>
      <point x="339" y="266"/>
      <point x="263" y="276" type="curve"/>
      <point x="215" y="1" type="line"/>
      <point x="299" y="-8"/>
      <point x="486" y="-18"/>
      <point x="565" y="-18" type="curve" smooth="yes"/>
      <point x="780" y="-18"/>
      <point x="1072" y="11"/>
      <point x="1314" y="91" type="curve"/>
      <point x="1403" y="55"/>
      <point x="1529" y="0"/>
      <point x="1696" y="0" type="curve" smooth="yes"/>
      <point x="1795" y="0" type="line"/>
      <point x="1851" y="39"/>
      <point x="1888" y="86"/>
      <point x="1905" y="137" type="curve" smooth="yes"/>
      <point x="1921" y="188"/>
      <point x="1914" y="233"/>
      <point x="1884" y="273" type="curve"/>
    </contour>
    <contour>
      <point x="1047" y="560"/>
      <point x="1159" y="621"/>
      <point x="1290" y="621" type="curve" smooth="yes"/>
      <point x="1368" y="621"/>
      <point x="1472" y="530"/>
      <point x="1527" y="419" type="curve"/>
      <point x="1269" y="314"/>
      <point x="978" y="263"/>
      <point x="672" y="274" type="curve"/>
    </contour>
    <contour>
      <point x="1529" y="1117" type="move" name="top"/>
    </contour>
    <contour>
      <point x="644" y="-221" type="move" name="bottom"/>
    </contour>
  </outline>
</glyph>
<glyph name="tah-ar.init" format="1">
  <advance width="1664"/>
  <unicode hex="FEC3"/>
  <outline>
    <contour>
      <point x="1219" y="908"/>
      <point x="1031" y="828"/>
      <point x="811" y="674" type="curve"/>
      <point x="822" y="704"/>
      <point x="834" y="737"/>
      <point x="846" y="774" type="curve"/>
      <point x="1074" y="1541" type="line"/>
      <point x="773" y="1437" type="line"/>
      <point x="552" y="651" type="line"/>
      <point x="489" y="458"/>
      <point x="449" y="397"/>
      <point x="292" y="273" type="curve"/>
      <point x="59" y="273" type="line" smooth="yes"/>
      <point x="-13" y="273"/>
      <point x="-90" y="212"/>
      <point x="-115" y="137" type="curve" smooth="yes"/>
      <point x="-140" y="61"/>
      <point x="-101" y="0"/>
      <point x="-29" y="0" type="curve" smooth="yes"/>
      <point x="354" y="0" type="line" smooth="yes"/>
      <point x="840" y="0"/>
      <point x="1542" y="40"/>
      <point x="1678" y="459" type="curve" smooth="yes"/>
      <point x="1751" y="685"/>
      <point x="1597" y="905"/>
      <point x="1364" y="907" type="curve" smooth="yes"/>
    </contour>
    <contour>
      <point x="958" y="577"/>
      <point x="1070" y="637"/>
      <point x="1200" y="637" type="curve" smooth="yes"/>
      <point x="1278" y="637"/>
      <point x="1396" y="552"/>
      <point x="1452" y="440" type="curve"/>
      <point x="1155" y="318"/>
      <point x="880" y="303"/>
      <point x="591" y="295" type="curve"/>
    </contour>
    <contour>
      <point x="1433" y="1117" type="move" name="top"/>
    </contour>
    <contour>
      <point x="723" y="-215" type="move" name="bottom"/>
    </contour>
  </outline>
</glyph>
<glyph name="tah-ar.medi" format="1">
  <advance width="1646"/>
  <unicode hex="FEC4"/>
  <outline>
    <contour>
      <point x="1674" y="273" type="line" smooth="yes"/>
      <point x="1645" y="273"/>
      <point x="1591" y="275"/>
      <point x="1540" y="278" type="curve"/>
      <point x="1614" y="340"/>
      <point x="1658" y="397"/>
      <point x="1678" y="459" type="curve" smooth="yes"/>
      <point x="1751" y="685"/>
      <point x="1597" y="905"/>
      <point x="1364" y="907" type="curve" smooth="yes"/>
      <point x="1219" y="908"/>
      <point x="1031" y="828"/>
      <point x="811" y="674" type="curve"/>
      <point x="822" y="704"/>
      <point x="834" y="737"/>
      <point x="846" y="773" type="curve"/>
      <point x="1074" y="1541" type="line"/>
      <point x="773" y="1437" type="line"/>
      <point x="552" y="651" type="line"/>
      <point x="489" y="458"/>
      <point x="449" y="397"/>
      <point x="292" y="273" type="curve"/>
      <point x="59" y="273" type="line" smooth="yes"/>
      <point x="-13" y="273"/>
      <point x="-90" y="212"/>
      <point x="-115" y="137" type="curve" smooth="yes"/>
      <point x="-140" y="61"/>
      <point x="-101" y="0"/>
      <point x="-29" y="0" type="curve" smooth="yes"/>
      <point x="354" y="0" type="line" smooth="yes"/>
      <point x="606" y="0"/>
      <point x="919" y="1"/>
      <point x="1194" y="86" type="curve"/>
      <point x="1250" y="28"/>
      <point x="1380" y="0"/>
      <point x="1586" y="0" type="curve" smooth="yes"/>
      <point x="1677" y="0" type="line"/>
      <point x="1732" y="39"/>
      <point x="1770" y="86"/>
      <point x="1786" y="137" type="curve" smooth="yes"/>
      <point x="1803" y="188"/>
      <point x="1795" y="233"/>
      <point x="1765" y="273" type="curve"/>
    </contour>
    <contour>
      <point x="953" y="561"/>
      <point x="1064" y="621"/>
      <point x="1194" y="621" type="curve" smooth="yes"/>
      <point x="1272" y="621"/>
      <point x="1391" y="535"/>
      <point x="1446" y="424" type="curve"/>
      <point x="1150" y="302"/>
      <point x="875" y="287"/>
      <point x="585" y="279" type="curve"/>
    </contour>
    <contour>
      <point x="1434" y="1118" type="move" name="top"/>
    </contour>
    <contour>
      <point x="531" y="-219" type="move" name="bottom"/>
    </contour>
  </outline>
</glyph>
<glyph name="ain-ar.fina" format="1">
  <advance width="1304"/>
  <unicode hex="FECA"/>
  <outline>
    <contour>
      <point x="1346" y="273" type="line" smooth="yes"/>
      <point x="1146" y="273"/>
      <point x="1071" y="350"/>
      <point x="999" y="458" type="curve"/>
      <point x="1170" y="546"/>
      <point x="1440" y="664"/>
      <point x="1499" y="846" type="curve" smooth="yes"/>
      <point x="1559" y="1029"/>
      <point x="1385" y="1169"/>
      <point x="1108" y="1169" type="curve" smooth="yes"/>
      <point x="957" y="1169"/>
      <point x="744" y="1108"/>
      <point x="625" y="1061" type="curve"/>
      <point x="415" y="744" type="line"/>
      <point x="502" y="667"/>
      <point x="572" y="593"/>
      <point x="641" y="507" type="curve"/>
      <point x="411" y="352"/>
      <point x="205" y="91"/>
      <point x="127" y="-149" type="curve" smooth="yes"/>
      <point x="13" y="-500"/>
      <point x="190" y="-697"/>
      <point x="619" y="-697" type="curve" smooth="yes"/>
      <point x="727" y="-697"/>
      <point x="913" y="-680"/>
      <point x="1007" y="-649" type="curve"/>
      <point x="1172" y="-364" type="line"/>
      <point x="1043" y="-381"/>
      <point x="900" y="-403"/>
      <point x="766" y="-403" type="curve" smooth="yes"/>
      <point x="446" y="-403"/>
      <point x="300" y="-296"/>
      <point x="360" y="-113" type="curve" smooth="yes"/>
      <point x="404" y="25"/>
      <point x="560" y="196"/>
      <point x="741" y="307" type="curve"/>
      <point x="910" y="12"/>
      <point x="1099" y="0"/>
      <point x="1261" y="0" type="curve" smooth="yes"/>
      <point x="1334" y="0" type="line"/>
      <point x="1390" y="39"/>
      <point x="1427" y="86"/>
      <point x="1444" y="137" type="curve" smooth="yes"/>
      <point x="1460" y="188"/>
      <point x="1453" y="233"/>
      <point x="1423" y="273" type="curve"/>
    </contour>
    <contour>
      <point x="843" y="741"/>
      <point x="785" y="811"/>
      <point x="745" y="856" type="curve"/>
      <point x="844" y="884"/>
      <point x="933" y="899"/>
      <point x="1011" y="899" type="curve" smooth="yes"/>
      <point x="1119" y="899"/>
      <point x="1200" y="872"/>
      <point x="1247" y="822" type="curve"/>
      <point x="900" y="655" type="line"/>
    </contour>
    <contour>
      <point x="1179" y="1388" type="move" name="top"/>
    </contour>
    <contour>
      <point x="551" y="-907" type="move" name="bottom"/>
    </contour>
  </outline>
</glyph>
<glyph name="ain-ar.init" format="1">
  <advance width="1241"/>
  <unicode hex="FECB"/>
  <outline>
    <contour>
      <point x="610" y="453"/>
      <point x="589" y="568"/>
      <point x="598" y="701" type="curve"/>
      <point x="681" y="743"/>
      <point x="762" y="763"/>
      <point x="846" y="763" type="curve" smooth="yes"/>
      <point x="933" y="763"/>
      <point x="1016" y="742"/>
      <point x="1102" y="697" type="curve"/>
      <point x="1171" y="970" type="line"/>
      <point x="1099" y="1013"/>
      <point x="1008" y="1036"/>
      <point x="912" y="1036" type="curve" smooth="yes"/>
      <point x="663" y="1036"/>
      <point x="431" y="885"/>
      <point x="346" y="666" type="curve"/>
      <point x="301" y="526"/>
      <point x="325" y="407"/>
      <point x="368" y="279" type="curve"/>
      <point x="309" y="275"/>
      <point x="231" y="273"/>
      <point x="133" y="273" type="curve" smooth="yes"/>
      <point x="59" y="273" type="line" smooth="yes"/>
      <point x="-13" y="273"/>
      <point x="-90" y="212"/>
      <point x="-115" y="137" type="curve" smooth="yes"/>
      <point x="-139" y="61"/>
      <point x="-101" y="0"/>
      <point x="-29" y="0" type="curve" smooth="yes"/>
      <point x="45" y="0" type="line" smooth="yes"/>
      <point x="436" y="0"/>
      <point x="724" y="61"/>
      <point x="1149" y="197" type="curve"/>
      <point x="1263" y="484" type="line"/>
      <point x="666" y="330" type="line"/>
    </contour>
    <contour>
      <point x="974" y="1257" type="move" name="top"/>
    </contour>
    <contour>
      <point x="515" y="-198" type="move" name="bottom"/>
    </contour>
  </outline>
</glyph>
